<?xml version="1.0" standalone="no"?>
<!DOCTYPE svg PUBLIC "-//W3C//DTD SVG 20010904//EN"
 "http://www.w3.org/TR/2001/REC-SVG-20010904/DTD/svg10.dtd">
<svg version="1.0" xmlns="http://www.w3.org/2000/svg"
 width="1171.000000pt" height="862.000000pt" viewBox="0 0 1171.000000 862.000000"
 preserveAspectRatio="xMidYMid meet">

<g transform="translate(0.000000,862.000000) scale(0.100000,-0.100000)"
fill="#000000" stroke="none">
<path d="M0 7220 l0 -1400 705 0 705 0 0 -225 c0 -188 2 -225 14 -225 8 0 17
10 19 23 l4 22 2 -22 c0 -13 7 -23 15 -23 8 0 17 10 19 23 l4 22 2 -22 c1 -22
4 -23 109 -23 105 0 138 -7 1059 -215 969 -219 1065 -237 1079 -200 7 18 37
20 62 4 14 -9 25 -8 50 5 41 21 56 20 17 -1 l-30 -17 30 -7 c28 -6 28 -7 5 -8
l-25 -2 23 -11 c12 -6 22 -15 22 -20 0 -5 -18 1 -41 12 -38 20 -42 20 -59 5
-17 -15 -50 -12 -50 6 0 5 -31 9 -68 9 -52 0 -285 49 -1017 215 -915 207 -954
215 -1057 215 -103 0 -107 -1 -111 -22 l-4 -23 -2 23 c0 12 -7 22 -15 22 -8 0
-17 -10 -19 -22 l-4 -23 -2 23 c0 12 -8 22 -16 22 -13 0 -15 -71 -15 -575 l0
-575 -705 0 -705 0 0 -2105 0 -2105 5855 0 5855 0 0 4310 0 4310 -2950 0
-2950 0 0 -355 0 -355 39 -20 c34 -17 41 -18 51 -5 16 19 34 19 50 0 10 -12
38 -15 136 -15 l124 0 0 -1230 0 -1230 -309 0 c-286 0 -310 -1 -314 -17 -4
-17 -5 -17 -6 0 0 9 -7 17 -15 17 -8 0 -17 -8 -19 -17 -4 -17 -5 -17 -6 0 0 9
-8 17 -16 17 -12 0 -15 -14 -15 -70 0 -54 3 -70 14 -70 8 0 17 10 19 23 l4 22
2 -22 c0 -13 7 -23 15 -23 8 0 17 10 19 23 l4 22 2 -22 1 -23 705 0 705 0 0
375 0 375 710 0 710 0 1 23 c1 16 2 18 6 5 5 -22 7 -22 43 -3 l30 16 0 229 0
230 805 0 805 0 0 -250 c0 -210 2 -250 14 -250 8 0 17 10 19 23 l4 22 2 -22
c0 -13 7 -23 15 -23 8 0 17 10 19 23 l4 22 2 -22 c1 -22 4 -23 111 -23 l110 0
0 -1080 0 -1080 -124 0 c-98 0 -126 -3 -136 -15 -16 -19 -34 -19 -50 0 -10 13
-17 12 -51 -5 l-39 -20 0 -855 0 -855 -805 0 -805 0 0 1005 0 1005 -39 20
c-34 17 -41 18 -51 5 -16 -19 -34 -19 -50 0 -9 11 -33 15 -84 15 l-72 0 -1150
477 -1149 477 -107 4 c-105 4 -108 3 -117 -20 l-10 -23 0 23 c-1 12 -6 22 -11
22 -6 0 -15 -10 -20 -22 l-9 -23 0 23 c-1 12 -5 22 -11 22 -7 0 -10 -292 -10
-855 l0 -855 -200 0 c-167 0 -200 -2 -200 -14 0 -8 10 -17 23 -19 l22 -4 -22
-2 c-13 0 -23 -7 -23 -15 0 -8 10 -17 23 -19 l22 -4 -22 -2 -23 -1 0 -1205 c0
-1172 1 -1205 19 -1205 10 0 24 7 31 15 16 19 34 19 50 0 19 -23 48 -18 53 7
l4 23 2 -22 c0 -13 8 -23 16 -23 13 0 15 34 15 250 l0 250 805 0 805 0 0 -705
0 -705 -805 0 -805 0 0 450 c0 384 -2 450 -14 450 -8 0 -17 -10 -19 -22 l-4
-23 -2 23 c-1 26 -32 30 -51 7 -7 -8 -18 -15 -25 -15 -7 0 -18 7 -25 15 -7 8
-23 15 -36 15 l-24 0 0 1209 0 1210 -22 4 -23 4 23 2 c12 0 22 7 22 15 0 8
-10 17 -22 19 l-23 4 23 2 c12 0 22 8 22 16 0 13 -62 15 -495 15 -423 0 -495
-2 -495 -14 0 -8 10 -17 23 -19 l22 -4 -22 -2 c-13 0 -23 -7 -23 -15 0 -8 10
-17 23 -19 l22 -4 -22 -2 -23 -1 0 -1160 0 -1160 -24 0 c-13 0 -29 -7 -36 -15
-16 -19 -34 -19 -50 0 -19 23 -48 18 -53 -7 l-4 -23 -2 23 c0 12 -8 22 -16 22
-13 0 -15 -23 -15 -150 l0 -150 -805 0 -805 0 0 405 0 405 805 0 805 0 0 -250
c0 -210 2 -250 14 -250 8 0 17 10 19 23 l4 22 2 -22 c1 -27 32 -31 51 -8 16
19 34 19 50 0 7 -8 21 -15 31 -15 18 0 19 32 19 1154 l0 1155 -22 4 -23 4 23
2 c12 0 22 7 22 15 0 8 -10 17 -22 19 l-23 4 23 2 c12 0 22 8 22 16 0 12 -18
15 -100 15 l-100 0 0 1205 0 1205 805 0 805 0 0 -200 c0 -167 2 -200 14 -200
8 0 17 10 19 23 l4 22 2 -22 c0 -13 7 -23 15 -23 8 0 17 10 19 23 l4 22 2 -22
1 -23 305 0 305 0 0 1220 0 1220 -119 0 c-93 0 -121 -3 -131 -15 -16 -19 -34
-19 -50 0 -10 13 -17 12 -51 -5 l-39 -20 0 -505 0 -505 -1105 0 -1105 0 0 655
0 655 -39 20 c-34 17 -41 18 -51 5 -16 -19 -34 -19 -50 0 -9 11 -32 15 -81 15
l-69 0 0 -1425 0 -1425 249 0 250 0 4 23 4 22 2 -22 c0 -13 7 -23 15 -23 8 0
17 10 19 23 4 22 4 22 6 0 0 -12 9 -24 19 -26 15 -4 15 -5 0 -6 -9 0 -19 -9
-21 -18 -4 -17 -5 -17 -6 0 0 9 -7 17 -15 17 -8 0 -17 -8 -19 -17 -4 -17 -5
-17 -6 0 -1 16 -20 17 -256 17 l-255 0 0 1435 0 1435 74 0 c53 0 77 4 86 15
16 19 34 19 50 0 10 -13 17 -12 51 5 l39 20 0 205 0 205 -1800 0 -1800 0 0
-1400z m2170 -21 c0 -52 24 -48 28 4 2 20 8 37 13 37 6 0 9 -19 7 -42 -3 -37
-6 -43 -27 -46 -30 -5 -51 20 -51 60 0 18 5 28 15 28 11 0 15 -11 15 -41z
m190 28 c0 -16 61 -10 72 7 11 17 20 0 21 -43 1 -27 -2 -41 -10 -41 -8 0 -14
14 -15 33 l-1 32 -4 -32 -4 -32 -57 2 c-54 2 -57 3 -60 30 -3 22 1 30 17 34
12 3 21 9 21 14 0 5 5 9 10 9 6 0 10 -6 10 -13z m310 -2 c14 -17 0 -21 -17 -4
-6 6 -16 8 -22 5 -13 -8 -15 -53 -2 -60 16 -10 61 19 70 47 13 36 27 34 42 -7
7 -19 17 -33 21 -30 5 3 16 0 24 -7 10 -8 18 -9 25 -2 8 8 2 15 -18 25 -15 7
-28 20 -28 28 0 21 49 25 65 6 10 -13 10 -16 -3 -16 -8 0 -17 6 -20 13 -3 9
-7 9 -17 0 -10 -9 -8 -13 13 -18 30 -8 41 -29 23 -45 -19 -15 -78 -9 -93 10
-12 13 -15 13 -29 -5 -11 -13 -18 -16 -21 -8 -3 10 -9 10 -24 0 -24 -15 -53 1
-57 32 -7 43 41 68 68 36z m245 4 c4 -6 4 -13 0 -17 -4 -4 -10 -1 -12 6 -13
35 -49 -3 -38 -39 7 -21 31 -25 38 -6 2 6 8 9 12 5 12 -12 -5 -28 -31 -28 -32
0 -51 38 -35 69 12 22 55 29 66 10z m78 -31 l15 -43 1 43 c1 39 3 42 29 42 33
0 52 -16 52 -45 0 -12 -5 -26 -12 -33 -18 -18 -87 -15 -94 3 -4 8 -12 15 -20
15 -8 0 -14 -7 -14 -15 0 -8 -6 -15 -14 -15 -11 0 -11 8 3 45 9 25 21 45 28
45 6 0 18 -19 26 -42z m155 35 c-16 -2 -28 -11 -28 -19 0 -8 11 -15 28 -15
l27 -2 -27 -4 c-16 -2 -28 -10 -28 -18 0 -8 12 -16 28 -18 22 -3 20 -4 -10 -6
l-38 -1 0 45 0 45 38 -1 c30 -2 32 -3 10 -6z m-860 -46 c3 -22 -1 -30 -17 -34
-12 -3 -21 -9 -21 -14 0 -5 -4 -9 -10 -9 -5 0 -10 21 -10 46 0 44 1 45 28 42
21 -2 28 -9 30 -31z m230 11 c2 -13 -3 -18 -18 -18 -12 0 -19 -4 -15 -10 3 -5
13 -6 23 -3 13 5 14 3 6 -6 -27 -29 -65 6 -50 45 8 21 50 14 54 -8z m3772 -99
c0 -52 24 -48 28 4 2 20 8 37 13 37 6 0 9 -19 7 -42 -3 -37 -6 -43 -27 -46
-30 -5 -51 20 -51 60 0 18 5 28 15 28 11 0 15 -11 15 -41z m190 28 c0 -16 61
-10 72 7 11 17 20 0 21 -43 1 -27 -2 -41 -10 -41 -8 0 -14 14 -15 33 l-1 32
-4 -32 -4 -32 -57 2 c-54 2 -57 3 -60 30 -3 22 1 30 17 34 12 3 21 9 21 14 0
5 5 9 10 9 6 0 10 -6 10 -13z m310 -2 c14 -17 0 -21 -17 -4 -6 6 -16 8 -22 5
-13 -8 -15 -53 -2 -60 16 -10 61 19 70 47 13 36 27 34 42 -7 7 -19 17 -33 21
-30 5 3 16 0 24 -7 10 -8 18 -9 25 -2 8 8 2 15 -18 25 -15 7 -28 20 -28 28 0
21 49 25 65 6 10 -13 10 -16 -3 -16 -8 0 -17 6 -20 13 -3 9 -7 9 -17 0 -10 -9
-8 -13 13 -18 30 -8 41 -29 23 -45 -19 -15 -78 -9 -93 10 -12 13 -15 13 -29
-5 -11 -13 -18 -16 -21 -8 -3 10 -9 10 -24 0 -24 -15 -53 1 -57 32 -7 43 41
68 68 36z m245 4 c4 -6 4 -13 0 -17 -4 -4 -10 -1 -12 6 -13 35 -49 -3 -38 -39
7 -21 31 -25 38 -6 2 6 8 9 12 5 12 -12 -5 -28 -31 -28 -32 0 -51 38 -35 69
12 22 55 29 66 10z m78 -31 l15 -43 1 43 c1 39 3 42 29 42 33 0 52 -16 52 -45
0 -12 -5 -26 -12 -33 -18 -18 -87 -15 -94 3 -4 8 -12 15 -20 15 -8 0 -14 -7
-14 -15 0 -8 -6 -15 -14 -15 -11 0 -11 8 3 45 9 25 21 45 28 45 6 0 18 -19 26
-42z m155 35 c-16 -2 -28 -11 -28 -19 0 -8 11 -15 28 -15 l27 -2 -27 -4 c-16
-2 -28 -10 -28 -18 0 -8 12 -16 28 -18 22 -3 20 -4 -10 -6 l-38 -1 0 45 0 45
38 -1 c30 -2 32 -3 10 -6z m-860 -46 c3 -22 -1 -30 -17 -34 -12 -3 -21 -9 -21
-14 0 -5 -4 -9 -10 -9 -5 0 -10 21 -10 46 0 44 1 45 28 42 21 -2 28 -9 30 -31z
m230 11 c2 -13 -3 -18 -18 -18 -12 0 -19 -4 -15 -10 3 -5 13 -6 23 -3 13 5 14
3 6 -6 -27 -29 -65 6 -50 45 8 21 50 14 54 -8z m-4413 -53 c0 -39 -1 -40 -37
-43 l-38 -3 0 46 0 46 38 -3 c36 -3 37 -4 37 -43z m105 32 c0 -7 11 -13 27
-12 18 0 29 -6 31 -17 2 -13 -3 -18 -18 -18 -12 0 -19 -4 -15 -10 3 -5 13 -6
22 -3 11 4 14 2 9 -5 -4 -6 -22 -11 -41 -10 -34 1 -35 2 -35 45 0 23 5 43 10
43 6 0 10 -6 10 -13z m91 6 c5 -53 2 -83 -7 -83 -12 0 -23 58 -16 79 4 12 22
15 23 4z m216 -21 c-3 -15 -2 -34 4 -42 6 -11 9 -2 9 28 l0 42 38 -1 c23 -1
28 -3 15 -6 -13 -2 -23 -11 -23 -19 0 -8 10 -15 23 -15 l22 -2 -22 -4 c-31 -6
-30 -33 1 -33 13 0 26 6 29 13 3 9 8 9 21 -2 12 -10 20 -11 27 -4 8 8 2 15
-18 25 -15 7 -28 20 -28 28 0 21 49 25 65 6 10 -13 10 -16 -3 -16 -8 0 -17 6
-20 13 -3 9 -7 9 -17 0 -10 -9 -8 -13 13 -18 29 -8 41 -29 24 -43 -7 -6 -47
-10 -89 -11 -68 -1 -79 2 -90 19 -16 26 -28 26 -28 0 0 -11 -4 -20 -10 -20 -5
0 -10 20 -10 45 l0 45 36 0 c35 0 36 -1 31 -28z m236 21 c-8 -2 -13 -22 -13
-44 0 -28 -4 -39 -15 -39 -11 0 -15 11 -15 39 0 22 -5 42 -12 44 -7 3 5 5 27
5 22 0 34 -2 28 -5z m84 -21 c-3 -15 -2 -34 4 -42 6 -11 9 -2 9 28 0 23 5 42
10 42 6 0 10 -20 10 -45 0 -38 -3 -45 -20 -45 -11 0 -25 9 -32 20 -7 11 -16
20 -20 20 -5 0 -8 -9 -8 -20 0 -11 -4 -20 -10 -20 -5 0 -10 20 -10 45 l0 45
36 0 c35 0 36 -1 31 -28z m123 13 c14 -17 0 -21 -17 -4 -16 16 -33 2 -33 -26
0 -28 17 -42 33 -26 17 17 31 13 17 -4 -25 -30 -70 -11 -70 30 0 41 45 60 70
30z m73 8 c-8 -2 -13 -22 -13 -44 0 -28 -4 -39 -15 -39 -11 0 -15 11 -15 39 0
22 -5 42 -12 44 -7 3 5 5 27 5 22 0 34 -2 28 -5z m-855 -35 c2 -13 -3 -18 -17
-18 -12 0 -21 -5 -21 -11 0 -6 9 -8 23 -4 17 6 19 4 11 -5 -27 -28 -65 7 -50
46 8 21 50 14 54 -8z m190 0 c2 -13 -3 -18 -18 -18 -12 0 -19 -4 -15 -10 3 -5
13 -6 23 -3 13 5 14 3 6 -6 -27 -29 -65 6 -50 45 8 21 50 14 54 -8z m3857
-103 c0 -39 -1 -40 -37 -43 l-38 -3 0 46 0 46 38 -3 c36 -3 37 -4 37 -43z
m105 32 c0 -7 11 -13 27 -12 18 0 29 -6 31 -17 2 -13 -3 -18 -18 -18 -12 0
-19 -4 -15 -10 3 -5 13 -6 22 -3 11 4 14 2 9 -5 -4 -6 -22 -11 -41 -10 -34 1
-35 2 -35 45 0 23 5 43 10 43 6 0 10 -6 10 -13z m91 6 c5 -53 2 -83 -7 -83
-12 0 -23 58 -16 79 4 12 22 15 23 4z m216 -21 c-3 -15 -2 -34 4 -42 6 -11 9
-2 9 28 l0 42 38 -1 c23 -1 28 -3 15 -6 -13 -2 -23 -11 -23 -19 0 -8 10 -15
23 -15 l22 -2 -22 -4 c-31 -6 -30 -33 1 -33 13 0 26 6 29 13 3 9 8 9 21 -2 12
-10 20 -11 27 -4 8 8 2 15 -18 25 -15 7 -28 20 -28 28 0 21 49 25 65 6 10 -13
10 -16 -3 -16 -8 0 -17 6 -20 13 -3 9 -7 9 -17 0 -10 -9 -8 -13 13 -18 29 -8
41 -29 24 -43 -7 -6 -47 -10 -89 -11 -68 -1 -79 2 -90 19 -16 26 -28 26 -28 0
0 -11 -4 -20 -10 -20 -5 0 -10 20 -10 45 l0 45 36 0 c35 0 36 -1 31 -28z m236
21 c-8 -2 -13 -22 -13 -44 0 -28 -4 -39 -15 -39 -11 0 -15 11 -15 39 0 22 -5
42 -12 44 -7 3 5 5 27 5 22 0 34 -2 28 -5z m84 -21 c-3 -15 -2 -34 4 -42 6
-11 9 -2 9 28 0 23 5 42 10 42 6 0 10 -20 10 -45 0 -38 -3 -45 -20 -45 -11 0
-25 9 -32 20 -7 11 -16 20 -20 20 -5 0 -8 -9 -8 -20 0 -11 -4 -20 -10 -20 -5
0 -10 20 -10 45 l0 45 36 0 c35 0 36 -1 31 -28z m123 13 c14 -17 0 -21 -17 -4
-16 16 -33 2 -33 -26 0 -28 17 -42 33 -26 17 17 31 13 17 -4 -25 -30 -70 -11
-70 30 0 41 45 60 70 30z m73 8 c-8 -2 -13 -22 -13 -44 0 -28 -4 -39 -15 -39
-11 0 -15 11 -15 39 0 22 -5 42 -12 44 -7 3 5 5 27 5 22 0 34 -2 28 -5z m-855
-35 c2 -13 -3 -18 -17 -18 -12 0 -21 -5 -21 -11 0 -6 9 -8 23 -4 17 6 19 4 11
-5 -27 -28 -65 7 -50 46 8 21 50 14 54 -8z m190 0 c2 -13 -3 -18 -18 -18 -12
0 -19 -4 -15 -10 3 -5 13 -6 23 -3 13 5 14 3 6 -6 -27 -29 -65 6 -50 45 8 21
50 14 54 -8z m362 -549 c0 -52 24 -48 28 4 2 20 8 37 13 37 6 0 9 -19 7 -42
-3 -37 -6 -43 -27 -46 -30 -5 -51 20 -51 60 0 18 5 28 15 28 11 0 15 -11 15
-41z m190 28 c0 -16 61 -10 72 7 11 17 20 0 21 -43 1 -27 -2 -41 -10 -41 -8 0
-14 14 -15 33 l-1 32 -4 -32 -4 -32 -57 2 c-54 2 -57 3 -60 30 -3 22 1 30 17
34 12 3 21 9 21 14 0 5 5 9 10 9 6 0 10 -6 10 -13z m310 -2 c14 -17 0 -21 -17
-4 -6 6 -16 8 -22 5 -13 -8 -15 -53 -2 -60 16 -10 61 19 70 47 13 36 27 34 42
-7 7 -19 17 -33 21 -30 5 3 16 0 24 -7 10 -8 18 -9 25 -2 8 8 2 15 -18 25 -15
7 -28 20 -28 28 0 21 49 25 65 6 10 -13 10 -16 -3 -16 -8 0 -17 6 -20 13 -3 9
-7 9 -17 0 -10 -9 -8 -13 13 -18 30 -8 41 -29 23 -45 -19 -15 -78 -9 -93 10
-12 13 -15 13 -29 -5 -11 -13 -18 -16 -21 -8 -3 10 -9 10 -24 0 -24 -15 -53 1
-57 32 -7 43 41 68 68 36z m245 4 c4 -6 4 -13 0 -17 -4 -4 -10 -1 -12 6 -13
35 -49 -3 -38 -39 7 -21 31 -25 38 -6 2 6 8 9 12 5 12 -12 -5 -28 -31 -28 -32
0 -51 38 -35 69 12 22 55 29 66 10z m78 -31 l15 -43 1 43 c1 39 3 42 29 42 33
0 52 -16 52 -45 0 -12 -5 -26 -12 -33 -18 -18 -87 -15 -94 3 -4 8 -12 15 -20
15 -8 0 -14 -7 -14 -15 0 -8 -6 -15 -14 -15 -11 0 -11 8 3 45 9 25 21 45 28
45 6 0 18 -19 26 -42z m155 35 c-16 -2 -28 -11 -28 -19 0 -8 11 -15 28 -15
l27 -2 -27 -4 c-16 -2 -28 -10 -28 -18 0 -8 12 -16 28 -18 22 -3 20 -4 -10 -6
l-38 -1 0 45 0 45 38 -1 c30 -2 32 -3 10 -6z m-860 -46 c3 -22 -1 -30 -17 -34
-12 -3 -21 -9 -21 -14 0 -5 -4 -9 -10 -9 -5 0 -10 21 -10 46 0 44 1 45 28 42
21 -2 28 -9 30 -31z m230 11 c2 -13 -3 -18 -18 -18 -12 0 -19 -4 -15 -10 3 -5
13 -6 23 -3 13 5 14 3 6 -6 -27 -29 -65 6 -50 45 8 21 50 14 54 -8z m-293
-153 c0 -39 -1 -40 -37 -43 l-38 -3 0 46 0 46 38 -3 c36 -3 37 -4 37 -43z
m105 32 c0 -7 11 -13 27 -12 18 0 29 -6 31 -17 2 -13 -3 -18 -18 -18 -12 0
-19 -4 -15 -10 3 -5 13 -6 22 -3 11 4 14 2 9 -5 -4 -6 -22 -11 -41 -10 -34 1
-35 2 -35 45 0 23 5 43 10 43 6 0 10 -6 10 -13z m91 6 c5 -53 2 -83 -7 -83
-12 0 -23 58 -16 79 4 12 22 15 23 4z m216 -21 c-3 -15 -2 -34 4 -42 6 -11 9
-2 9 28 l0 42 38 -1 c23 -1 28 -3 15 -6 -13 -2 -23 -11 -23 -19 0 -8 10 -15
23 -15 l22 -2 -22 -4 c-31 -6 -30 -33 1 -33 13 0 26 6 29 13 3 9 8 9 21 -2 12
-10 20 -11 27 -4 8 8 2 15 -18 25 -15 7 -28 20 -28 28 0 21 49 25 65 6 10 -13
10 -16 -3 -16 -8 0 -17 6 -20 13 -3 9 -7 9 -17 0 -10 -9 -8 -13 13 -18 29 -8
41 -29 24 -43 -7 -6 -47 -10 -89 -11 -68 -1 -79 2 -90 19 -16 26 -28 26 -28 0
0 -11 -4 -20 -10 -20 -5 0 -10 20 -10 45 l0 45 36 0 c35 0 36 -1 31 -28z m236
21 c-8 -2 -13 -22 -13 -44 0 -28 -4 -39 -15 -39 -11 0 -15 11 -15 39 0 22 -5
42 -12 44 -7 3 5 5 27 5 22 0 34 -2 28 -5z m84 -21 c-3 -15 -2 -34 4 -42 6
-11 9 -2 9 28 0 23 5 42 10 42 6 0 10 -20 10 -45 0 -38 -3 -45 -20 -45 -11 0
-25 9 -32 20 -7 11 -16 20 -20 20 -5 0 -8 -9 -8 -20 0 -11 -4 -20 -10 -20 -5
0 -10 20 -10 45 l0 45 36 0 c35 0 36 -1 31 -28z m123 13 c14 -17 0 -21 -17 -4
-16 16 -33 2 -33 -26 0 -28 17 -42 33 -26 17 17 31 13 17 -4 -25 -30 -70 -11
-70 30 0 41 45 60 70 30z m73 8 c-8 -2 -13 -22 -13 -44 0 -28 -4 -39 -15 -39
-11 0 -15 11 -15 39 0 22 -5 42 -12 44 -7 3 5 5 27 5 22 0 34 -2 28 -5z m-855
-35 c2 -13 -3 -18 -17 -18 -12 0 -21 -5 -21 -11 0 -6 9 -8 23 -4 17 6 19 4 11
-5 -27 -28 -65 7 -50 46 8 21 50 14 54 -8z m190 0 c2 -13 -3 -18 -18 -18 -12
0 -19 -4 -15 -10 3 -5 13 -6 23 -3 13 5 14 3 6 -6 -27 -29 -65 6 -50 45 8 21
50 14 54 -8z m3282 -1149 c0 -52 24 -48 28 4 2 20 8 37 13 37 6 0 9 -19 7 -42
-3 -37 -6 -43 -27 -46 -30 -5 -51 20 -51 60 0 18 5 28 15 28 11 0 15 -11 15
-41z m190 28 c0 -16 61 -10 72 7 11 17 20 0 21 -43 1 -27 -2 -41 -10 -41 -8 0
-14 14 -15 33 l-1 32 -4 -32 -4 -32 -57 2 c-54 2 -57 3 -60 30 -3 22 1 30 17
34 12 3 21 9 21 14 0 5 5 9 10 9 6 0 10 -6 10 -13z m310 -2 c14 -17 0 -21 -17
-4 -6 6 -16 8 -22 5 -13 -8 -15 -53 -2 -60 16 -10 61 19 70 47 13 36 27 34 42
-7 7 -19 17 -33 21 -30 5 3 16 0 24 -7 10 -8 18 -9 25 -2 8 8 2 15 -18 25 -15
7 -28 20 -28 28 0 21 49 25 65 6 10 -13 10 -16 -3 -16 -8 0 -17 6 -20 13 -3 9
-7 9 -17 0 -10 -9 -8 -13 13 -18 30 -8 41 -29 23 -45 -19 -15 -78 -9 -93 10
-12 13 -15 13 -29 -5 -11 -13 -18 -16 -21 -8 -3 10 -9 10 -24 0 -24 -15 -53 1
-57 32 -7 43 41 68 68 36z m245 4 c4 -6 4 -13 0 -17 -4 -4 -10 -1 -12 6 -13
35 -49 -3 -38 -39 7 -21 31 -25 38 -6 2 6 8 9 12 5 12 -12 -5 -28 -31 -28 -32
0 -51 38 -35 69 12 22 55 29 66 10z m78 -31 l15 -43 1 43 c1 39 3 42 29 42 33
0 52 -16 52 -45 0 -12 -5 -26 -12 -33 -18 -18 -87 -15 -94 3 -4 8 -12 15 -20
15 -8 0 -14 -7 -14 -15 0 -8 -6 -15 -14 -15 -11 0 -11 8 3 45 9 25 21 45 28
45 6 0 18 -19 26 -42z m155 35 c-16 -2 -28 -11 -28 -19 0 -8 11 -15 28 -15
l27 -2 -27 -4 c-16 -2 -28 -10 -28 -18 0 -8 12 -16 28 -18 22 -3 20 -4 -10 -6
l-38 -1 0 45 0 45 38 -1 c30 -2 32 -3 10 -6z m-860 -46 c3 -22 -1 -30 -17 -34
-12 -3 -21 -9 -21 -14 0 -5 -4 -9 -10 -9 -5 0 -10 21 -10 46 0 44 1 45 28 42
21 -2 28 -9 30 -31z m230 11 c2 -13 -3 -18 -18 -18 -12 0 -19 -4 -15 -10 3 -5
13 -6 23 -3 13 5 14 3 6 -6 -27 -29 -65 6 -50 45 8 21 50 14 54 -8z m-293
-153 c0 -39 -1 -40 -37 -43 l-38 -3 0 46 0 46 38 -3 c36 -3 37 -4 37 -43z
m105 32 c0 -7 11 -13 27 -12 18 0 29 -6 31 -17 2 -13 -3 -18 -18 -18 -12 0
-19 -4 -15 -10 3 -5 13 -6 22 -3 11 4 14 2 9 -5 -4 -6 -22 -11 -41 -10 -34 1
-35 2 -35 45 0 23 5 43 10 43 6 0 10 -6 10 -13z m91 6 c5 -53 2 -83 -7 -83
-12 0 -23 58 -16 79 4 12 22 15 23 4z m216 -21 c-3 -15 -2 -34 4 -42 6 -11 9
-2 9 28 l0 42 38 -1 c23 -1 28 -3 15 -6 -13 -2 -23 -11 -23 -19 0 -8 10 -15
23 -15 l22 -2 -22 -4 c-31 -6 -30 -33 1 -33 13 0 26 6 29 13 3 9 8 9 21 -2 12
-10 20 -11 27 -4 8 8 2 15 -18 25 -15 7 -28 20 -28 28 0 21 49 25 65 6 10 -13
10 -16 -3 -16 -8 0 -17 6 -20 13 -3 9 -7 9 -17 0 -10 -9 -8 -13 13 -18 29 -8
41 -29 24 -43 -7 -6 -47 -10 -89 -11 -68 -1 -79 2 -90 19 -16 26 -28 26 -28 0
0 -11 -4 -20 -10 -20 -5 0 -10 20 -10 45 l0 45 36 0 c35 0 36 -1 31 -28z m236
21 c-8 -2 -13 -22 -13 -44 0 -28 -4 -39 -15 -39 -11 0 -15 11 -15 39 0 22 -5
42 -12 44 -7 3 5 5 27 5 22 0 34 -2 28 -5z m84 -21 c-3 -15 -2 -34 4 -42 6
-11 9 -2 9 28 0 23 5 42 10 42 6 0 10 -20 10 -45 0 -38 -3 -45 -20 -45 -11 0
-25 9 -32 20 -7 11 -16 20 -20 20 -5 0 -8 -9 -8 -20 0 -11 -4 -20 -10 -20 -5
0 -10 20 -10 45 l0 45 36 0 c35 0 36 -1 31 -28z m123 13 c14 -17 0 -21 -17 -4
-16 16 -33 2 -33 -26 0 -28 17 -42 33 -26 17 17 31 13 17 -4 -25 -30 -70 -11
-70 30 0 41 45 60 70 30z m73 8 c-8 -2 -13 -22 -13 -44 0 -28 -4 -39 -15 -39
-11 0 -15 11 -15 39 0 22 -5 42 -12 44 -7 3 5 5 27 5 22 0 34 -2 28 -5z m-855
-35 c2 -13 -3 -18 -17 -18 -12 0 -21 -5 -21 -11 0 -6 9 -8 23 -4 17 6 19 4 11
-5 -27 -28 -65 7 -50 46 8 21 50 14 54 -8z m190 0 c2 -13 -3 -18 -18 -18 -12
0 -19 -4 -15 -10 3 -5 13 -6 23 -3 13 5 14 3 6 -6 -27 -29 -65 6 -50 45 8 21
50 14 54 -8z m-8818 -49 c0 -52 24 -48 28 4 2 20 8 37 13 37 6 0 9 -19 7 -42
-3 -37 -6 -43 -27 -46 -30 -5 -51 20 -51 60 0 18 5 28 15 28 11 0 15 -11 15
-41z m190 28 c0 -16 61 -10 72 7 11 17 20 0 21 -43 1 -27 -2 -41 -10 -41 -8 0
-14 14 -15 33 l-1 32 -4 -32 -4 -32 -57 2 c-54 2 -57 3 -60 30 -3 22 1 30 17
34 12 3 21 9 21 14 0 5 5 9 10 9 6 0 10 -6 10 -13z m310 -2 c14 -17 0 -21 -17
-4 -6 6 -16 8 -22 5 -13 -8 -15 -53 -2 -60 16 -10 61 19 70 47 13 36 27 34 42
-7 7 -19 17 -33 21 -30 5 3 16 0 24 -7 10 -8 18 -9 25 -2 8 8 2 15 -18 25 -15
7 -28 20 -28 28 0 21 49 25 65 6 10 -13 10 -16 -3 -16 -8 0 -17 6 -20 13 -3 9
-7 9 -17 0 -10 -9 -8 -13 13 -18 30 -8 41 -29 23 -45 -19 -15 -78 -9 -93 10
-12 13 -15 13 -29 -5 -11 -13 -18 -16 -21 -8 -3 10 -9 10 -24 0 -24 -15 -53 1
-57 32 -7 43 41 68 68 36z m245 4 c4 -6 4 -13 0 -17 -4 -4 -10 -1 -12 6 -13
35 -49 -3 -38 -39 7 -21 31 -25 38 -6 2 6 8 9 12 5 12 -12 -5 -28 -31 -28 -32
0 -51 38 -35 69 12 22 55 29 66 10z m78 -31 l15 -43 1 43 c1 39 3 42 29 42 33
0 52 -16 52 -45 0 -12 -5 -26 -12 -33 -18 -18 -87 -15 -94 3 -4 8 -12 15 -20
15 -8 0 -14 -7 -14 -15 0 -8 -6 -15 -14 -15 -11 0 -11 8 3 45 9 25 21 45 28
45 6 0 18 -19 26 -42z m155 35 c-16 -2 -28 -11 -28 -19 0 -8 11 -15 28 -15
l27 -2 -27 -4 c-16 -2 -28 -10 -28 -18 0 -8 12 -16 28 -18 22 -3 20 -4 -10 -6
l-38 -1 0 45 0 45 38 -1 c30 -2 32 -3 10 -6z m-860 -46 c3 -22 -1 -30 -17 -34
-12 -3 -21 -9 -21 -14 0 -5 -4 -9 -10 -9 -5 0 -10 21 -10 46 0 44 1 45 28 42
21 -2 28 -9 30 -31z m230 11 c2 -13 -3 -18 -18 -18 -12 0 -19 -4 -15 -10 3 -5
13 -6 23 -3 13 5 14 3 6 -6 -27 -29 -65 6 -50 45 8 21 50 14 54 -8z m-293
-153 c0 -39 -1 -40 -37 -43 l-38 -3 0 46 0 46 38 -3 c36 -3 37 -4 37 -43z
m105 32 c0 -7 11 -13 27 -12 18 0 29 -6 31 -17 2 -13 -3 -18 -18 -18 -12 0
-19 -4 -15 -10 3 -5 13 -6 22 -3 11 4 14 2 9 -5 -4 -6 -22 -11 -41 -10 -34 1
-35 2 -35 45 0 23 5 43 10 43 6 0 10 -6 10 -13z m91 6 c5 -53 2 -83 -7 -83
-12 0 -23 58 -16 79 4 12 22 15 23 4z m216 -21 c-3 -15 -2 -34 4 -42 6 -11 9
-2 9 28 l0 42 38 -1 c23 -1 28 -3 15 -6 -13 -2 -23 -11 -23 -19 0 -8 10 -15
23 -15 l22 -2 -22 -4 c-31 -6 -30 -33 1 -33 13 0 26 6 29 13 3 9 8 9 21 -2 12
-10 20 -11 27 -4 8 8 2 15 -18 25 -15 7 -28 20 -28 28 0 21 49 25 65 6 10 -13
10 -16 -3 -16 -8 0 -17 6 -20 13 -3 9 -7 9 -17 0 -10 -9 -8 -13 13 -18 29 -8
41 -29 24 -43 -7 -6 -47 -10 -89 -11 -68 -1 -79 2 -90 19 -16 26 -28 26 -28 0
0 -11 -4 -20 -10 -20 -5 0 -10 20 -10 45 l0 45 36 0 c35 0 36 -1 31 -28z m236
21 c-8 -2 -13 -22 -13 -44 0 -28 -4 -39 -15 -39 -11 0 -15 11 -15 39 0 22 -5
42 -12 44 -7 3 5 5 27 5 22 0 34 -2 28 -5z m84 -21 c-3 -15 -2 -34 4 -42 6
-11 9 -2 9 28 0 23 5 42 10 42 6 0 10 -20 10 -45 0 -38 -3 -45 -20 -45 -11 0
-25 9 -32 20 -7 11 -16 20 -20 20 -5 0 -8 -9 -8 -20 0 -11 -4 -20 -10 -20 -5
0 -10 20 -10 45 l0 45 36 0 c35 0 36 -1 31 -28z m123 13 c14 -17 0 -21 -17 -4
-16 16 -33 2 -33 -26 0 -28 17 -42 33 -26 17 17 31 13 17 -4 -25 -30 -70 -11
-70 30 0 41 45 60 70 30z m73 8 c-8 -2 -13 -22 -13 -44 0 -28 -4 -39 -15 -39
-11 0 -15 11 -15 39 0 22 -5 42 -12 44 -7 3 5 5 27 5 22 0 34 -2 28 -5z m-855
-35 c2 -13 -3 -18 -17 -18 -12 0 -21 -5 -21 -11 0 -6 9 -8 23 -4 17 6 19 4 11
-5 -27 -28 -65 7 -50 46 8 21 50 14 54 -8z m190 0 c2 -13 -3 -18 -18 -18 -12
0 -19 -4 -15 -10 3 -5 13 -6 23 -3 13 5 14 3 6 -6 -27 -29 -65 6 -50 45 8 21
50 14 54 -8z m4082 -649 c0 -52 24 -48 28 4 2 20 8 37 13 37 6 0 9 -19 7 -42
-3 -37 -6 -43 -27 -46 -30 -5 -51 20 -51 60 0 18 5 28 15 28 11 0 15 -11 15
-41z m190 28 c0 -16 61 -10 72 7 11 17 20 0 21 -43 1 -27 -2 -41 -10 -41 -8 0
-14 14 -15 33 l-1 32 -4 -32 -4 -32 -57 2 c-54 2 -57 3 -60 30 -3 22 1 30 17
34 12 3 21 9 21 14 0 5 5 9 10 9 6 0 10 -6 10 -13z m310 -2 c14 -17 0 -21 -17
-4 -6 6 -16 8 -22 5 -13 -8 -15 -53 -2 -60 16 -10 61 19 70 47 13 36 27 34 42
-7 7 -19 17 -33 21 -30 5 3 16 0 24 -7 10 -8 18 -9 25 -2 8 8 2 15 -18 25 -15
7 -28 20 -28 28 0 21 49 25 65 6 10 -13 10 -16 -3 -16 -8 0 -17 6 -20 13 -3 9
-7 9 -17 0 -10 -9 -8 -13 13 -18 30 -8 41 -29 23 -45 -19 -15 -78 -9 -93 10
-12 13 -15 13 -29 -5 -11 -13 -18 -16 -21 -8 -3 10 -9 10 -24 0 -24 -15 -53 1
-57 32 -7 43 41 68 68 36z m245 4 c4 -6 4 -13 0 -17 -4 -4 -10 -1 -12 6 -13
35 -49 -3 -38 -39 7 -21 31 -25 38 -6 2 6 8 9 12 5 12 -12 -5 -28 -31 -28 -32
0 -51 38 -35 69 12 22 55 29 66 10z m78 -31 l15 -43 1 43 c1 39 3 42 29 42 33
0 52 -16 52 -45 0 -12 -5 -26 -12 -33 -18 -18 -87 -15 -94 3 -4 8 -12 15 -20
15 -8 0 -14 -7 -14 -15 0 -8 -6 -15 -14 -15 -11 0 -11 8 3 45 9 25 21 45 28
45 6 0 18 -19 26 -42z m155 35 c-16 -2 -28 -11 -28 -19 0 -8 11 -15 28 -15
l27 -2 -27 -4 c-16 -2 -28 -10 -28 -18 0 -8 12 -16 28 -18 22 -3 20 -4 -10 -6
l-38 -1 0 45 0 45 38 -1 c30 -2 32 -3 10 -6z m-860 -46 c3 -22 -1 -30 -17 -34
-12 -3 -21 -9 -21 -14 0 -5 -4 -9 -10 -9 -5 0 -10 21 -10 46 0 44 1 45 28 42
21 -2 28 -9 30 -31z m230 11 c2 -13 -3 -18 -18 -18 -12 0 -19 -4 -15 -10 3 -5
13 -6 23 -3 13 5 14 3 6 -6 -27 -29 -65 6 -50 45 8 21 50 14 54 -8z m-293
-153 c0 -39 -1 -40 -37 -43 l-38 -3 0 46 0 46 38 -3 c36 -3 37 -4 37 -43z
m105 32 c0 -7 11 -13 27 -12 18 0 29 -6 31 -17 2 -13 -3 -18 -18 -18 -12 0
-19 -4 -15 -10 3 -5 13 -6 22 -3 11 4 14 2 9 -5 -4 -6 -22 -11 -41 -10 -34 1
-35 2 -35 45 0 23 5 43 10 43 6 0 10 -6 10 -13z m91 6 c5 -53 2 -83 -7 -83
-12 0 -23 58 -16 79 4 12 22 15 23 4z m216 -21 c-3 -15 -2 -34 4 -42 6 -11 9
-2 9 28 l0 42 38 -1 c23 -1 28 -3 15 -6 -13 -2 -23 -11 -23 -19 0 -8 10 -15
23 -15 l22 -2 -22 -4 c-31 -6 -30 -33 1 -33 13 0 26 6 29 13 3 9 8 9 21 -2 12
-10 20 -11 27 -4 8 8 2 15 -18 25 -15 7 -28 20 -28 28 0 21 49 25 65 6 10 -13
10 -16 -3 -16 -8 0 -17 6 -20 13 -3 9 -7 9 -17 0 -10 -9 -8 -13 13 -18 29 -8
41 -29 24 -43 -7 -6 -47 -10 -89 -11 -68 -1 -79 2 -90 19 -16 26 -28 26 -28 0
0 -11 -4 -20 -10 -20 -5 0 -10 20 -10 45 l0 45 36 0 c35 0 36 -1 31 -28z m236
21 c-8 -2 -13 -22 -13 -44 0 -28 -4 -39 -15 -39 -11 0 -15 11 -15 39 0 22 -5
42 -12 44 -7 3 5 5 27 5 22 0 34 -2 28 -5z m84 -21 c-3 -15 -2 -34 4 -42 6
-11 9 -2 9 28 0 23 5 42 10 42 6 0 10 -20 10 -45 0 -38 -3 -45 -20 -45 -11 0
-25 9 -32 20 -7 11 -16 20 -20 20 -5 0 -8 -9 -8 -20 0 -11 -4 -20 -10 -20 -5
0 -10 20 -10 45 l0 45 36 0 c35 0 36 -1 31 -28z m123 13 c14 -17 0 -21 -17 -4
-16 16 -33 2 -33 -26 0 -28 17 -42 33 -26 17 17 31 13 17 -4 -25 -30 -70 -11
-70 30 0 41 45 60 70 30z m73 8 c-8 -2 -13 -22 -13 -44 0 -28 -4 -39 -15 -39
-11 0 -15 11 -15 39 0 22 -5 42 -12 44 -7 3 5 5 27 5 22 0 34 -2 28 -5z m-855
-35 c2 -13 -3 -18 -17 -18 -12 0 -21 -5 -21 -11 0 -6 9 -8 23 -4 17 6 19 4 11
-5 -27 -28 -65 7 -50 46 8 21 50 14 54 -8z m190 0 c2 -13 -3 -18 -18 -18 -12
0 -19 -4 -15 -10 3 -5 13 -6 23 -3 13 5 14 3 6 -6 -27 -29 -65 6 -50 45 8 21
50 14 54 -8z m-2504 -664 c28 -11 18 -34 -14 -34 -18 0 -30 5 -30 13 0 25 15
32 44 21z m206 -14 c0 -13 -7 -20 -20 -20 -25 0 -26 16 -2 29 23 14 22 14 22
-9z m460 -6 c0 -11 -24 -14 -115 -14 -95 0 -115 3 -115 15 0 12 17 14 91 14
50 0 93 2 96 4 9 10 43 -6 43 -19z m-531 4 c11 -10 13 -10 7 0 -4 6 -2 12 3
12 6 0 11 -7 11 -15 0 -12 -13 -15 -60 -15 -47 0 -60 3 -60 15 0 19 80 21 99
3z m161 -1 c0 -8 2 -9 8 -1 10 16 114 12 120 -3 3 -10 -22 -13 -102 -13 -94 0
-118 5 -101 22 11 11 75 7 75 -5z m-117 -59 c4 -14 -1 -18 -19 -18 -16 0 -24
6 -24 18 0 11 7 18 19 18 11 0 22 -8 24 -18z m-113 -3 c0 -11 -11 -15 -40 -15
-38 0 -49 8 -33 23 3 4 21 7 40 7 23 0 33 -5 33 -15z m60 0 c0 -8 -9 -15 -20
-15 -11 0 -20 7 -20 15 0 8 9 15 20 15 11 0 20 -7 20 -15z m177 -2 c3 -7 -14
-12 -47 -15 -42 -2 -50 0 -50 15 0 14 8 17 47 15 25 -2 48 -8 50 -15z m27 5
c-6 -10 -4 -10 7 0 18 17 79 16 79 -2 0 -10 -15 -15 -50 -18 -42 -2 -50 0 -50
15 0 9 5 17 11 17 5 0 7 -6 3 -12z m135 0 c11 -10 13 -10 7 0 -4 6 -2 12 3 12
6 0 11 -7 11 -15 0 -10 -10 -15 -30 -15 -29 0 -38 9 -23 23 9 10 17 9 32 -5z
m72 0 c0 -10 2 -10 6 0 3 7 24 12 54 12 39 0 47 -3 43 -15 -5 -11 -22 -15 -69
-15 -59 0 -83 8 -68 24 11 11 33 7 34 -6z m-424 -50 c31 1 43 -3 43 -13 0 -12
-15 -15 -65 -15 -59 0 -65 2 -65 21 0 16 4 19 22 13 12 -3 41 -6 65 -6z m253
-14 c0 -11 -17 -14 -70 -14 -54 0 -70 3 -70 14 0 17 34 23 98 17 28 -2 42 -8
42 -17z m108 -9 c-4 -4 -38 -7 -70 -6 -20 1 -26 5 -22 16 4 9 17 13 40 11 19
-1 38 2 42 8 4 7 8 4 10 -7 2 -10 2 -20 0 -22z m142 10 c0 -17 -21 -21 -77
-16 -29 2 -43 8 -43 17 0 10 10 14 35 12 19 -1 37 1 40 4 10 10 45 -4 45 -17z
m-410 0 c0 -8 -9 -15 -20 -15 -11 0 -20 7 -20 15 0 8 9 15 20 15 11 0 20 -7
20 -15z m-1620 -446 c0 -52 24 -48 28 4 2 20 8 37 13 37 6 0 9 -19 7 -42 -3
-37 -6 -43 -27 -46 -30 -5 -51 20 -51 60 0 18 5 28 15 28 11 0 15 -11 15 -41z
m190 28 c0 -16 61 -10 72 7 11 17 20 0 21 -43 1 -27 -2 -41 -10 -41 -8 0 -14
14 -15 33 l-1 32 -4 -32 -4 -32 -57 2 c-54 2 -57 3 -60 30 -3 22 1 30 17 34
12 3 21 9 21 14 0 5 5 9 10 9 6 0 10 -6 10 -13z m310 -2 c14 -17 0 -21 -17 -4
-6 6 -16 8 -22 5 -13 -8 -15 -53 -2 -60 16 -10 61 19 70 47 13 36 27 34 42 -7
7 -19 17 -33 21 -30 5 3 16 0 24 -7 10 -8 18 -9 25 -2 8 8 2 15 -18 25 -15 7
-28 20 -28 28 0 21 49 25 65 6 10 -13 10 -16 -3 -16 -8 0 -17 6 -20 13 -3 9
-7 9 -17 0 -10 -9 -8 -13 13 -18 30 -8 41 -29 23 -45 -19 -15 -78 -9 -93 10
-12 13 -15 13 -29 -5 -11 -13 -18 -16 -21 -8 -3 10 -9 10 -24 0 -24 -15 -53 1
-57 32 -7 43 41 68 68 36z m245 4 c4 -6 4 -13 0 -17 -4 -4 -10 -1 -12 6 -13
35 -49 -3 -38 -39 7 -21 31 -25 38 -6 2 6 8 9 12 5 12 -12 -5 -28 -31 -28 -32
0 -51 38 -35 69 12 22 55 29 66 10z m78 -31 l15 -43 1 43 c1 39 3 42 29 42 33
0 52 -16 52 -45 0 -12 -5 -26 -12 -33 -18 -18 -87 -15 -94 3 -4 8 -12 15 -20
15 -8 0 -14 -7 -14 -15 0 -8 -6 -15 -14 -15 -11 0 -11 8 3 45 9 25 21 45 28
45 6 0 18 -19 26 -42z m155 35 c-16 -2 -28 -11 -28 -19 0 -8 11 -15 28 -15
l27 -2 -27 -4 c-16 -2 -28 -10 -28 -18 0 -8 12 -16 28 -18 22 -3 20 -4 -10 -6
l-38 -1 0 45 0 45 38 -1 c30 -2 32 -3 10 -6z m-860 -46 c3 -22 -1 -30 -17 -34
-12 -3 -21 -9 -21 -14 0 -5 -4 -9 -10 -9 -5 0 -10 21 -10 46 0 44 1 45 28 42
21 -2 28 -9 30 -31z m230 11 c2 -13 -3 -18 -18 -18 -12 0 -19 -4 -15 -10 3 -5
13 -6 23 -3 13 5 14 3 6 -6 -27 -29 -65 6 -50 45 8 21 50 14 54 -8z m2052 -99
c0 -52 24 -48 28 4 2 20 8 37 13 37 6 0 9 -19 7 -42 -3 -37 -6 -43 -27 -46
-30 -5 -51 20 -51 60 0 18 5 28 15 28 11 0 15 -11 15 -41z m190 28 c0 -16 61
-10 72 7 11 17 20 0 21 -43 1 -27 -2 -41 -10 -41 -8 0 -14 14 -15 33 l-1 32
-4 -32 -4 -32 -57 2 c-54 2 -57 3 -60 30 -3 22 1 30 17 34 12 3 21 9 21 14 0
5 5 9 10 9 6 0 10 -6 10 -13z m310 -2 c14 -17 0 -21 -17 -4 -6 6 -16 8 -22 5
-13 -8 -15 -53 -2 -60 16 -10 61 19 70 47 13 36 27 34 42 -7 7 -19 17 -33 21
-30 5 3 16 0 24 -7 10 -8 18 -9 25 -2 8 8 2 15 -18 25 -15 7 -28 20 -28 28 0
21 49 25 65 6 10 -13 10 -16 -3 -16 -8 0 -17 6 -20 13 -3 9 -7 9 -17 0 -10 -9
-8 -13 13 -18 30 -8 41 -29 23 -45 -19 -15 -78 -9 -93 10 -12 13 -15 13 -29
-5 -11 -13 -18 -16 -21 -8 -3 10 -9 10 -24 0 -24 -15 -53 1 -57 32 -7 43 41
68 68 36z m245 4 c4 -6 4 -13 0 -17 -4 -4 -10 -1 -12 6 -13 35 -49 -3 -38 -39
7 -21 31 -25 38 -6 2 6 8 9 12 5 12 -12 -5 -28 -31 -28 -32 0 -51 38 -35 69
12 22 55 29 66 10z m78 -31 l15 -43 1 43 c1 39 3 42 29 42 33 0 52 -16 52 -45
0 -12 -5 -26 -12 -33 -18 -18 -87 -15 -94 3 -4 8 -12 15 -20 15 -8 0 -14 -7
-14 -15 0 -8 -6 -15 -14 -15 -11 0 -11 8 3 45 9 25 21 45 28 45 6 0 18 -19 26
-42z m155 35 c-16 -2 -28 -11 -28 -19 0 -8 11 -15 28 -15 l27 -2 -27 -4 c-16
-2 -28 -10 -28 -18 0 -8 12 -16 28 -18 22 -3 20 -4 -10 -6 l-38 -1 0 45 0 45
38 -1 c30 -2 32 -3 10 -6z m-860 -46 c3 -22 -1 -30 -17 -34 -12 -3 -21 -9 -21
-14 0 -5 -4 -9 -10 -9 -5 0 -10 21 -10 46 0 44 1 45 28 42 21 -2 28 -9 30 -31z
m230 11 c2 -13 -3 -18 -18 -18 -12 0 -19 -4 -15 -10 3 -5 13 -6 23 -3 13 5 14
3 6 -6 -27 -29 -65 6 -50 45 8 21 50 14 54 -8z m-2693 -53 c0 -39 -1 -40 -37
-43 l-38 -3 0 46 0 46 38 -3 c36 -3 37 -4 37 -43z m105 32 c0 -7 11 -13 27
-12 18 0 29 -6 31 -17 2 -13 -3 -18 -18 -18 -12 0 -19 -4 -15 -10 3 -5 13 -6
22 -3 11 4 14 2 9 -5 -4 -6 -22 -11 -41 -10 -34 1 -35 2 -35 45 0 23 5 43 10
43 6 0 10 -6 10 -13z m91 6 c5 -53 2 -83 -7 -83 -12 0 -23 58 -16 79 4 12 22
15 23 4z m216 -21 c-3 -15 -2 -34 4 -42 6 -11 9 -2 9 28 l0 42 38 -1 c23 -1
28 -3 15 -6 -13 -2 -23 -11 -23 -19 0 -8 10 -15 23 -15 l22 -2 -22 -4 c-31 -6
-30 -33 1 -33 13 0 26 6 29 13 3 9 8 9 21 -2 12 -10 20 -11 27 -4 8 8 2 15
-18 25 -15 7 -28 20 -28 28 0 21 49 25 65 6 10 -13 10 -16 -3 -16 -8 0 -17 6
-20 13 -3 9 -7 9 -17 0 -10 -9 -8 -13 13 -18 29 -8 41 -29 24 -43 -7 -6 -47
-10 -89 -11 -68 -1 -79 2 -90 19 -16 26 -28 26 -28 0 0 -11 -4 -20 -10 -20 -5
0 -10 20 -10 45 l0 45 36 0 c35 0 36 -1 31 -28z m236 21 c-8 -2 -13 -22 -13
-44 0 -28 -4 -39 -15 -39 -11 0 -15 11 -15 39 0 22 -5 42 -12 44 -7 3 5 5 27
5 22 0 34 -2 28 -5z m84 -21 c-3 -15 -2 -34 4 -42 6 -11 9 -2 9 28 0 23 5 42
10 42 6 0 10 -20 10 -45 0 -38 -3 -45 -20 -45 -11 0 -25 9 -32 20 -7 11 -16
20 -20 20 -5 0 -8 -9 -8 -20 0 -11 -4 -20 -10 -20 -5 0 -10 20 -10 45 l0 45
36 0 c35 0 36 -1 31 -28z m123 13 c14 -17 0 -21 -17 -4 -16 16 -33 2 -33 -26
0 -28 17 -42 33 -26 17 17 31 13 17 -4 -25 -30 -70 -11 -70 30 0 41 45 60 70
30z m73 8 c-8 -2 -13 -22 -13 -44 0 -28 -4 -39 -15 -39 -11 0 -15 11 -15 39 0
22 -5 42 -12 44 -7 3 5 5 27 5 22 0 34 -2 28 -5z m-855 -35 c2 -13 -3 -18 -17
-18 -12 0 -21 -5 -21 -11 0 -6 9 -8 23 -4 17 6 19 4 11 -5 -27 -28 -65 7 -50
46 8 21 50 14 54 -8z m190 0 c2 -13 -3 -18 -18 -18 -12 0 -19 -4 -15 -10 3 -5
13 -6 23 -3 13 5 14 3 6 -6 -27 -29 -65 6 -50 45 8 21 50 14 54 -8z m2137
-103 c0 -39 -1 -40 -37 -43 l-38 -3 0 46 0 46 38 -3 c36 -3 37 -4 37 -43z
m105 32 c0 -7 11 -13 27 -12 18 0 29 -6 31 -17 2 -13 -3 -18 -18 -18 -12 0
-19 -4 -15 -10 3 -5 13 -6 22 -3 11 4 14 2 9 -5 -4 -6 -22 -11 -41 -10 -34 1
-35 2 -35 45 0 23 5 43 10 43 6 0 10 -6 10 -13z m91 6 c5 -53 2 -83 -7 -83
-12 0 -23 58 -16 79 4 12 22 15 23 4z m216 -21 c-3 -15 -2 -34 4 -42 6 -11 9
-2 9 28 l0 42 38 -1 c23 -1 28 -3 15 -6 -13 -2 -23 -11 -23 -19 0 -8 10 -15
23 -15 l22 -2 -22 -4 c-31 -6 -30 -33 1 -33 13 0 26 6 29 13 3 9 8 9 21 -2 12
-10 20 -11 27 -4 8 8 2 15 -18 25 -15 7 -28 20 -28 28 0 21 49 25 65 6 10 -13
10 -16 -3 -16 -8 0 -17 6 -20 13 -3 9 -7 9 -17 0 -10 -9 -8 -13 13 -18 29 -8
41 -29 24 -43 -7 -6 -47 -10 -89 -11 -68 -1 -79 2 -90 19 -16 26 -28 26 -28 0
0 -11 -4 -20 -10 -20 -5 0 -10 20 -10 45 l0 45 36 0 c35 0 36 -1 31 -28z m236
21 c-8 -2 -13 -22 -13 -44 0 -28 -4 -39 -15 -39 -11 0 -15 11 -15 39 0 22 -5
42 -12 44 -7 3 5 5 27 5 22 0 34 -2 28 -5z m84 -21 c-3 -15 -2 -34 4 -42 6
-11 9 -2 9 28 0 23 5 42 10 42 6 0 10 -20 10 -45 0 -38 -3 -45 -20 -45 -11 0
-25 9 -32 20 -7 11 -16 20 -20 20 -5 0 -8 -9 -8 -20 0 -11 -4 -20 -10 -20 -5
0 -10 20 -10 45 l0 45 36 0 c35 0 36 -1 31 -28z m123 13 c14 -17 0 -21 -17 -4
-16 16 -33 2 -33 -26 0 -28 17 -42 33 -26 17 17 31 13 17 -4 -25 -30 -70 -11
-70 30 0 41 45 60 70 30z m73 8 c-8 -2 -13 -22 -13 -44 0 -28 -4 -39 -15 -39
-11 0 -15 11 -15 39 0 22 -5 42 -12 44 -7 3 5 5 27 5 22 0 34 -2 28 -5z m-855
-35 c2 -13 -3 -18 -17 -18 -12 0 -21 -5 -21 -11 0 -6 9 -8 23 -4 17 6 19 4 11
-5 -27 -28 -65 7 -50 46 8 21 50 14 54 -8z m190 0 c2 -13 -3 -18 -18 -18 -12
0 -19 -4 -15 -10 3 -5 13 -6 23 -3 13 5 14 3 6 -6 -27 -29 -65 6 -50 45 8 21
50 14 54 -8z"/>
<path d="M2320 7185 c0 -15 4 -24 10 -20 6 3 10 12 10 20 0 8 -4 17 -10 20 -6
4 -10 -5 -10 -20z"/>
<path d="M2373 7203 c-21 -8 -15 -22 7 -16 11 3 20 9 20 14 0 10 -8 10 -27 2z"/>
<path d="M2380 7170 c0 -5 5 -10 10 -10 6 0 10 5 10 10 0 6 -4 10 -10 10 -5 0
-10 -4 -10 -10z"/>
<path d="M2710 7200 c0 -5 5 -10 11 -10 5 0 7 5 4 10 -3 6 -8 10 -11 10 -2 0
-4 -4 -4 -10z"/>
<path d="M3030 7195 c0 -29 3 -36 18 -33 11 2 17 13 17 33 0 20 -6 31 -17 33
-15 3 -18 -4 -18 -33z"/>
<path d="M2257 7203 c-11 -10 -8 -43 3 -43 6 0 10 11 10 25 0 26 -2 29 -13 18z"/>
<path d="M2485 7200 c-3 -5 -1 -10 4 -10 6 0 11 5 11 10 0 6 -2 10 -4 10 -3 0
-8 -4 -11 -10z"/>
<path d="M6440 7085 c0 -15 4 -24 10 -20 6 3 10 12 10 20 0 8 -4 17 -10 20 -6
4 -10 -5 -10 -20z"/>
<path d="M6493 7103 c-21 -8 -15 -22 7 -16 11 3 20 9 20 14 0 10 -8 10 -27 2z"/>
<path d="M6500 7070 c0 -5 5 -10 10 -10 6 0 10 5 10 10 0 6 -4 10 -10 10 -5 0
-10 -4 -10 -10z"/>
<path d="M6830 7100 c0 -5 5 -10 11 -10 5 0 7 5 4 10 -3 6 -8 10 -11 10 -2 0
-4 -4 -4 -10z"/>
<path d="M7150 7095 c0 -29 3 -36 18 -33 11 2 17 13 17 33 0 20 -6 31 -17 33
-15 3 -18 -4 -18 -33z"/>
<path d="M6377 7103 c-11 -10 -8 -43 3 -43 6 0 10 11 10 25 0 26 -2 29 -13 18z"/>
<path d="M6605 7100 c-3 -5 -1 -10 4 -10 6 0 11 5 11 10 0 6 -2 10 -4 10 -3 0
-8 -4 -11 -10z"/>
<path d="M2180 7045 c0 -25 4 -35 13 -32 6 2 12 16 12 32 0 16 -6 30 -12 33
-9 2 -13 -8 -13 -33z"/>
<path d="M2355 7050 c-3 -5 -1 -10 4 -10 6 0 11 5 11 10 0 6 -2 10 -4 10 -3 0
-8 -4 -11 -10z"/>
<path d="M2590 7065 c0 -8 7 -15 15 -15 8 0 15 7 15 15 0 8 -7 15 -15 15 -8 0
-15 -7 -15 -15z"/>
<path d="M2910 7065 c0 -8 7 -15 15 -15 8 0 15 7 15 15 0 8 -7 15 -15 15 -8 0
-15 -7 -15 -15z"/>
<path d="M2260 7050 c0 -5 5 -10 11 -10 5 0 7 5 4 10 -3 6 -8 10 -11 10 -2 0
-4 -4 -4 -10z"/>
<path d="M2455 7050 c-3 -5 -1 -10 4 -10 6 0 11 5 11 10 0 6 -2 10 -4 10 -3 0
-8 -4 -11 -10z"/>
<path d="M6300 6945 c0 -25 4 -35 13 -32 6 2 12 16 12 32 0 16 -6 30 -12 33
-9 2 -13 -8 -13 -33z"/>
<path d="M6475 6950 c-3 -5 -1 -10 4 -10 6 0 11 5 11 10 0 6 -2 10 -4 10 -3 0
-8 -4 -11 -10z"/>
<path d="M6710 6965 c0 -8 7 -15 15 -15 8 0 15 7 15 15 0 8 -7 15 -15 15 -8 0
-15 -7 -15 -15z"/>
<path d="M7030 6965 c0 -8 7 -15 15 -15 8 0 15 7 15 15 0 8 -7 15 -15 15 -8 0
-15 -7 -15 -15z"/>
<path d="M6380 6950 c0 -5 5 -10 11 -10 5 0 7 5 4 10 -3 6 -8 10 -11 10 -2 0
-4 -4 -4 -10z"/>
<path d="M6575 6950 c-3 -5 -1 -10 4 -10 6 0 11 5 11 10 0 6 -2 10 -4 10 -3 0
-8 -4 -11 -10z"/>
<path d="M7120 6385 c0 -15 4 -24 10 -20 6 3 10 12 10 20 0 8 -4 17 -10 20 -6
4 -10 -5 -10 -20z"/>
<path d="M7173 6403 c-21 -8 -15 -22 7 -16 11 3 20 9 20 14 0 10 -8 10 -27 2z"/>
<path d="M7180 6370 c0 -5 5 -10 10 -10 6 0 10 5 10 10 0 6 -4 10 -10 10 -5 0
-10 -4 -10 -10z"/>
<path d="M7510 6400 c0 -5 5 -10 11 -10 5 0 7 5 4 10 -3 6 -8 10 -11 10 -2 0
-4 -4 -4 -10z"/>
<path d="M7830 6395 c0 -29 3 -36 18 -33 11 2 17 13 17 33 0 20 -6 31 -17 33
-15 3 -18 -4 -18 -33z"/>
<path d="M7057 6403 c-11 -10 -8 -43 3 -43 6 0 10 11 10 25 0 26 -2 29 -13 18z"/>
<path d="M7285 6400 c-3 -5 -1 -10 4 -10 6 0 11 5 11 10 0 6 -2 10 -4 10 -3 0
-8 -4 -11 -10z"/>
<path d="M6980 6245 c0 -25 4 -35 13 -32 6 2 12 16 12 32 0 16 -6 30 -12 33
-9 2 -13 -8 -13 -33z"/>
<path d="M7155 6250 c-3 -5 -1 -10 4 -10 6 0 11 5 11 10 0 6 -2 10 -4 10 -3 0
-8 -4 -11 -10z"/>
<path d="M7390 6265 c0 -8 7 -15 15 -15 8 0 15 7 15 15 0 8 -7 15 -15 15 -8 0
-15 -7 -15 -15z"/>
<path d="M7710 6265 c0 -8 7 -15 15 -15 8 0 15 7 15 15 0 8 -7 15 -15 15 -8 0
-15 -7 -15 -15z"/>
<path d="M7060 6250 c0 -5 5 -10 11 -10 5 0 7 5 4 10 -3 6 -8 10 -11 10 -2 0
-4 -4 -4 -10z"/>
<path d="M7255 6250 c-3 -5 -1 -10 4 -10 6 0 11 5 11 10 0 6 -2 10 -4 10 -3 0
-8 -4 -11 -10z"/>
<path d="M10720 5085 c0 -15 4 -24 10 -20 6 3 10 12 10 20 0 8 -4 17 -10 20
-6 4 -10 -5 -10 -20z"/>
<path d="M10773 5103 c-21 -8 -15 -22 7 -16 11 3 20 9 20 14 0 10 -8 10 -27 2z"/>
<path d="M10780 5070 c0 -5 5 -10 10 -10 6 0 10 5 10 10 0 6 -4 10 -10 10 -5
0 -10 -4 -10 -10z"/>
<path d="M11110 5100 c0 -5 5 -10 11 -10 5 0 7 5 4 10 -3 6 -8 10 -11 10 -2 0
-4 -4 -4 -10z"/>
<path d="M11430 5095 c0 -29 3 -36 18 -33 11 2 17 13 17 33 0 20 -6 31 -17 33
-15 3 -18 -4 -18 -33z"/>
<path d="M10657 5103 c-11 -10 -8 -43 3 -43 6 0 10 11 10 25 0 26 -2 29 -13
18z"/>
<path d="M10885 5100 c-3 -5 -1 -10 4 -10 6 0 11 5 11 10 0 6 -2 10 -4 10 -3
0 -8 -4 -11 -10z"/>
<path d="M10580 4945 c0 -25 4 -35 13 -32 6 2 12 16 12 32 0 16 -6 30 -12 33
-9 2 -13 -8 -13 -33z"/>
<path d="M10755 4950 c-3 -5 -1 -10 4 -10 6 0 11 5 11 10 0 6 -2 10 -4 10 -3
0 -8 -4 -11 -10z"/>
<path d="M10990 4965 c0 -8 7 -15 15 -15 8 0 15 7 15 15 0 8 -7 15 -15 15 -8
0 -15 -7 -15 -15z"/>
<path d="M11310 4965 c0 -8 7 -15 15 -15 8 0 15 7 15 15 0 8 -7 15 -15 15 -8
0 -15 -7 -15 -15z"/>
<path d="M10660 4950 c0 -5 5 -10 11 -10 5 0 7 5 4 10 -3 6 -8 10 -11 10 -2 0
-4 -4 -4 -10z"/>
<path d="M10855 4950 c-3 -5 -1 -10 4 -10 6 0 11 5 11 10 0 6 -2 10 -4 10 -3
0 -8 -4 -11 -10z"/>
<path d="M2220 4885 c0 -15 4 -24 10 -20 6 3 10 12 10 20 0 8 -4 17 -10 20 -6
4 -10 -5 -10 -20z"/>
<path d="M2273 4903 c-21 -8 -15 -22 7 -16 11 3 20 9 20 14 0 10 -8 10 -27 2z"/>
<path d="M2280 4870 c0 -5 5 -10 10 -10 6 0 10 5 10 10 0 6 -4 10 -10 10 -5 0
-10 -4 -10 -10z"/>
<path d="M2610 4900 c0 -5 5 -10 11 -10 5 0 7 5 4 10 -3 6 -8 10 -11 10 -2 0
-4 -4 -4 -10z"/>
<path d="M2930 4895 c0 -29 3 -36 18 -33 11 2 17 13 17 33 0 20 -6 31 -17 33
-15 3 -18 -4 -18 -33z"/>
<path d="M2157 4903 c-11 -10 -8 -43 3 -43 6 0 10 11 10 25 0 26 -2 29 -13 18z"/>
<path d="M2385 4900 c-3 -5 -1 -10 4 -10 6 0 11 5 11 10 0 6 -2 10 -4 10 -3 0
-8 -4 -11 -10z"/>
<path d="M2080 4745 c0 -25 4 -35 13 -32 6 2 12 16 12 32 0 16 -6 30 -12 33
-9 2 -13 -8 -13 -33z"/>
<path d="M2255 4750 c-3 -5 -1 -10 4 -10 6 0 11 5 11 10 0 6 -2 10 -4 10 -3 0
-8 -4 -11 -10z"/>
<path d="M2490 4765 c0 -8 7 -15 15 -15 8 0 15 7 15 15 0 8 -7 15 -15 15 -8 0
-15 -7 -15 -15z"/>
<path d="M2810 4765 c0 -8 7 -15 15 -15 8 0 15 7 15 15 0 8 -7 15 -15 15 -8 0
-15 -7 -15 -15z"/>
<path d="M2160 4750 c0 -5 5 -10 11 -10 5 0 7 5 4 10 -3 6 -8 10 -11 10 -2 0
-4 -4 -4 -10z"/>
<path d="M2355 4750 c-3 -5 -1 -10 4 -10 6 0 11 5 11 10 0 6 -2 10 -4 10 -3 0
-8 -4 -11 -10z"/>
<path d="M6620 4085 c0 -15 4 -24 10 -20 6 3 10 12 10 20 0 8 -4 17 -10 20 -6
4 -10 -5 -10 -20z"/>
<path d="M6673 4103 c-21 -8 -15 -22 7 -16 11 3 20 9 20 14 0 10 -8 10 -27 2z"/>
<path d="M6680 4070 c0 -5 5 -10 10 -10 6 0 10 5 10 10 0 6 -4 10 -10 10 -5 0
-10 -4 -10 -10z"/>
<path d="M7010 4100 c0 -5 5 -10 11 -10 5 0 7 5 4 10 -3 6 -8 10 -11 10 -2 0
-4 -4 -4 -10z"/>
<path d="M7330 4095 c0 -29 3 -36 18 -33 11 2 17 13 17 33 0 20 -6 31 -17 33
-15 3 -18 -4 -18 -33z"/>
<path d="M6557 4103 c-11 -10 -8 -43 3 -43 6 0 10 11 10 25 0 26 -2 29 -13 18z"/>
<path d="M6785 4100 c-3 -5 -1 -10 4 -10 6 0 11 5 11 10 0 6 -2 10 -4 10 -3 0
-8 -4 -11 -10z"/>
<path d="M6480 3945 c0 -25 4 -35 13 -32 6 2 12 16 12 32 0 16 -6 30 -12 33
-9 2 -13 -8 -13 -33z"/>
<path d="M6655 3950 c-3 -5 -1 -10 4 -10 6 0 11 5 11 10 0 6 -2 10 -4 10 -3 0
-8 -4 -11 -10z"/>
<path d="M6890 3965 c0 -8 7 -15 15 -15 8 0 15 7 15 15 0 8 -7 15 -15 15 -8 0
-15 -7 -15 -15z"/>
<path d="M7210 3965 c0 -8 7 -15 15 -15 8 0 15 7 15 15 0 8 -7 15 -15 15 -8 0
-15 -7 -15 -15z"/>
<path d="M6560 3950 c0 -5 5 -10 11 -10 5 0 7 5 4 10 -3 6 -8 10 -11 10 -2 0
-4 -4 -4 -10z"/>
<path d="M6755 3950 c-3 -5 -1 -10 4 -10 6 0 11 5 11 10 0 6 -2 10 -4 10 -3 0
-8 -4 -11 -10z"/>
<path d="M3020 2685 c0 -15 4 -24 10 -20 6 3 10 12 10 20 0 8 -4 17 -10 20 -6
4 -10 -5 -10 -20z"/>
<path d="M3073 2703 c-21 -8 -15 -22 7 -16 11 3 20 9 20 14 0 10 -8 10 -27 2z"/>
<path d="M3080 2670 c0 -5 5 -10 10 -10 6 0 10 5 10 10 0 6 -4 10 -10 10 -5 0
-10 -4 -10 -10z"/>
<path d="M3410 2700 c0 -5 5 -10 11 -10 5 0 7 5 4 10 -3 6 -8 10 -11 10 -2 0
-4 -4 -4 -10z"/>
<path d="M3730 2695 c0 -29 3 -36 18 -33 11 2 17 13 17 33 0 20 -6 31 -17 33
-15 3 -18 -4 -18 -33z"/>
<path d="M2957 2703 c-11 -10 -8 -43 3 -43 6 0 10 11 10 25 0 26 -2 29 -13 18z"/>
<path d="M3185 2700 c-3 -5 -1 -10 4 -10 6 0 11 5 11 10 0 6 -2 10 -4 10 -3 0
-8 -4 -11 -10z"/>
<path d="M5420 2585 c0 -15 4 -24 10 -20 6 3 10 12 10 20 0 8 -4 17 -10 20 -6
4 -10 -5 -10 -20z"/>
<path d="M5473 2603 c-21 -8 -15 -22 7 -16 11 3 20 9 20 14 0 10 -8 10 -27 2z"/>
<path d="M5480 2570 c0 -5 5 -10 10 -10 6 0 10 5 10 10 0 6 -4 10 -10 10 -5 0
-10 -4 -10 -10z"/>
<path d="M5810 2600 c0 -5 5 -10 11 -10 5 0 7 5 4 10 -3 6 -8 10 -11 10 -2 0
-4 -4 -4 -10z"/>
<path d="M6130 2595 c0 -29 3 -36 18 -33 11 2 17 13 17 33 0 20 -6 31 -17 33
-15 3 -18 -4 -18 -33z"/>
<path d="M5357 2603 c-11 -10 -8 -43 3 -43 6 0 10 11 10 25 0 26 -2 29 -13 18z"/>
<path d="M5585 2600 c-3 -5 -1 -10 4 -10 6 0 11 5 11 10 0 6 -2 10 -4 10 -3 0
-8 -4 -11 -10z"/>
<path d="M2880 2545 c0 -25 4 -35 13 -32 6 2 12 16 12 32 0 16 -6 30 -12 33
-9 2 -13 -8 -13 -33z"/>
<path d="M3055 2550 c-3 -5 -1 -10 4 -10 6 0 11 5 11 10 0 6 -2 10 -4 10 -3 0
-8 -4 -11 -10z"/>
<path d="M3290 2565 c0 -8 7 -15 15 -15 8 0 15 7 15 15 0 8 -7 15 -15 15 -8 0
-15 -7 -15 -15z"/>
<path d="M3610 2565 c0 -8 7 -15 15 -15 8 0 15 7 15 15 0 8 -7 15 -15 15 -8 0
-15 -7 -15 -15z"/>
<path d="M2960 2550 c0 -5 5 -10 11 -10 5 0 7 5 4 10 -3 6 -8 10 -11 10 -2 0
-4 -4 -4 -10z"/>
<path d="M3155 2550 c-3 -5 -1 -10 4 -10 6 0 11 5 11 10 0 6 -2 10 -4 10 -3 0
-8 -4 -11 -10z"/>
<path d="M5280 2445 c0 -25 4 -35 13 -32 6 2 12 16 12 32 0 16 -6 30 -12 33
-9 2 -13 -8 -13 -33z"/>
<path d="M5455 2450 c-3 -5 -1 -10 4 -10 6 0 11 5 11 10 0 6 -2 10 -4 10 -3 0
-8 -4 -11 -10z"/>
<path d="M5690 2465 c0 -8 7 -15 15 -15 8 0 15 7 15 15 0 8 -7 15 -15 15 -8 0
-15 -7 -15 -15z"/>
<path d="M6010 2465 c0 -8 7 -15 15 -15 8 0 15 7 15 15 0 8 -7 15 -15 15 -8 0
-15 -7 -15 -15z"/>
<path d="M5360 2450 c0 -5 5 -10 11 -10 5 0 7 5 4 10 -3 6 -8 10 -11 10 -2 0
-4 -4 -4 -10z"/>
<path d="M5555 2450 c-3 -5 -1 -10 4 -10 6 0 11 5 11 10 0 6 -2 10 -4 10 -3 0
-8 -4 -11 -10z"/>
<path d="M3610 8465 l0 -145 1095 0 1095 0 0 145 0 145 -1095 0 -1095 0 0
-145z m921 35 l59 0 0 -36 c0 -33 -2 -35 -27 -32 -35 4 -41 31 -11 45 22 11
21 11 -7 9 -24 -3 -31 -8 -33 -30 -3 -21 -8 -26 -32 -26 -24 0 -28 4 -32 35
-4 33 12 69 20 45 2 -5 30 -10 63 -10z m251 11 c-8 -4 -13 -11 -13 -15 5 -37
-1 -66 -14 -66 -8 0 -15 6 -15 13 0 9 -2 9 -8 0 -4 -6 -26 -12 -50 -11 -40 0
-42 2 -44 32 l-1 31 -4 -32 c-6 -46 -33 -44 -33 2 0 32 2 35 30 35 17 0 30 -5
30 -12 0 -9 3 -9 12 0 15 15 45 15 54 0 5 -8 1 -9 -12 -5 -18 7 -18 6 1 -8 18
-15 20 -14 23 2 6 36 12 43 34 43 17 0 19 -3 10 -9z m57 -28 c10 -17 10 -17
11 0 0 13 9 17 44 17 25 0 48 -5 52 -12 5 -8 1 -9 -12 -5 -16 5 -15 4 3 -9 12
-9 19 -22 16 -30 -6 -17 -49 -19 -59 -2 -5 8 0 9 15 5 l23 -6 -24 23 c-27 26
-38 24 -38 -10 0 -13 -4 -24 -10 -24 -5 0 -10 7 -10 15 0 9 -10 15 -26 15 -14
0 -23 -4 -19 -10 3 -5 13 -6 23 -3 13 5 14 3 6 -6 -27 -29 -65 6 -50 45 8 20
43 18 55 -3z"/>
<path d="M4470 8465 c0 -14 5 -25 10 -25 6 0 10 11 10 25 0 14 -4 25 -10 25
-5 0 -10 -11 -10 -25z"/>
<path d="M4555 8460 c-3 -5 -1 -10 4 -10 6 0 11 5 11 10 0 6 -2 10 -4 10 -3 0
-8 -4 -11 -10z"/>
<path d="M4670 8462 c0 -6 9 -12 20 -15 11 -3 20 -3 20 -1 0 2 -9 8 -20 14
-11 6 -20 7 -20 2z"/>
<path d="M4805 8480 c-3 -5 -1 -10 4 -10 6 0 11 5 11 10 0 6 -2 10 -4 10 -3 0
-8 -4 -11 -10z"/>
<path d="M3610 7565 l0 -745 295 0 295 0 0 745 0 745 -295 0 -295 0 0 -745z
m233 648 c-27 -5 -31 -32 -5 -34 16 -1 16 -2 0 -6 -10 -2 -18 -13 -18 -24 0
-10 -4 -19 -10 -19 -5 0 -10 20 -10 45 0 44 0 45 33 44 23 -1 26 -3 10 -6z
m47 -10 c0 -15 1 -15 18 0 10 10 24 17 31 17 7 0 3 -9 -10 -19 l-24 -19 24
-26 c19 -20 21 -26 9 -26 -9 0 -23 10 -31 23 l-16 22 0 -22 c-1 -44 -21 -23
-21 22 0 25 5 45 10 45 6 0 10 -7 10 -17z m100 -28 c0 -25 -4 -45 -10 -45 -5
0 -10 14 -10 30 0 17 -5 30 -11 30 -8 0 -8 5 1 15 21 26 30 17 30 -30z m-147
-262 c-27 -5 -31 -32 -5 -34 16 -1 16 -2 0 -6 -10 -2 -18 -13 -18 -24 0 -10
-4 -19 -10 -19 -5 0 -10 20 -10 45 0 44 0 45 33 44 23 -1 26 -3 10 -6z m47
-10 c0 -15 1 -15 18 0 10 10 35 17 54 17 45 0 57 -24 27 -56 l-21 -22 24 -5
c12 -2 2 -5 -23 -6 -38 -1 -50 3 -62 22 l-16 22 0 -22 c-1 -44 -21 -23 -21 22
0 25 5 45 10 45 6 0 10 -7 10 -17z"/>
<path d="M3919 7894 c-9 -11 -8 -19 7 -35 l19 -21 22 27 c13 14 21 30 18 34
-8 14 -54 10 -66 -5z"/>
<path d="M4210 7565 l0 -745 795 0 795 0 0 745 0 745 -795 0 -795 0 0 -745z
m841 648 c5 -50 2 -82 -6 -80 -14 5 -19 87 -6 87 6 0 11 -3 12 -7z m169 -39
c0 -44 -1 -45 -27 -42 -22 2 -29 9 -31 31 -3 22 1 30 17 34 12 3 21 9 21 14 0
5 5 9 10 9 6 0 10 -21 10 -46z m-882 14 c9 -9 12 -9 12 0 0 7 13 12 30 12 17
0 30 -5 30 -12 0 -9 3 -9 12 0 7 7 27 12 45 12 31 0 33 -2 33 -35 0 -24 -5
-35 -15 -35 -8 0 -15 -4 -15 -10 0 -5 -12 -10 -27 -9 -21 0 -24 2 -11 7 17 7
16 8 -2 20 -12 7 -20 8 -20 2 0 -5 -4 -10 -10 -10 -5 0 -10 14 -10 31 0 17 -4
28 -10 24 -5 -3 -10 -17 -10 -31 0 -13 -4 -24 -10 -24 -5 0 -10 5 -10 12 0 9
-3 9 -12 0 -29 -29 -66 -2 -53 39 7 21 35 25 53 7z m232 -23 c0 -19 -4 -35
-10 -35 -5 0 -10 14 -10 31 0 17 -4 28 -10 24 -5 -3 -10 -17 -10 -31 0 -13 -4
-24 -10 -24 -5 0 -10 16 -10 35 0 32 2 35 30 35 28 0 30 -3 30 -35z m130 -1
c0 -32 -2 -35 -27 -32 -33 4 -43 27 -14 35 12 3 21 9 21 13 0 5 -10 6 -22 2
-14 -3 -19 -2 -14 6 4 7 18 12 32 12 21 0 24 -5 24 -36z m66 24 c5 -8 2 -9 -9
-5 -19 7 -31 -8 -23 -28 8 -21 33 -8 40 20 5 20 12 23 53 23 27 0 54 -5 61
-11 8 -6 12 -6 12 2 0 26 19 8 23 -21 l3 -33 8 33 c8 29 12 32 47 32 38 0 39
-1 39 -35 0 -44 -17 -46 -23 -2 l-3 32 -8 -32 c-8 -30 -12 -33 -47 -33 -22 0
-39 5 -39 11 0 8 -4 8 -12 2 -16 -13 -166 -14 -174 -1 -3 5 -3 20 0 34 7 25
39 33 52 12z m384 -23 c0 -19 -4 -35 -10 -35 -5 0 -10 16 -10 35 0 19 5 35 10
35 6 0 10 -16 10 -35z m-517 -52 c-13 -2 -33 -2 -45 0 -13 2 -3 4 22 4 25 0
35 -2 23 -4z m480 0 c-13 -2 -33 -2 -45 0 -13 2 -3 4 22 4 25 0 35 -2 23 -4z
m-803 -202 c0 -6 15 -11 33 -13 27 -2 33 -8 35 -31 2 -19 -2 -29 -15 -34 -10
-4 -22 -11 -26 -17 -6 -8 -10 -7 -14 2 -2 6 -11 12 -18 12 -12 0 -25 56 -17
79 4 13 22 15 22 2z m551 2 c5 -55 2 -83 -8 -83 -8 0 -14 14 -15 33 l-1 32 -4
-32 c-5 -42 -23 -43 -23 -2 0 17 -4 28 -10 24 -5 -3 -10 -17 -10 -31 0 -13 -4
-24 -10 -24 -5 0 -10 16 -10 35 0 33 2 35 35 35 19 0 35 5 35 10 0 11 20 14
21 3z m159 -38 c0 -41 -2 -45 -25 -45 -14 0 -25 6 -26 13 0 10 -2 10 -6 0 -10
-25 -23 -12 -23 22 0 32 19 52 21 23 0 -10 2 -10 6 0 2 6 11 12 19 12 8 0 14
5 14 10 0 6 5 10 10 10 6 0 10 -20 10 -45z m-510 -11 c0 -32 -2 -35 -27 -32
-33 4 -43 27 -14 35 12 3 21 10 21 15 0 5 -10 6 -21 3 -15 -5 -19 -4 -15 4 4
6 18 11 32 11 21 0 24 -5 24 -36z m60 25 c0 -6 -7 -9 -15 -5 -11 4 -15 -1 -15
-18 0 -19 4 -23 19 -19 11 3 21 15 23 27 3 22 48 37 48 16 0 -7 -7 -10 -15 -6
-11 4 -15 -1 -15 -18 0 -19 4 -23 19 -19 11 3 21 15 23 27 2 17 10 21 41 23
33 1 37 -2 37 -22 0 -13 5 -27 10 -30 6 -4 10 7 10 24 0 17 5 31 10 31 6 0 10
-15 10 -34 l0 -34 -117 2 c-105 1 -118 3 -121 19 -2 10 -1 25 2 33 6 16 46 19
46 3z m-137 -76 c-13 -2 -33 -2 -45 0 -13 2 -3 4 22 4 25 0 35 -2 23 -4z m490
0 c-13 -2 -33 -2 -45 0 -13 2 -3 4 22 4 25 0 35 -2 23 -4z m-252 -200 c5 -50
2 -82 -6 -80 -14 5 -19 87 -6 87 6 0 11 -3 12 -7z m-331 -49 c0 -32 -2 -35
-27 -32 -33 4 -43 27 -14 35 12 3 21 9 21 13 0 5 -10 6 -22 2 -14 -3 -19 -2
-14 6 4 7 18 12 32 12 21 0 24 -5 24 -36z m100 1 c0 -44 -19 -46 -22 -2 l-1
32 -4 -32 c-5 -42 -23 -43 -23 -2 0 17 -4 28 -10 24 -5 -3 -10 -17 -10 -31 0
-13 -4 -24 -10 -24 -5 0 -10 16 -10 35 0 35 0 35 45 35 45 0 45 0 45 -35z m68
23 c9 -9 12 -9 12 0 0 27 19 10 23 -20 l3 -33 8 33 c8 29 12 32 47 32 38 0 39
-1 39 -35 0 -44 -17 -46 -23 -2 l-3 32 -8 -32 c-8 -30 -12 -33 -47 -33 -22 0
-39 5 -39 10 0 6 -7 6 -19 -1 -25 -17 -51 -4 -51 24 0 13 3 27 7 30 10 11 38
8 51 -5z m-168 -313 c0 -41 -2 -45 -24 -45 -13 0 -27 7 -30 16 -9 23 2 54 20
54 8 0 14 5 14 10 0 6 5 10 10 10 6 0 10 -20 10 -45z m350 35 c0 -5 7 -10 15
-10 10 0 15 -11 15 -35 0 -28 -4 -35 -19 -35 -11 0 -23 4 -26 10 -6 10 -44 -6
-57 -24 -10 -15 -38 20 -38 48 0 14 -4 26 -10 26 -5 0 -10 -13 -10 -29 0 -27
-2 -29 -37 -28 -35 2 -38 4 -38 32 l0 30 84 3 c61 2 87 -1 92 -10 6 -9 9 -6 9
10 0 12 5 22 10 22 6 0 10 -4 10 -10z m-282 -22 c9 -9 12 -9 12 0 0 15 37 16
46 0 5 -8 2 -9 -9 -5 -22 8 -22 -2 0 -18 27 -20 6 -34 -50 -32 -41 2 -52 6
-55 20 -8 41 27 64 56 35z m380 0 c9 -9 12 -9 12 1 0 8 10 11 28 9 22 -2 28
-8 30 -35 2 -19 -1 -33 -7 -33 -6 0 -11 11 -11 24 0 14 -4 28 -10 31 -6 4 -10
-7 -10 -24 0 -17 -4 -31 -10 -31 -5 0 -10 5 -10 10 0 6 -7 6 -19 -1 -25 -17
-51 -4 -51 24 0 13 3 27 7 30 10 11 38 8 51 -5z m-448 -313 c0 -41 -2 -45 -24
-45 -13 0 -27 7 -30 16 -9 23 2 54 20 54 8 0 14 5 14 10 0 6 5 10 10 10 6 0
10 -20 10 -45z m101 38 c5 -55 2 -83 -8 -83 -8 0 -14 14 -15 33 l-1 32 -4 -33
c-4 -29 -8 -33 -30 -30 -33 4 -42 27 -14 35 12 3 21 10 21 15 0 5 -10 6 -21 3
-15 -5 -19 -4 -15 4 4 6 20 11 37 11 16 0 29 5 29 10 0 11 20 14 21 3z m67
-35 c2 -13 -3 -18 -18 -18 -12 0 -19 -4 -15 -10 3 -5 13 -6 23 -3 13 5 14 3 6
-6 -27 -29 -65 6 -50 45 8 21 50 14 54 -8z"/>
<path d="M5180 8165 c0 -15 4 -24 10 -20 6 3 10 12 10 20 0 8 -4 17 -10 20 -6
4 -10 -5 -10 -20z"/>
<path d="M4304 8177 c-4 -10 -2 -23 3 -28 14 -14 24 13 13 32 -7 11 -10 10
-16 -4z"/>
<path d="M4440 8165 c0 -15 4 -24 10 -20 6 3 10 12 10 20 0 8 -4 17 -10 20 -6
4 -10 -5 -10 -20z"/>
<path d="M4660 8150 c0 -5 5 -10 10 -10 6 0 10 5 10 10 0 6 -4 10 -10 10 -5 0
-10 -4 -10 -10z"/>
<path d="M4794 8175 c-3 -8 -3 -19 0 -24 9 -13 36 -2 36 14 0 19 -30 27 -36
10z"/>
<path d="M4853 8174 c-3 -8 -1 -20 6 -27 8 -8 11 -4 11 16 0 30 -7 35 -17 11z"/>
<path d="M4312 7865 c0 -16 2 -22 5 -12 2 9 2 23 0 30 -3 6 -5 -1 -5 -18z"/>
<path d="M4340 7865 c0 -15 4 -24 10 -20 6 3 10 12 10 20 0 8 -4 17 -10 20 -6
4 -10 -5 -10 -20z"/>
<path d="M4983 7874 c-3 -8 -1 -20 6 -27 8 -8 11 -4 11 16 0 30 -7 35 -17 11z"/>
<path d="M4470 7850 c0 -5 5 -10 10 -10 6 0 10 5 10 10 0 6 -4 10 -10 10 -5 0
-10 -4 -10 -10z"/>
<path d="M4660 7865 c0 -15 4 -24 10 -20 6 3 10 12 10 20 0 8 -4 17 -10 20 -6
4 -10 -5 -10 -20z"/>
<path d="M4300 7550 c0 -5 5 -10 10 -10 6 0 10 5 10 10 0 6 -4 10 -10 10 -5 0
-10 -4 -10 -10z"/>
<path d="M4473 7574 c-3 -8 -1 -20 6 -27 8 -8 11 -4 11 16 0 30 -7 35 -17 11z"/>
<path d="M4303 7274 c-3 -8 -1 -20 6 -27 8 -8 11 -4 11 16 0 30 -7 35 -17 11z"/>
<path d="M4500 7265 c0 -18 4 -22 20 -18 11 3 20 11 20 18 0 7 -9 15 -20 18
-16 4 -20 0 -20 -18z"/>
<path d="M4627 7277 c-3 -7 -2 -19 3 -26 5 -9 9 -8 14 5 4 9 3 21 -2 26 -6 6
-12 4 -15 -5z"/>
<path d="M4692 7265 c0 -16 2 -22 5 -12 2 9 2 23 0 30 -3 6 -5 -1 -5 -18z"/>
<path d="M4375 7280 c-3 -5 -1 -10 4 -10 6 0 11 5 11 10 0 6 -2 10 -4 10 -3 0
-8 -4 -11 -10z"/>
<path d="M4390 7259 c-29 -8 -27 -9 23 -13 20 -2 37 0 37 4 0 12 -33 17 -60 9z"/>
<path d="M4753 7274 c-3 -8 -1 -20 6 -27 8 -8 11 -4 11 16 0 30 -7 35 -17 11z"/>
<path d="M4303 6974 c-3 -8 -1 -20 6 -27 8 -8 11 -4 11 16 0 30 -7 35 -17 11z"/>
<path d="M4370 6950 c0 -5 5 -10 10 -10 6 0 10 5 10 10 0 6 -4 10 -10 10 -5 0
-10 -4 -10 -10z"/>
<path d="M4475 6980 c-3 -5 -1 -10 4 -10 6 0 11 5 11 10 0 6 -2 10 -4 10 -3 0
-8 -4 -11 -10z"/>
<path d="M3570 8180 c-12 -8 -11 -10 8 -10 12 0 22 5 22 10 0 13 -11 13 -30 0z"/>
<path d="M3570 8150 c19 -13 30 -13 30 0 0 6 -10 10 -22 10 -19 0 -20 -2 -8
-10z"/>
<path d="M5810 7880 c0 -5 10 -10 23 -10 18 0 19 2 7 10 -19 13 -30 13 -30 0z"/>
<path d="M5810 7850 c0 -13 11 -13 30 0 12 8 11 10 -7 10 -13 0 -23 -4 -23
-10z"/>
<path d="M8510 6365 l0 -145 795 0 795 0 0 145 0 145 -795 0 -795 0 0 -145z
m380 35 c0 -5 7 -10 16 -10 9 0 23 -8 30 -17 10 -15 15 -16 26 -5 11 11 10 12
-7 6 -16 -5 -17 -4 -9 5 21 23 49 9 52 -27 3 -30 1 -32 -27 -32 -18 0 -31 5
-31 12 0 9 -3 9 -12 0 -7 -7 -22 -12 -35 -12 -21 0 -23 5 -23 45 0 25 5 45 10
45 6 0 10 -4 10 -10z m220 0 c0 -5 7 -10 15 -10 8 0 12 -6 9 -14 -3 -8 -1 -23
5 -34 10 -18 7 -20 -24 -20 -35 0 -35 0 -35 44 0 32 4 44 15 44 8 0 15 -4 15
-10z m551 -2 c1 -7 0 -24 0 -38 -2 -21 3 -25 23 -25 l26 0 -21 16 c-12 9 -19
21 -15 28 9 14 43 14 52 -1 5 -8 1 -9 -12 -5 -16 6 -15 4 3 -10 31 -25 16 -42
-34 -41 -39 0 -41 2 -45 33 -2 18 -2 38 0 44 5 15 22 14 23 -1z m-593 -45 c2
-19 -1 -33 -7 -33 -6 0 -11 11 -11 25 0 14 -4 25 -10 25 -5 0 -10 -11 -10 -25
0 -14 -4 -25 -10 -25 -5 0 -10 16 -10 36 0 33 2 35 28 32 22 -2 28 -8 30 -35z
m202 1 c0 -33 -2 -35 -27 -32 -35 4 -41 31 -11 46 l23 12 -24 -6 c-16 -4 -21
-3 -17 5 4 6 18 11 32 11 21 0 24 -5 24 -36z m70 25 c0 -6 -7 -9 -15 -6 -18 7
-27 -6 -19 -26 3 -9 12 -13 20 -10 8 3 14 0 14 -7 0 -6 -11 -10 -27 -8 -28 3
-40 25 -29 54 6 16 56 19 56 3z m65 1 c4 -6 13 -5 24 2 26 16 51 3 51 -27 0
-30 -25 -43 -51 -27 -11 7 -20 8 -24 2 -10 -16 -43 -11 -54 7 -12 23 4 53 29
53 10 0 22 -4 25 -10z m105 -21 c0 -17 4 -28 10 -24 6 3 10 17 10 31 0 13 5
24 10 24 6 0 10 -16 10 -35 0 -32 -2 -35 -30 -35 -28 0 -30 3 -30 35 0 19 5
35 10 35 6 0 10 -14 10 -31z m114 15 c11 -28 6 -54 -9 -54 -10 0 -16 11 -17
33 l-1 32 -4 -32 c-6 -46 -33 -44 -33 2 0 32 3 35 29 35 17 0 31 -6 35 -16z
m-421 -71 c-13 -2 -33 -2 -45 0 -13 2 -3 4 22 4 25 0 35 -2 23 -4z"/>
<path d="M8893 6364 c-3 -8 -1 -20 6 -27 8 -8 11 -4 11 16 0 30 -7 35 -17 11z"/>
<path d="M8967 6353 c-4 -3 -7 -11 -7 -17 0 -6 5 -5 12 2 6 6 9 14 7 17 -3 3
-9 2 -12 -2z"/>
<path d="M9235 6350 c-3 -5 -1 -10 4 -10 6 0 11 5 11 10 0 6 -2 10 -4 10 -3 0
-8 -4 -11 -10z"/>
<path d="M9370 6355 c0 -18 4 -22 20 -18 11 3 20 11 20 18 0 7 -9 15 -20 18
-16 4 -20 0 -20 -18z"/>
<path d="M9440 6355 c0 -15 4 -24 10 -20 6 3 10 12 10 20 0 8 -4 17 -10 20 -6
4 -10 -5 -10 -20z"/>
<path d="M8510 6015 l0 -195 245 0 245 0 0 195 0 195 -245 0 -245 0 0 -195z
m115 15 c0 -18 -6 -26 -22 -28 -13 -2 -23 -10 -23 -18 0 -8 -4 -14 -10 -14 -5
0 -10 21 -10 46 0 45 0 45 33 42 27 -2 32 -7 32 -28z m35 13 c0 -15 1 -15 18
0 25 23 53 23 30 1 -23 -23 -5 -64 24 -56 15 4 19 1 17 -13 -2 -10 -10 -20
-18 -23 -8 -3 -11 0 -7 7 4 7 0 11 -12 11 -11 0 -22 7 -26 15 -3 8 -10 15 -16
15 -5 0 -10 -7 -10 -15 0 -8 -4 -15 -10 -15 -5 0 -10 20 -10 45 0 25 5 45 10
45 6 0 10 -7 10 -17z m183 10 c-27 -5 -31 -32 -5 -34 16 -1 16 -2 0 -6 -10 -2
-18 -13 -18 -24 0 -10 -7 -19 -15 -19 -11 0 -15 12 -15 45 l0 45 38 -1 c23 -1
28 -3 15 -6z m47 -10 c1 -17 1 -17 11 0 5 9 17 17 24 17 18 0 19 -12 4 -27 -8
-8 -6 -18 6 -37 16 -24 16 -26 1 -26 -9 0 -19 7 -22 15 -4 8 -10 15 -15 15 -5
0 -9 -7 -9 -15 0 -8 -4 -15 -10 -15 -5 0 -10 20 -10 45 0 25 5 45 10 45 6 0
10 -8 10 -17z"/>
<path d="M8580 6030 c0 -13 5 -20 13 -17 6 2 12 10 12 17 0 7 -6 15 -12 18 -8
2 -13 -5 -13 -18z"/>
<path d="M9010 6015 l0 -195 545 0 545 0 0 195 0 195 -545 0 -545 0 0 -195z
m97 39 c-3 -3 -12 -4 -19 -1 -8 3 -5 6 6 6 11 1 17 -2 13 -5z m73 -39 c0 -40
-2 -45 -23 -45 -13 0 -28 5 -35 12 -9 9 -12 9 -12 0 0 -7 -7 -12 -15 -12 -10
0 -15 11 -15 35 0 24 5 35 15 35 8 0 15 -6 16 -12 0 -10 2 -10 6 0 2 6 13 12
24 12 10 0 19 5 19 10 0 6 5 10 10 10 6 0 10 -20 10 -45z m10 -65 c0 -5 -25
-10 -55 -10 -30 0 -55 5 -55 10 0 6 25 10 55 10 30 0 55 -4 55 -10z"/>
<path d="M9140 6005 c0 -15 4 -24 10 -20 6 3 10 12 10 20 0 8 -4 17 -10 20 -6
4 -10 -5 -10 -20z"/>
<path d="M8470 6030 c-12 -8 -11 -10 8 -10 12 0 22 5 22 10 0 13 -11 13 -30 0z"/>
<path d="M7010 5635 l0 -375 -709 0 -710 0 -4 -22 -4 -23 -2 23 c0 12 -7 22
-15 22 -8 0 -17 -10 -19 -22 l-4 -23 -2 23 c0 12 -8 22 -16 22 -12 0 -15 -14
-15 -65 0 -61 13 -87 23 -47 4 16 5 16 6 0 0 -10 7 -18 15 -18 8 0 17 8 19 18
4 16 5 16 6 0 1 -16 13 -18 105 -18 l104 0 1159 -480 c1156 -479 1160 -480
1230 -480 51 0 74 4 83 15 16 19 34 19 50 0 10 -13 17 -12 51 5 l39 20 0 205
0 205 805 0 805 0 0 -355 0 -355 39 -20 c34 -17 41 -18 51 -5 16 19 34 19 50
0 10 -12 38 -15 131 -15 l119 0 0 1070 0 1070 -104 0 c-101 0 -105 -1 -109
-22 l-4 -23 -2 23 c0 12 -7 22 -15 22 -8 0 -17 -10 -19 -22 l-4 -23 -2 23 c0
12 -8 22 -16 22 -13 0 -15 -40 -15 -300 l0 -300 -805 0 -805 0 0 280 0 279
-30 16 c-36 19 -38 19 -43 -2 -4 -14 -5 -12 -6 5 l-1 22 -705 0 -705 0 0 -375z"/>
<path d="M8470 6000 c19 -13 30 -13 30 0 0 6 -10 10 -22 10 -19 0 -20 -2 -8
-10z"/>
<path d="M10 5665 l0 -145 695 0 695 0 0 145 0 145 -695 0 -695 0 0 -145z
m562 -7 l1 -33 4 33 c6 45 33 43 33 -3 0 -32 -3 -35 -29 -35 -29 0 -41 14 -41
51 0 34 30 22 32 -13z m98 21 c0 -6 -8 -8 -17 -5 -15 5 -14 3 2 -9 18 -14 20
-14 27 5 9 25 43 26 57 3 10 -17 10 -17 11 0 0 14 9 17 50 17 30 0 50 -4 50
-11 0 -6 -8 -8 -17 -5 -12 4 -9 -1 6 -12 13 -11 21 -24 17 -31 -9 -14 -56 -15
-56 0 0 6 7 9 15 5 8 -3 15 -1 15 4 0 6 -7 10 -15 10 -8 0 -15 7 -15 15 0 8
-4 15 -10 15 -5 0 -10 -13 -10 -30 0 -20 -5 -30 -15 -30 -8 0 -15 7 -15 15 0
8 -9 15 -20 15 -11 0 -20 -4 -20 -10 0 -5 7 -6 17 -3 10 4 14 2 10 -4 -9 -14
-117 -15 -117 -1 0 6 7 8 15 4 8 -3 15 -1 15 4 0 6 -7 10 -15 10 -8 0 -15 9
-15 20 0 15 7 20 25 20 14 0 25 -5 25 -11z"/>
<path d="M3910 5665 l0 -145 795 0 795 0 0 145 0 145 -795 0 -795 0 0 -145z
m981 33 c1 -7 0 -24 0 -38 -2 -21 3 -25 23 -25 l26 0 -21 16 c-24 18 -18 39
11 39 21 0 38 -20 18 -21 -10 0 -10 -2 0 -6 6 -2 12 -13 12 -24 0 -17 -6 -19
-47 -17 -44 3 -48 5 -51 31 -2 16 -1 35 2 43 7 17 26 19 27 2z m-394 -24 c5
-15 7 -15 15 0 10 19 44 21 54 4 5 -8 0 -9 -14 -6 -18 5 -22 2 -22 -17 0 -19
4 -22 22 -17 14 3 19 2 14 -6 -11 -18 -44 -14 -55 6 -10 16 -10 16 -11 0 0
-13 -8 -18 -30 -18 -35 0 -41 24 -12 46 16 13 16 14 -2 7 -13 -4 -17 -3 -12 5
11 17 46 15 53 -4z m133 5 c0 -6 -7 -9 -15 -5 -11 4 -15 -1 -15 -18 0 -19 4
-23 19 -19 11 3 21 15 23 27 3 18 10 21 51 23 46 2 47 1 49 -30 l1 -32 4 33
c6 45 33 43 33 -3 0 -32 -2 -35 -30 -35 -16 0 -30 5 -30 11 0 8 -4 8 -12 1 -7
-5 -39 -10 -70 -10 -60 0 -75 11 -63 49 7 21 55 27 55 8z m218 -26 c2 -19 -1
-33 -7 -33 -6 0 -11 11 -11 25 0 14 -4 25 -10 25 -5 0 -10 -11 -10 -25 0 -14
-4 -25 -10 -25 -5 0 -10 16 -10 36 0 33 2 35 28 32 22 -2 28 -8 30 -35z"/>
<path d="M4467 5653 c-4 -3 -7 -11 -7 -17 0 -6 5 -5 12 2 6 6 9 14 7 17 -3 3
-9 2 -12 -2z"/>
<path d="M4667 5667 c-3 -7 -1 -20 3 -28 7 -11 10 -10 16 4 4 10 2 23 -3 28
-7 7 -12 6 -16 -4z"/>
<path d="M8510 5615 l0 -195 795 0 795 0 0 195 0 195 -545 0 -544 0 -4 -152
-3 -153 -2 153 -2 152 -245 0 -245 0 0 -195z m180 54 c0 -52 24 -48 28 4 2 20
8 37 13 37 6 0 9 -19 7 -42 -3 -40 -5 -43 -33 -43 -28 0 -30 3 -33 43 -2 25 1
42 7 42 6 0 11 -18 11 -41z m139 27 c6 -7 10 -28 9 -45 -2 -27 -6 -31 -33 -31
-36 0 -55 15 -55 45 0 41 53 62 79 31z m511 7 c0 -5 11 -13 25 -20 14 -6 25
-7 25 -2 0 16 39 9 49 -8 10 -17 10 -17 11 0 0 11 8 17 22 17 17 0 19 -3 10
-12 -7 -7 -12 -22 -12 -35 0 -13 -4 -23 -10 -23 -5 0 -10 7 -10 15 0 9 -10 15
-26 15 -14 0 -23 -4 -19 -10 3 -5 12 -7 20 -3 8 3 15 0 15 -6 0 -6 -11 -11
-25 -11 -14 0 -25 5 -25 12 0 9 -3 9 -12 0 -7 -7 -22 -12 -35 -12 -21 0 -23 5
-23 45 0 25 5 45 10 45 6 0 10 -3 10 -7z m-200 -48 c0 -44 -17 -46 -23 -2 l-3
32 -8 -32 c-11 -43 -26 -42 -26 2 0 32 2 35 30 35 28 0 30 -3 30 -35z m30 11
c0 -14 5 -28 10 -31 6 -4 10 7 10 24 0 17 5 31 10 31 6 0 10 -16 10 -36 0 -33
-2 -35 -27 -32 -23 2 -29 8 -31 36 -2 18 1 32 7 32 6 0 11 -11 11 -24z m138
-13 c2 -19 -1 -33 -7 -33 -6 0 -11 14 -11 31 0 17 -4 28 -10 24 -5 -3 -10 -17
-10 -31 0 -36 -20 -29 -22 9 l-1 32 -4 -32 c-6 -44 -23 -42 -23 3 l0 35 43 -3
c39 -3 42 -5 45 -35z"/>
<path d="M8775 5681 c-6 -21 3 -51 17 -51 5 0 6 5 3 10 -3 6 1 10 9 10 17 0
20 9 10 34 -8 22 -31 20 -39 -3z"/>
<path d="M9340 5655 c0 -15 4 -24 10 -20 6 3 10 12 10 20 0 8 -4 17 -10 20 -6
4 -10 -5 -10 -20z"/>
<path d="M9405 5670 c-3 -5 -1 -10 4 -10 6 0 11 5 11 10 0 6 -2 10 -4 10 -3 0
-8 -4 -11 -10z"/>
<path d="M10 5365 l0 -145 145 0 145 0 0 145 0 145 -145 0 -145 0 0 -145z
m131 33 c0 -10 2 -10 6 0 6 15 33 16 33 0 0 -9 3 -9 12 0 7 7 18 12 25 12 10
0 11 -4 1 -19 -9 -15 -8 -24 5 -45 20 -30 4 -36 -25 -9 -17 15 -18 15 -18 0 0
-30 -30 -19 -31 11 0 15 -3 21 -6 15 -2 -7 -13 -13 -24 -13 -10 0 -19 -7 -19
-15 0 -8 -7 -15 -15 -15 -11 0 -15 12 -15 45 0 45 0 45 35 45 21 0 35 -5 36
-12z"/>
<path d="M100 5380 c0 -11 5 -20 10 -20 6 0 10 9 10 20 0 11 -4 20 -10 20 -5
0 -10 -9 -10 -20z"/>
<path d="M310 5365 l0 -145 545 0 545 0 0 145 0 145 -545 0 -545 0 0 -145z
m97 39 c-3 -3 -12 -4 -19 -1 -8 3 -5 6 6 6 11 1 17 -2 13 -5z m73 -39 c0 -40
-2 -45 -23 -45 -13 0 -28 5 -35 12 -9 9 -12 9 -12 0 0 -7 -7 -12 -15 -12 -10
0 -15 11 -15 35 0 24 5 35 15 35 8 0 15 -6 16 -12 0 -10 2 -10 6 0 2 6 13 12
24 12 10 0 19 5 19 10 0 6 5 10 10 10 6 0 10 -20 10 -45z m10 -65 c0 -5 -25
-10 -55 -10 -30 0 -55 5 -55 10 0 6 25 10 55 10 30 0 55 -4 55 -10z"/>
<path d="M440 5355 c0 -15 4 -24 10 -20 6 3 10 12 10 20 0 8 -4 17 -10 20 -6
4 -10 -5 -10 -20z"/>
<path d="M3910 5265 l0 -245 245 0 245 0 0 245 0 245 -245 0 -245 0 0 -245z
m231 33 c0 -10 2 -10 6 0 6 15 33 16 33 0 0 -9 3 -9 12 0 7 7 18 12 25 12 10
0 11 -4 1 -19 -9 -15 -8 -24 5 -45 20 -30 4 -36 -25 -9 -17 15 -18 15 -18 0 0
-30 -30 -19 -31 11 0 15 -3 21 -6 15 -2 -7 -13 -13 -24 -13 -10 0 -19 -7 -19
-15 0 -8 -7 -15 -15 -15 -11 0 -15 12 -15 45 0 45 0 45 35 45 21 0 35 -5 36
-12z"/>
<path d="M4100 5280 c0 -11 5 -20 10 -20 6 0 10 9 10 20 0 11 -4 20 -10 20 -5
0 -10 -9 -10 -20z"/>
<path d="M4410 5265 l0 -245 545 0 545 0 0 245 0 245 -545 0 -545 0 0 -245z
m97 39 c-3 -3 -12 -4 -19 -1 -8 3 -5 6 6 6 11 1 17 -2 13 -5z m73 -39 c0 -40
-2 -45 -23 -45 -13 0 -28 5 -35 12 -9 9 -12 9 -12 0 0 -7 -7 -12 -15 -12 -10
0 -15 11 -15 35 0 24 5 35 15 35 8 0 15 -6 16 -12 0 -10 2 -10 6 0 2 6 13 12
24 12 10 0 19 5 19 10 0 6 5 10 10 10 6 0 10 -20 10 -45z m10 -65 c0 -5 -25
-10 -55 -10 -30 0 -55 5 -55 10 0 6 25 10 55 10 30 0 55 -4 55 -10z"/>
<path d="M4540 5255 c0 -15 4 -24 10 -20 6 3 10 12 10 20 0 8 -4 17 -10 20 -6
4 -10 -5 -10 -20z"/>
<path d="M10 4715 l0 -495 695 0 695 0 0 495 0 495 -545 0 -545 0 -3 -452 -2
-453 -3 453 -2 452 -145 0 -145 0 0 -495z m430 340 c0 -44 -17 -46 -23 -2 l-3
32 -8 -32 c-11 -43 -26 -42 -26 2 0 32 2 35 30 35 28 0 30 -3 30 -35z m70 -1
c0 -32 -2 -35 -27 -32 -33 4 -43 27 -14 35 12 3 21 10 21 15 0 5 -10 6 -21 3
-15 -5 -19 -4 -15 4 4 6 18 11 32 11 21 0 24 -5 24 -36z m98 -1 c2 -19 -1 -33
-7 -33 -6 0 -11 14 -11 31 0 17 -4 28 -10 24 -5 -3 -10 -17 -10 -31 0 -36 -20
-29 -22 9 l-1 32 -4 -32 c-6 -44 -23 -42 -23 3 l0 35 43 -3 c39 -3 42 -5 45
-35z m70 15 c2 -13 -3 -18 -17 -18 -12 0 -21 -4 -21 -9 0 -5 10 -7 23 -4 17 5
19 3 11 -7 -27 -28 -65 7 -50 46 8 21 50 14 54 -8z m-588 -299 c0 -52 24 -48
28 4 2 20 8 37 13 37 6 0 9 -19 7 -42 -3 -40 -5 -43 -33 -43 -28 0 -30 3 -33
43 -2 25 1 42 7 42 6 0 11 -18 11 -41z m139 27 c6 -7 10 -28 9 -45 -2 -27 -6
-31 -33 -31 -36 0 -55 15 -55 45 0 41 53 62 79 31z m431 -31 c0 -38 -3 -45
-20 -45 -16 0 -20 7 -20 35 0 21 5 35 13 35 8 0 7 4 -3 10 -12 8 -11 10 8 10
20 0 22 -5 22 -45z m-221 8 c10 -17 10 -17 11 0 0 14 9 17 45 17 45 0 45 0 45
-35 0 -44 -19 -46 -22 -2 l-1 32 -4 -32 c-5 -42 -23 -43 -23 -2 0 17 -4 28
-10 24 -5 -3 -10 -17 -10 -31 0 -13 -4 -24 -10 -24 -5 0 -10 7 -10 15 0 9 -10
15 -26 15 -14 0 -23 -4 -19 -10 3 -5 12 -7 20 -3 8 3 15 0 15 -6 0 -17 -47
-13 -54 5 -17 43 31 75 53 37z m171 -19 c0 -32 -2 -35 -27 -32 -33 4 -43 27
-14 35 12 3 21 10 21 15 0 5 -10 6 -21 3 -15 -5 -19 -4 -15 4 4 6 18 11 32 11
21 0 24 -5 24 -36z m280 -289 c0 -41 -2 -45 -25 -45 -20 0 -27 6 -31 30 -7 34
-24 30 -24 -6 0 -13 -4 -24 -10 -24 -5 0 -10 5 -10 12 0 9 -3 9 -12 0 -19 -19
-46 -14 -54 10 l-7 23 -8 -23 c-10 -26 -29 -29 -30 -4 -1 16 -2 16 -6 -1 -6
-23 -27 -16 -31 10 -2 12 -12 23 -23 26 -23 6 -25 -2 -2 -18 9 -7 13 -16 10
-22 -8 -12 -165 -15 -172 -3 -6 9 -55 -11 -55 -22 0 -5 -4 -8 -10 -8 -5 0 -10
20 -10 45 0 43 1 45 29 45 20 0 32 -6 36 -19 4 -13 12 -17 25 -14 11 3 20 10
20 15 0 5 -10 6 -21 3 -15 -5 -19 -4 -15 4 4 6 18 11 32 11 19 0 24 -5 24 -24
0 -13 7 -27 16 -30 21 -8 24 -8 24 4 0 6 -7 10 -15 10 -8 0 -15 9 -15 20 0 22
34 28 46 8 5 -8 2 -9 -9 -5 -28 11 -19 -7 12 -26 33 -20 41 -21 41 -7 0 6 -7
10 -15 10 -8 0 -15 9 -15 20 0 16 6 19 35 18 19 -1 35 -6 35 -12 0 -6 5 -5 12
2 17 17 28 15 29 -5 1 -17 2 -17 6 0 5 20 23 23 24 5 0 -10 2 -10 6 0 6 15 35
16 51 0 9 -9 12 -9 12 0 0 7 15 11 37 10 20 -1 39 4 41 10 9 28 22 8 22 -33z"/>
<path d="M470 5040 c0 -5 5 -10 10 -10 6 0 10 5 10 10 0 6 -4 10 -10 10 -5 0
-10 -4 -10 -10z"/>
<path d="M640 5070 c0 -5 5 -10 11 -10 5 0 7 5 4 10 -3 6 -8 10 -11 10 -2 0
-4 -4 -4 -10z"/>
<path d="M175 4781 c-6 -21 3 -51 17 -51 5 0 6 5 3 10 -3 6 1 10 9 10 17 0 20
9 10 34 -8 22 -31 20 -39 -3z"/>
<path d="M405 4770 c-3 -5 -1 -10 4 -10 6 0 11 5 11 10 0 6 -2 10 -4 10 -3 0
-8 -4 -11 -10z"/>
<path d="M570 4740 c0 -5 5 -10 10 -10 6 0 10 5 10 10 0 6 -4 10 -10 10 -5 0
-10 -4 -10 -10z"/>
<path d="M407 4467 c-3 -7 -2 -19 3 -26 5 -9 9 -8 14 5 4 9 3 21 -2 26 -6 6
-12 4 -15 -5z"/>
<path d="M744 4467 c-4 -10 -2 -23 3 -28 14 -14 24 13 13 32 -7 11 -10 10 -16
-4z"/>
<path d="M853 4464 c-3 -8 -1 -20 6 -27 8 -8 11 -4 11 16 0 30 -7 35 -17 11z"/>
<path d="M470 4440 c0 -5 5 -10 10 -10 6 0 10 5 10 10 0 6 -4 10 -10 10 -5 0
-10 -4 -10 -10z"/>
<path d="M3910 4215 l0 -795 795 0 795 0 0 795 0 795 -545 0 -545 0 -3 -752
-2 -753 -3 753 -2 752 -245 0 -245 0 0 -795z m270 678 c1 -17 1 -17 11 0 5 9
17 17 26 17 14 0 14 -2 -2 -20 -17 -18 -17 -21 -1 -45 19 -29 11 -33 -16 -8
-17 15 -18 15 -18 0 0 -10 -7 -17 -15 -17 -11 0 -15 11 -15 40 0 36 -2 40 -25
40 -32 0 -34 -29 -2 -31 l22 -2 -22 -4 c-15 -3 -23 -12 -23 -24 0 -10 -4 -19
-10 -19 -5 0 -10 20 -10 45 l0 45 50 0 c41 0 50 -3 50 -17z m600 -29 c0 -44
-1 -45 -27 -42 -22 2 -29 9 -31 31 -4 37 -22 35 -22 -3 0 -16 -4 -30 -10 -30
-5 0 -10 7 -10 15 0 9 -10 15 -26 15 -14 0 -23 -4 -19 -10 3 -5 13 -6 22 -3
11 4 14 3 9 -5 -9 -15 -39 -15 -54 0 -9 9 -12 9 -12 0 0 -15 -36 -16 -46 -1
-4 8 0 9 15 4 11 -3 21 -2 21 3 0 5 -9 12 -21 15 -12 3 -19 12 -17 19 5 16 48
24 48 9 0 -6 -7 -8 -15 -5 -8 4 -15 2 -15 -4 0 -5 9 -12 19 -15 13 -3 21 1 24
14 6 24 43 25 56 2 10 -17 10 -17 11 -1 0 14 8 17 37 16 20 -1 39 4 41 10 9
28 22 8 22 -34z m160 1 c0 -41 -2 -45 -25 -45 -13 0 -29 8 -34 18 -10 16 -10
16 -11 0 0 -10 -4 -18 -10 -18 -5 0 -10 16 -10 35 0 19 5 35 10 35 6 0 10 -8
10 -17 1 -17 1 -17 11 0 5 9 17 17 24 17 8 0 15 5 15 10 0 6 5 10 10 10 6 0
10 -20 10 -45z m-440 1 c0 -14 5 -28 10 -31 6 -4 10 7 10 24 0 17 5 31 10 31
6 0 10 -16 10 -36 0 -33 -2 -35 -27 -32 -23 2 -29 8 -31 36 -2 18 1 32 7 32 6
0 11 -11 11 -24z m333 -63 c-13 -2 -33 -2 -45 0 -13 2 -3 4 22 4 25 0 35 -2
23 -4z m-293 -248 c0 -44 -17 -46 -23 -2 l-3 32 -8 -32 c-11 -43 -26 -42 -26
2 0 32 2 35 30 35 28 0 30 -3 30 -35z m70 -1 c0 -32 -2 -35 -27 -32 -33 4 -43
27 -14 35 12 3 21 10 21 15 0 5 -10 6 -21 3 -15 -5 -19 -4 -15 4 4 6 18 11 32
11 21 0 24 -5 24 -36z m98 -1 c2 -19 -1 -33 -7 -33 -6 0 -11 14 -11 31 0 17
-4 28 -10 24 -5 -3 -10 -17 -10 -31 0 -36 -20 -29 -22 9 l-1 32 -4 -32 c-6
-44 -23 -42 -23 3 l0 35 43 -3 c39 -3 42 -5 45 -35z m70 15 c2 -13 -3 -18 -17
-18 -12 0 -21 -4 -21 -9 0 -5 10 -7 23 -4 17 5 19 3 11 -7 -27 -28 -65 7 -50
46 8 21 50 14 54 -8z m-238 -303 c0 -41 -2 -45 -24 -45 -13 0 -27 7 -30 16 -9
23 2 54 20 54 8 0 14 5 14 10 0 6 5 10 10 10 6 0 10 -20 10 -45z m350 35 c0
-5 7 -10 15 -10 10 0 15 -11 15 -35 0 -28 -4 -35 -19 -35 -11 0 -23 4 -26 10
-6 10 -44 -6 -57 -24 -10 -15 -38 20 -38 48 0 14 -4 26 -10 26 -5 0 -10 -13
-10 -29 0 -27 -2 -29 -37 -28 -35 2 -38 4 -38 32 l0 30 84 3 c61 2 87 -1 92
-10 6 -9 9 -6 9 10 0 12 5 22 10 22 6 0 10 -4 10 -10z m-282 -22 c9 -9 12 -9
12 0 0 15 37 16 46 0 5 -8 2 -9 -9 -5 -22 8 -22 -2 0 -18 27 -20 6 -34 -50
-32 -41 2 -52 6 -55 20 -8 41 27 64 56 35z m380 0 c9 -9 12 -9 12 1 0 8 10 11
28 9 22 -2 28 -8 30 -35 2 -19 -1 -33 -7 -33 -6 0 -11 11 -11 24 0 14 -4 28
-10 31 -6 4 -10 -7 -10 -24 0 -17 -4 -31 -10 -31 -5 0 -10 5 -10 10 0 6 -7 6
-19 -1 -25 -17 -51 -4 -51 24 0 13 3 27 7 30 10 11 38 8 51 -5z m-488 -278 c0
-5 9 -10 19 -10 11 0 22 -9 26 -19 4 -13 12 -17 25 -14 11 3 20 10 20 15 0 5
-10 6 -21 3 -15 -5 -19 -4 -15 4 4 6 18 11 32 11 21 0 24 -5 24 -35 0 -30 -3
-35 -24 -35 -14 0 -28 5 -32 11 -4 8 -9 8 -17 0 -6 -6 -21 -11 -34 -11 -21 0
-23 5 -23 45 0 25 5 45 10 45 6 0 10 -4 10 -10z m140 -3 c0 -9 10 -12 30 -9
29 4 30 3 30 -32 0 -35 0 -36 -40 -34 l-40 1 0 44 c0 23 5 43 10 43 6 0 10 -6
10 -13z m130 -42 c0 -19 -4 -35 -10 -35 -5 0 -10 14 -10 31 0 17 -4 28 -10 24
-5 -3 -10 -17 -10 -31 0 -13 -4 -24 -10 -24 -5 0 -10 16 -10 35 0 32 2 35 30
35 28 0 30 -3 30 -35z m60 24 c0 -6 -7 -9 -15 -5 -11 4 -15 -1 -15 -18 0 -19
4 -23 19 -19 11 3 21 15 23 27 4 27 51 30 56 4 2 -13 -3 -18 -17 -18 -12 0
-21 -4 -21 -9 0 -5 10 -7 22 -3 14 3 19 1 14 -6 -3 -6 -30 -10 -59 -9 -53 2
-67 16 -53 53 6 16 46 19 46 3z m-304 -295 c17 -18 24 -21 24 -10 0 9 5 16 10
16 14 0 13 -15 -4 -55 -15 -36 -38 -49 -30 -17 3 9 0 28 -6 42 -10 24 -10 24
-7 -7 2 -21 -1 -33 -9 -33 -12 0 -23 57 -16 79 5 16 12 14 38 -15z m112 -6 c9
-9 12 -9 12 0 0 20 38 14 50 -8 9 -18 8 -20 -15 -20 -15 0 -24 -4 -20 -10 3
-5 12 -7 20 -3 8 3 15 0 15 -6 0 -6 -11 -11 -25 -11 -14 0 -25 4 -25 9 0 5
-11 4 -25 -2 -14 -7 -25 -15 -25 -19 0 -5 -4 -8 -10 -8 -5 0 -10 20 -10 45 0
40 2 45 23 45 13 0 28 -5 35 -12z"/>
<path d="M4635 4870 c-3 -5 -1 -10 4 -10 6 0 11 5 11 10 0 6 -2 10 -4 10 -3 0
-8 -4 -11 -10z"/>
<path d="M4740 4855 c0 -15 4 -24 10 -20 6 3 10 12 10 20 0 8 -4 17 -10 20 -6
4 -10 -5 -10 -20z"/>
<path d="M4900 4855 c0 -15 4 -24 10 -20 6 3 10 12 10 20 0 8 -4 17 -10 20 -6
4 -10 -5 -10 -20z"/>
<path d="M4570 4540 c0 -5 5 -10 10 -10 6 0 10 5 10 10 0 6 -4 10 -10 10 -5 0
-10 -4 -10 -10z"/>
<path d="M4740 4570 c0 -5 5 -10 11 -10 5 0 7 5 4 10 -3 6 -8 10 -11 10 -2 0
-4 -4 -4 -10z"/>
<path d="M4503 4264 c-3 -8 -1 -20 6 -27 8 -8 11 -4 11 16 0 30 -7 35 -17 11z"/>
<path d="M4700 4255 c0 -18 4 -22 20 -18 11 3 20 11 20 18 0 7 -9 15 -20 18
-16 4 -20 0 -20 -18z"/>
<path d="M4827 4267 c-3 -7 -2 -19 3 -26 5 -9 9 -8 14 5 4 9 3 21 -2 26 -6 6
-12 4 -15 -5z"/>
<path d="M4892 4255 c0 -16 2 -22 5 -12 2 9 2 23 0 30 -3 6 -5 -1 -5 -18z"/>
<path d="M4575 4270 c-3 -5 -1 -10 4 -10 6 0 11 5 11 10 0 6 -2 10 -4 10 -3 0
-8 -4 -11 -10z"/>
<path d="M4590 4249 c-29 -8 -27 -9 23 -13 20 -2 37 0 37 4 0 12 -33 17 -60 9z"/>
<path d="M4953 4264 c-3 -8 -1 -20 6 -27 8 -8 11 -4 11 16 0 30 -7 35 -17 11z"/>
<path d="M4507 3967 c-3 -7 -2 -19 3 -26 5 -9 9 -8 14 5 4 9 3 21 -2 26 -6 6
-12 4 -15 -5z"/>
<path d="M4570 3940 c0 -5 5 -10 10 -10 6 0 10 5 10 10 0 6 -4 10 -10 10 -5 0
-10 -4 -10 -10z"/>
<path d="M4658 3973 c-10 -2 -18 -8 -18 -13 0 -4 9 -6 20 -3 11 3 20 9 20 14
0 5 -1 8 -2 8 -2 -1 -11 -3 -20 -6z"/>
<path d="M4660 3940 c0 -5 5 -10 10 -10 6 0 10 5 10 10 0 6 -4 10 -10 10 -5 0
-10 -4 -10 -10z"/>
<path d="M4860 3970 c0 -5 5 -10 11 -10 5 0 7 5 4 10 -3 6 -8 10 -11 10 -2 0
-4 -4 -4 -10z"/>
<path d="M4600 3655 c0 -15 4 -24 10 -20 6 3 10 12 10 20 0 8 -4 17 -10 20 -6
4 -10 -5 -10 -20z"/>
<path d="M4665 3670 c-3 -5 -1 -10 4 -10 6 0 11 5 11 10 0 6 -2 10 -4 10 -3 0
-8 -4 -11 -10z"/>
<path d="M8410 4465 l0 -145 795 0 795 0 0 145 0 145 -795 0 -795 0 0 -145z
m521 25 l59 0 0 -36 c0 -33 -2 -35 -27 -32 -35 4 -41 31 -11 45 22 11 21 11
-7 9 -24 -3 -31 -8 -33 -30 -3 -21 -8 -26 -32 -26 -24 0 -28 4 -32 35 -4 33
12 69 20 45 2 -5 30 -10 63 -10z m369 10 c0 -5 9 -10 20 -10 12 0 20 -7 20
-17 1 -17 1 -17 11 0 12 20 40 22 57 5 9 -9 12 -9 12 0 0 7 13 12 30 12 17 0
30 -5 30 -12 0 -9 3 -9 12 0 15 15 45 15 54 0 5 -8 1 -9 -12 -5 -16 6 -15 4 3
-10 31 -25 16 -42 -35 -41 -40 0 -42 2 -44 32 l-1 31 -4 -32 c-4 -31 -33 -49
-33 -21 0 9 -3 9 -12 0 -17 -17 -45 -15 -57 6 -10 16 -10 16 -11 0 0 -13 -8
-18 -30 -18 -26 0 -30 4 -30 28 0 22 -4 27 -25 27 -19 0 -25 -5 -25 -22 0 -17
4 -20 22 -15 14 3 19 2 14 -6 -11 -18 -44 -14 -55 6 -10 16 -10 16 -11 0 0
-13 -8 -18 -30 -18 -17 0 -30 5 -30 13 0 9 -2 9 -8 0 -4 -6 -26 -12 -50 -11
-40 0 -42 2 -44 32 l-1 31 -4 -32 c-6 -46 -33 -44 -33 2 0 32 2 35 30 35 17 0
30 -5 30 -12 0 -9 3 -9 12 0 15 15 45 15 54 0 5 -8 2 -9 -9 -5 -23 9 -21 0 2
-12 13 -7 23 -6 37 4 19 15 19 15 0 8 -13 -4 -17 -3 -12 5 10 17 46 15 52 -3
6 -14 8 -13 19 1 8 11 20 15 34 11 14 -3 24 0 28 9 6 16 23 19 23 4z m37 4
c-3 -3 -12 -4 -19 -1 -8 3 -5 6 6 6 11 1 17 -2 13 -5z"/>
<path d="M8870 4455 c0 -14 5 -25 10 -25 6 0 10 11 10 25 0 14 -4 25 -10 25
-5 0 -10 -11 -10 -25z"/>
<path d="M8955 4450 c-3 -5 -1 -10 4 -10 6 0 11 5 11 10 0 6 -2 10 -4 10 -3 0
-8 -4 -11 -10z"/>
<path d="M9302 4455 c0 -16 2 -22 5 -12 2 9 2 23 0 30 -3 6 -5 -1 -5 -18z"/>
<path d="M9370 4455 c0 -14 5 -25 10 -25 6 0 10 11 10 25 0 14 -4 25 -10 25
-5 0 -10 -11 -10 -25z"/>
<path d="M9070 4452 c0 -6 9 -12 20 -15 11 -3 20 -3 20 -1 0 2 -9 8 -20 14
-11 6 -20 7 -20 2z"/>
<path d="M9167 4453 c-4 -3 -7 -11 -7 -17 0 -6 5 -5 12 2 6 6 9 14 7 17 -3 3
-9 2 -12 -2z"/>
<path d="M9490 4452 c0 -6 9 -12 20 -15 11 -3 20 -3 20 -1 0 2 -9 8 -20 14
-11 6 -20 7 -20 2z"/>
<path d="M8410 3215 l0 -1095 795 0 795 0 0 1095 0 1095 -545 0 -545 0 -3
-1052 -2 -1053 -3 1053 -2 1052 -245 0 -245 0 0 -1095z m183 988 c-27 -5 -31
-32 -5 -34 16 -1 16 -2 0 -6 -10 -2 -18 -13 -18 -24 0 -10 -4 -19 -10 -19 -5
0 -10 20 -10 45 0 44 0 45 33 44 23 -1 26 -3 10 -6z m47 -10 c0 -15 1 -15 18
0 10 10 24 17 31 17 7 0 3 -9 -10 -19 l-24 -19 24 -26 c19 -20 21 -26 9 -26
-9 0 -23 10 -31 23 l-16 22 0 -22 c-1 -44 -21 -23 -21 22 0 25 5 45 10 45 6 0
10 -7 10 -17z m100 -28 c0 -25 -4 -45 -10 -45 -5 0 -10 14 -10 30 0 17 -5 30
-11 30 -8 0 -8 5 1 15 21 26 30 17 30 -30z m651 38 c5 -50 2 -82 -6 -80 -14 5
-19 87 -6 87 6 0 11 -3 12 -7z m169 -38 c0 -41 -2 -45 -25 -45 -13 0 -29 8
-34 18 -10 16 -10 16 -11 0 0 -10 -4 -18 -10 -18 -5 0 -10 16 -10 35 0 19 5
35 10 35 6 0 10 -8 10 -17 1 -17 1 -17 11 0 5 9 17 17 24 17 8 0 15 5 15 10 0
6 5 10 10 10 6 0 10 -20 10 -45z m-520 -11 c0 -32 -2 -35 -27 -32 -33 4 -43
27 -14 35 12 3 21 9 21 13 0 5 -10 6 -22 2 -14 -3 -19 -2 -14 6 4 7 18 12 32
12 21 0 24 -5 24 -36z m66 24 c5 -8 2 -9 -9 -5 -19 7 -31 -8 -23 -28 8 -21 33
-8 40 20 5 20 12 23 53 23 27 0 54 -5 61 -11 8 -6 12 -6 12 2 0 26 19 8 23
-21 l3 -33 8 33 c8 29 12 32 47 32 38 0 39 -1 39 -35 0 -44 -17 -46 -23 -2
l-3 32 -8 -32 c-8 -30 -12 -33 -47 -33 -22 0 -39 5 -39 11 0 8 -4 8 -12 2 -16
-13 -166 -14 -174 -1 -3 5 -3 20 0 34 7 25 39 33 52 12z m347 -75 c-13 -2 -33
-2 -45 0 -13 2 -3 4 22 4 25 0 35 -2 23 -4z m-860 -200 c-27 -5 -31 -32 -5
-34 16 -1 16 -2 0 -6 -10 -2 -18 -13 -18 -24 0 -10 -4 -19 -10 -19 -5 0 -10
20 -10 45 0 44 0 45 33 44 23 -1 26 -3 10 -6z m47 -10 c0 -15 1 -15 18 0 10
10 35 17 54 17 45 0 57 -24 27 -56 l-21 -22 24 -5 c12 -2 2 -5 -23 -6 -38 -1
-50 3 -62 22 l-16 22 0 -22 c-1 -44 -21 -23 -21 22 0 25 5 45 10 45 6 0 10 -7
10 -17z m360 7 c0 -5 9 -10 19 -10 11 0 22 -9 26 -19 4 -13 12 -17 25 -14 11
3 20 10 20 15 0 5 -10 6 -21 3 -15 -5 -19 -4 -15 4 4 6 18 11 32 11 21 0 24
-5 24 -35 0 -30 -3 -35 -24 -35 -14 0 -28 5 -32 11 -4 8 -9 8 -17 0 -6 -6 -21
-11 -34 -11 -21 0 -23 5 -23 45 0 25 5 45 10 45 6 0 10 -4 10 -10z m200 -12
c0 -17 3 -19 12 -10 17 17 33 15 18 -3 -10 -12 -10 -18 0 -30 7 -9 10 -18 6
-22 -3 -4 -13 2 -21 13 -13 17 -14 17 -15 2 0 -11 -8 -18 -20 -18 -15 0 -20 7
-20 24 0 14 -4 28 -10 31 -6 4 -10 -7 -10 -24 0 -17 -4 -31 -10 -31 -5 0 -10
16 -10 36 0 35 1 36 30 32 20 -3 30 0 30 9 0 7 5 13 10 13 6 0 10 -10 10 -22z
m521 15 c5 -55 2 -83 -8 -83 -8 0 -14 14 -15 33 l-1 32 -4 -32 c-5 -42 -23
-43 -23 -2 0 17 -4 28 -10 24 -5 -3 -10 -17 -10 -31 0 -13 -4 -24 -10 -24 -5
0 -10 16 -10 35 0 33 2 35 35 35 19 0 35 5 35 10 0 11 20 14 21 3z m159 -38
c0 -41 -2 -45 -25 -45 -14 0 -25 6 -26 13 0 10 -2 10 -6 0 -10 -25 -23 -12
-23 22 0 32 19 52 21 23 0 -10 2 -10 6 0 2 6 11 12 19 12 8 0 14 5 14 10 0 6
5 10 10 10 6 0 10 -20 10 -45z m-510 -11 c0 -32 -2 -35 -27 -32 -33 4 -43 27
-14 35 12 3 21 10 21 15 0 5 -10 6 -21 3 -15 -5 -19 -4 -15 4 4 6 18 11 32 11
21 0 24 -5 24 -36z m60 25 c0 -6 -7 -9 -15 -5 -11 4 -15 -1 -15 -18 0 -19 4
-23 19 -19 11 3 21 15 23 27 3 22 48 37 48 16 0 -7 -7 -10 -15 -6 -11 4 -15
-1 -15 -18 0 -19 4 -23 19 -19 11 3 21 15 23 27 2 17 10 21 41 23 33 1 37 -2
37 -22 0 -13 5 -27 10 -30 6 -4 10 7 10 24 0 17 5 31 10 31 6 0 10 -15 10 -34
l0 -34 -117 2 c-105 1 -118 3 -121 19 -2 10 -1 25 2 33 6 16 46 19 46 3z
m-137 -76 c-13 -2 -33 -2 -45 0 -13 2 -3 4 22 4 25 0 35 -2 23 -4z m490 0
c-13 -2 -33 -2 -45 0 -13 2 -3 4 22 4 25 0 35 -2 23 -4z m-412 -200 c5 -50 2
-82 -6 -80 -14 5 -19 87 -6 87 6 0 11 -3 12 -7z m-331 -49 c0 -32 -2 -35 -27
-32 -33 4 -43 27 -14 35 12 3 21 9 21 13 0 5 -10 6 -22 2 -14 -3 -19 -2 -14 6
4 7 18 12 32 12 21 0 24 -5 24 -36z m100 1 c0 -44 -19 -46 -22 -2 l-1 32 -4
-32 c-5 -42 -23 -43 -23 -2 0 17 -4 28 -10 24 -5 -3 -10 -17 -10 -31 0 -13 -4
-24 -10 -24 -5 0 -10 16 -10 35 0 35 0 35 45 35 45 0 45 0 45 -35z m68 23 c9
-9 12 -9 12 0 0 27 19 10 23 -20 l3 -33 8 33 c8 29 12 32 47 32 38 0 39 -1 39
-35 0 -44 -17 -46 -23 -2 l-3 32 -8 -32 c-8 -30 -12 -33 -47 -33 -22 0 -39 5
-39 10 0 6 -7 6 -19 -1 -25 -17 -51 -4 -51 24 0 13 3 27 7 30 10 11 38 8 51
-5z m-168 -313 c0 -41 -2 -45 -24 -45 -13 0 -27 7 -30 16 -9 23 2 54 20 54 8
0 14 5 14 10 0 6 5 10 10 10 6 0 10 -20 10 -45z m230 35 c0 -5 7 -10 15 -10 8
0 15 -6 16 -12 0 -10 2 -10 6 0 6 15 35 16 51 0 9 -9 12 -9 12 0 0 7 13 12 30
12 28 0 30 -3 30 -35 0 -19 -4 -35 -10 -35 -5 0 -10 14 -10 31 0 17 -4 28 -10
24 -5 -3 -10 -17 -10 -31 0 -13 -4 -24 -10 -24 -5 0 -10 5 -10 12 0 9 -3 9
-12 0 -16 -16 -48 -15 -48 1 0 8 -2 9 -8 1 -10 -17 -109 -15 -116 2 -6 15 -46
20 -46 5 0 -5 10 -7 23 -4 17 5 19 3 11 -7 -20 -20 -49 -8 -52 23 -4 37 -22
35 -22 -3 0 -16 -4 -30 -10 -30 -5 0 -10 15 -10 34 0 34 1 35 43 34 23 0 47
-4 54 -10 7 -6 14 -5 18 2 3 5 17 10 31 10 13 0 24 5 24 10 0 6 5 10 10 10 6
0 10 -4 10 -10z m-200 -45 c0 -19 -4 -35 -10 -35 -5 0 -10 16 -10 35 0 19 5
35 10 35 6 0 10 -16 10 -35z m1 -257 c1 -7 1 -26 1 -43 -1 -16 2 -22 4 -12 3
9 14 17 25 17 11 0 18 4 14 10 -3 5 -13 6 -23 3 -13 -5 -14 -3 -6 6 21 23 49
9 52 -27 3 -32 3 -32 -41 -32 -43 0 -45 1 -49 34 -2 19 -2 39 0 45 5 15 22 14
23 -1z m99 2 c0 -5 6 -10 14 -10 9 0 16 -13 19 -32 l3 -33 8 31 c7 26 13 31
42 32 18 1 36 -3 40 -9 4 -7 -1 -9 -15 -4 -11 3 -21 2 -21 -3 0 -5 9 -12 21
-15 12 -3 19 -12 17 -19 -3 -9 -28 -14 -75 -16 l-71 -3 -4 35 c-2 18 -2 39 0
45 5 14 22 15 22 1z m-134 -21 c4 -8 0 -9 -15 -4 -11 3 -21 2 -21 -3 0 -5 9
-12 21 -15 12 -3 19 -12 17 -19 -6 -18 -38 -23 -52 -8 -8 9 -6 11 12 5 13 -4
22 -2 22 4 0 6 -6 11 -14 11 -18 0 -29 16 -21 30 8 13 42 13 51 -1z m35 -281
c1 -7 1 -26 1 -43 -1 -16 2 -22 4 -12 3 9 14 17 25 17 11 0 18 4 14 10 -3 5
-13 6 -22 3 -10 -4 -14 -2 -10 4 4 6 28 11 53 11 28 0 50 6 55 13 12 20 21 5
22 -40 1 -27 -2 -41 -10 -41 -8 0 -13 13 -13 30 0 17 -5 30 -10 30 -6 0 -13
-13 -16 -30 -6 -29 -9 -30 -59 -30 -53 0 -53 0 -57 34 -2 19 -2 39 0 45 5 15
22 14 23 -1z m269 -33 c0 -41 -2 -45 -24 -45 -13 0 -27 7 -30 16 -9 23 2 54
20 54 8 0 14 5 14 10 0 6 5 10 10 10 6 0 10 -20 10 -45z m101 38 c5 -55 2 -83
-8 -83 -8 0 -14 14 -15 33 l-1 32 -4 -33 c-4 -29 -8 -33 -30 -30 -33 4 -42 27
-14 35 12 3 21 10 21 15 0 5 -10 6 -21 3 -15 -5 -19 -4 -15 4 4 6 20 11 37 11
16 0 29 5 29 10 0 11 20 14 21 3z m-405 -24 c4 -8 0 -9 -15 -4 -11 3 -21 2
-21 -3 0 -5 9 -12 21 -15 12 -3 19 -12 17 -19 -6 -18 -38 -23 -52 -8 -8 9 -6
11 12 5 13 -4 22 -2 22 4 0 6 -6 11 -14 11 -18 0 -29 16 -21 30 8 13 42 13 51
-1z m472 -11 c2 -13 -3 -18 -18 -18 -12 0 -19 -4 -15 -10 3 -5 13 -6 23 -3 13
5 14 3 6 -6 -27 -29 -65 6 -50 45 8 21 50 14 54 -8z m-235 -65 c-13 -2 -33 -2
-45 0 -13 2 -3 4 22 4 25 0 35 -2 23 -4z m-93 -239 c0 -44 -1 -45 -27 -42 -22
2 -29 9 -31 31 -3 22 1 30 17 34 12 3 21 9 21 14 0 5 5 9 10 9 6 0 10 -21 10
-46z m130 17 c0 -25 3 -28 25 -23 14 2 22 8 20 13 -3 4 -13 5 -23 2 -13 -5
-14 -3 -6 6 21 23 49 9 52 -26 l3 -32 -60 0 c-56 1 -62 3 -67 24 -7 28 1 45
22 45 8 0 14 5 14 10 0 6 5 10 10 10 6 0 10 -13 10 -29z m101 22 c5 -53 2 -83
-7 -83 -12 0 -23 58 -16 79 4 12 22 15 23 4z m-372 -30 c10 -17 10 -17 11 0 0
12 8 17 30 17 28 0 30 -3 30 -35 0 -19 -4 -35 -10 -35 -5 0 -10 14 -10 31 0
17 -4 28 -10 24 -5 -3 -10 -17 -10 -31 0 -13 -4 -24 -10 -24 -5 0 -10 7 -10
15 0 9 -10 15 -26 15 -14 0 -23 -4 -19 -10 3 -5 12 -7 20 -3 8 3 15 0 15 -6 0
-17 -47 -13 -54 5 -17 43 31 75 53 37z m439 -5 c2 -13 -3 -18 -17 -18 -12 0
-21 -5 -21 -11 0 -6 9 -8 23 -4 17 6 19 4 11 -5 -27 -28 -65 7 -50 46 8 21 50
14 54 -8z m-245 -65 c-13 -2 -33 -2 -45 0 -13 2 -3 4 22 4 25 0 35 -2 23 -4z"/>
<path d="M9520 4155 c0 -15 4 -24 10 -20 6 3 10 12 10 20 0 8 -4 17 -10 20 -6
4 -10 -5 -10 -20z"/>
<path d="M9000 4140 c0 -5 5 -10 10 -10 6 0 10 5 10 10 0 6 -4 10 -10 10 -5 0
-10 -4 -10 -10z"/>
<path d="M9134 4165 c-3 -8 -3 -19 0 -24 9 -13 36 -2 36 14 0 19 -30 27 -36
10z"/>
<path d="M9193 4164 c-3 -8 -1 -20 6 -27 8 -8 11 -4 11 16 0 30 -7 35 -17 11z"/>
<path d="M8669 3884 c-9 -11 -8 -19 7 -35 l19 -21 22 27 c13 14 21 30 18 34
-8 14 -54 10 -66 -5z"/>
<path d="M9007 3867 c-3 -7 -2 -19 3 -26 5 -9 9 -8 14 5 4 9 3 21 -2 26 -6 6
-12 4 -15 -5z"/>
<path d="M9070 3840 c0 -5 5 -10 10 -10 6 0 10 5 10 10 0 6 -4 10 -10 10 -5 0
-10 -4 -10 -10z"/>
<path d="M9843 3864 c-3 -8 -1 -20 6 -27 8 -8 11 -4 11 16 0 30 -7 35 -17 11z"/>
<path d="M9330 3840 c0 -5 5 -10 10 -10 6 0 10 5 10 10 0 6 -4 10 -10 10 -5 0
-10 -4 -10 -10z"/>
<path d="M9520 3855 c0 -15 4 -24 10 -20 6 3 10 12 10 20 0 8 -4 17 -10 20 -6
4 -10 -5 -10 -20z"/>
<path d="M9000 3540 c0 -5 5 -10 10 -10 6 0 10 5 10 10 0 6 -4 10 -10 10 -5 0
-10 -4 -10 -10z"/>
<path d="M9173 3564 c-3 -8 -1 -20 6 -27 8 -8 11 -4 11 16 0 30 -7 35 -17 11z"/>
<path d="M9003 3264 c-3 -8 -1 -20 6 -27 8 -8 11 -4 11 16 0 30 -7 35 -17 11z"/>
<path d="M9140 3270 c0 -5 5 -10 11 -10 5 0 7 5 4 10 -3 6 -8 10 -11 10 -2 0
-4 -4 -4 -10z"/>
<path d="M9203 3263 c-8 -19 5 -32 27 -26 27 7 26 39 -1 39 -12 0 -23 -6 -26
-13z"/>
<path d="M9272 3255 c0 -16 2 -22 5 -12 2 9 2 23 0 30 -3 6 -5 -1 -5 -18z"/>
<path d="M9324 3267 c-4 -10 -2 -23 3 -28 14 -14 24 13 13 32 -7 11 -10 10
-16 -4z"/>
<path d="M9100 2939 c0 -5 5 -7 10 -4 6 3 10 8 10 11 0 2 -4 4 -10 4 -5 0 -10
-5 -10 -11z"/>
<path d="M9172 2955 c0 -16 2 -22 5 -12 2 9 2 23 0 30 -3 6 -5 -1 -5 -18z"/>
<path d="M9240 2950 c0 -7 24 -20 36 -20 13 0 1 19 -16 23 -11 3 -20 2 -20 -3z"/>
<path d="M9100 2639 c0 -5 5 -7 10 -4 6 3 10 8 10 11 0 2 -4 4 -10 4 -5 0 -10
-5 -10 -11z"/>
<path d="M9303 2664 c-3 -8 -1 -20 6 -27 8 -8 11 -4 11 16 0 30 -7 35 -17 11z"/>
<path d="M9370 2640 c0 -5 5 -10 10 -10 6 0 10 5 10 10 0 6 -4 10 -10 10 -5 0
-10 -4 -10 -10z"/>
<path d="M9475 2670 c-3 -5 -1 -10 4 -10 6 0 11 5 11 10 0 6 -2 10 -4 10 -3 0
-8 -4 -11 -10z"/>
<path d="M9140 2355 c0 -15 4 -24 10 -20 6 3 10 12 10 20 0 8 -4 17 -10 20 -6
4 -10 -5 -10 -20z"/>
<path d="M9273 2364 c-3 -8 -1 -20 6 -27 8 -8 11 -4 11 16 0 30 -7 35 -17 11z"/>
<path d="M9340 2339 c0 -5 5 -7 10 -4 6 3 10 8 10 11 0 2 -4 4 -10 4 -5 0 -10
-5 -10 -11z"/>
<path d="M9005 2370 c-3 -5 -1 -10 4 -10 6 0 11 5 11 10 0 6 -2 10 -4 10 -3 0
-8 -4 -11 -10z"/>
<path d="M9440 2370 c0 -5 5 -10 11 -10 5 0 7 5 4 10 -3 6 -8 10 -11 10 -2 0
-4 -4 -4 -10z"/>
<path d="M8370 4180 c-12 -8 -11 -10 8 -10 12 0 22 5 22 10 0 13 -11 13 -30 0z"/>
<path d="M8370 4150 c19 -13 30 -13 30 0 0 6 -10 10 -22 10 -19 0 -20 -2 -8
-10z"/>
<path d="M10010 3880 c0 -5 10 -10 23 -10 18 0 19 2 7 10 -19 13 -30 13 -30 0z"/>
<path d="M10010 3850 c0 -13 11 -13 30 0 12 8 11 10 -7 10 -13 0 -23 -4 -23
-10z"/>
<path d="M2310 1365 l0 -145 795 0 795 0 0 145 0 145 -795 0 -795 0 0 -145z
m1000 0 c0 -25 -4 -45 -10 -45 -5 0 -10 20 -10 45 0 25 5 45 10 45 6 0 10 -20
10 -45z m-360 6 c8 -14 9 -14 10 2 0 14 9 17 50 17 30 0 50 -4 50 -11 0 -6 -8
-8 -17 -5 -15 5 -15 4 1 -9 17 -13 21 -13 34 6 20 29 56 21 60 -14 4 -32 -21
-46 -49 -29 -11 7 -20 8 -24 2 -8 -14 -55 -13 -55 1 0 6 7 9 15 5 8 -3 15 -1
15 4 0 6 -7 10 -15 10 -8 0 -15 7 -15 15 0 8 -4 15 -10 15 -5 0 -10 -13 -10
-30 0 -20 -5 -30 -15 -30 -8 0 -15 7 -15 15 0 8 -9 15 -20 15 -11 0 -20 -4
-20 -10 0 -5 7 -6 17 -3 10 4 14 2 9 -5 -3 -6 -25 -10 -48 -9 -25 1 -43 -3
-46 -11 -2 -7 -10 -12 -18 -12 -10 0 -14 13 -14 44 l0 45 60 -1 c44 -1 63 -5
70 -17z m258 -18 c2 -19 -1 -33 -7 -33 -6 0 -11 11 -11 25 0 14 -4 25 -10 25
-5 0 -10 -11 -10 -25 0 -14 -4 -25 -10 -25 -5 0 -10 16 -10 36 0 33 2 35 28
32 22 -2 28 -8 30 -35z m70 0 c3 -31 1 -33 -27 -33 -36 0 -42 24 -13 46 16 13
16 14 -2 7 -14 -4 -17 -3 -12 6 4 7 18 11 29 9 17 -2 23 -11 25 -35z m97 27
c3 -5 0 -10 -7 -11 -10 0 -10 -2 0 -6 6 -2 12 -13 12 -24 0 -13 -7 -19 -24
-19 -14 0 -28 5 -32 12 -5 8 0 9 17 5 l24 -6 -24 18 c-13 10 -21 23 -17 30 9
14 43 15 51 1z"/>
<path d="M2850 1355 c0 -15 4 -24 10 -20 6 3 10 12 10 20 0 8 -4 17 -10 20 -6
4 -10 -5 -10 -20z"/>
<path d="M3100 1355 c0 -15 4 -24 10 -20 6 3 10 12 10 20 0 8 -4 17 -10 20 -6
4 -10 -5 -10 -20z"/>
<path d="M3247 1353 c-4 -3 -7 -11 -7 -17 0 -6 5 -5 12 2 6 6 9 14 7 17 -3 3
-9 2 -12 -2z"/>
<path d="M5310 1265 l0 -145 795 0 795 0 0 145 0 145 -795 0 -795 0 0 -145z
m961 38 c6 -62 3 -83 -11 -81 -16 3 -26 49 -16 74 6 15 25 20 27 7z m-421 -24
c0 -6 -7 -9 -15 -5 -11 4 -15 -1 -15 -18 0 -19 4 -23 19 -19 11 3 21 15 23 27
3 19 10 21 90 24 50 1 89 -2 93 -8 4 -6 12 -6 24 2 26 16 51 3 51 -27 0 -29
-25 -43 -48 -28 -16 10 -62 -4 -62 -19 0 -5 -7 -8 -15 -8 -11 0 -15 11 -15 40
0 22 -4 40 -10 40 -5 0 -10 -13 -10 -29 l0 -28 -79 -1 c-84 0 -99 8 -86 49 7
21 55 27 55 8z m380 -25 c0 -33 -2 -35 -27 -32 -35 4 -41 31 -11 45 22 11 21
11 -7 9 -24 -3 -31 -8 -33 -30 -5 -38 -22 -32 -22 9 l0 35 50 0 50 0 0 -36z
m108 14 c2 -13 -3 -18 -18 -18 -12 0 -19 -4 -15 -10 3 -5 13 -6 23 -3 13 5 14
3 6 -6 -27 -29 -65 6 -50 45 8 21 50 14 54 -8z m62 11 c0 -6 -8 -8 -17 -5 -12
4 -9 -1 6 -12 13 -11 21 -24 17 -31 -9 -14 -56 -15 -56 0 0 6 7 9 15 5 8 -3
15 -1 15 4 0 6 -7 10 -15 10 -8 0 -15 9 -15 20 0 15 7 20 25 20 14 0 25 -5 25
-11z"/>
<path d="M5887 1267 c-3 -7 -1 -20 3 -28 7 -11 10 -10 16 4 4 10 2 23 -3 28
-7 7 -12 6 -16 -4z"/>
<path d="M6010 1255 c0 -15 4 -24 10 -20 6 3 10 12 10 20 0 8 -4 17 -10 20 -6
4 -10 -5 -10 -20z"/>
<path d="M6080 1255 c0 -15 4 -24 10 -20 6 3 10 12 10 20 0 8 -4 17 -10 20 -6
4 -10 -5 -10 -20z"/>
<path d="M6195 1250 c-3 -5 -1 -10 4 -10 6 0 11 5 11 10 0 6 -2 10 -4 10 -3 0
-8 -4 -11 -10z"/>
<path d="M6305 1270 c-3 -5 -1 -10 4 -10 6 0 11 5 11 10 0 6 -2 10 -4 10 -3 0
-8 -4 -11 -10z"/>
<path d="M2310 1015 l0 -195 245 0 245 0 0 195 0 195 -245 0 -245 0 0 -195z
m135 15 c0 -18 -6 -26 -22 -28 -13 -2 -23 -10 -23 -18 0 -8 -4 -14 -10 -14 -5
0 -10 21 -10 46 0 45 0 45 33 42 27 -2 32 -7 32 -28z m35 13 c1 -17 1 -17 11
0 5 9 17 17 24 17 18 0 19 -12 4 -27 -17 -17 9 -52 34 -45 14 4 18 0 16 -13
-2 -10 -10 -20 -18 -23 -8 -3 -11 0 -7 7 5 7 -1 11 -14 11 -11 0 -23 7 -26 15
-4 8 -10 15 -15 15 -5 0 -9 -7 -9 -15 0 -8 -4 -15 -10 -15 -5 0 -10 20 -10 45
0 25 5 45 10 45 6 0 10 -8 10 -17z m143 10 c-13 -2 -23 -11 -23 -19 0 -8 10
-15 23 -15 l22 -2 -22 -4 c-15 -3 -23 -12 -23 -24 0 -10 -4 -19 -10 -19 -5 0
-10 20 -10 45 0 44 0 45 33 44 23 -1 26 -3 10 -6z m47 -10 c0 -15 1 -15 18 0
26 23 53 23 30 0 -15 -14 -15 -19 -2 -45 12 -24 12 -28 0 -28 -7 0 -16 7 -20
15 -3 8 -10 15 -16 15 -5 0 -10 -7 -10 -15 0 -8 -4 -15 -10 -15 -5 0 -10 20
-10 45 0 25 5 45 10 45 6 0 10 -7 10 -17z"/>
<path d="M2400 1030 c0 -11 5 -20 10 -20 6 0 10 9 10 20 0 11 -4 20 -10 20 -5
0 -10 -9 -10 -20z"/>
<path d="M2810 1015 l0 -195 545 0 545 0 0 195 0 195 -545 0 -545 0 0 -195z
m521 38 c5 -53 2 -83 -7 -83 -12 0 -23 58 -16 79 4 12 22 15 23 4z m106 1 c-3
-3 -12 -4 -19 -1 -8 3 -5 6 6 6 11 1 17 -2 13 -5z m73 -39 l0 -45 -50 1 c-50
2 -50 2 -50 35 0 30 2 33 32 32 18 -1 34 4 36 10 2 7 10 12 18 12 10 0 14 -13
14 -45z m-570 -11 c0 -33 -2 -35 -27 -32 -35 4 -41 31 -11 46 l23 12 -24 -6
c-16 -4 -21 -3 -17 5 4 6 18 11 32 11 21 0 24 -5 24 -36z m70 25 c0 -6 -7 -9
-15 -6 -18 7 -27 -6 -19 -26 3 -9 12 -13 20 -10 8 3 14 0 14 -7 0 -6 -11 -10
-27 -8 -28 3 -40 25 -29 54 6 16 56 19 56 3z m65 1 c4 -6 13 -5 24 2 26 16 51
3 51 -27 0 -30 -25 -43 -51 -27 -11 7 -20 8 -24 2 -10 -16 -43 -11 -54 7 -12
23 4 53 29 53 10 0 22 -4 25 -10z m105 -21 c0 -17 4 -28 10 -24 6 3 10 17 10
31 0 13 5 24 10 24 6 0 10 -16 10 -35 0 -32 -2 -35 -30 -35 -28 0 -30 3 -30
35 0 19 5 35 10 35 6 0 10 -14 10 -31z m114 15 c11 -28 6 -54 -9 -54 -10 0
-16 11 -17 33 l-1 32 -4 -32 c-6 -46 -33 -44 -33 2 0 32 3 35 29 35 17 0 31
-6 35 -16z m216 -74 c0 -6 -112 -10 -315 -10 -203 0 -315 4 -315 10 0 6 112
10 315 10 203 0 315 -4 315 -10z"/>
<path d="M3472 1005 c0 -16 2 -22 5 -12 2 9 2 23 0 30 -3 6 -5 -1 -5 -18z"/>
<path d="M2905 1000 c-3 -5 -1 -10 4 -10 6 0 11 5 11 10 0 6 -2 10 -4 10 -3 0
-8 -4 -11 -10z"/>
<path d="M3040 1005 c0 -18 4 -22 20 -18 11 3 20 11 20 18 0 7 -9 15 -20 18
-16 4 -20 0 -20 -18z"/>
<path d="M3110 1005 c0 -15 4 -24 10 -20 6 3 10 12 10 20 0 8 -4 17 -10 20 -6
4 -10 -5 -10 -20z"/>
<path d="M5310 915 l0 -195 245 0 245 0 0 195 0 195 -245 0 -245 0 0 -195z
m115 15 c0 -18 -6 -26 -22 -28 -13 -2 -23 -10 -23 -18 0 -8 -4 -14 -10 -14 -5
0 -10 21 -10 46 0 45 0 45 33 42 27 -2 32 -7 32 -28z m35 13 c0 -15 1 -15 18
0 25 23 53 23 30 1 -23 -23 -5 -64 24 -56 15 4 19 1 17 -13 -2 -10 -10 -20
-18 -23 -8 -3 -11 0 -7 7 4 7 0 11 -12 11 -11 0 -22 7 -26 15 -3 8 -10 15 -16
15 -5 0 -10 -7 -10 -15 0 -8 -4 -15 -10 -15 -5 0 -10 20 -10 45 0 25 5 45 10
45 6 0 10 -7 10 -17z m183 10 c-27 -5 -31 -32 -5 -34 16 -1 16 -2 0 -6 -10 -2
-18 -13 -18 -24 0 -10 -7 -19 -15 -19 -11 0 -15 12 -15 45 l0 45 38 -1 c23 -1
28 -3 15 -6z m47 -10 c1 -17 1 -17 11 0 5 9 17 17 24 17 18 0 19 -12 4 -27 -8
-8 -6 -18 6 -37 16 -24 16 -26 1 -26 -9 0 -19 7 -22 15 -4 8 -10 15 -15 15 -5
0 -9 -7 -9 -15 0 -8 -4 -15 -10 -15 -5 0 -10 20 -10 45 0 25 5 45 10 45 6 0
10 -8 10 -17z"/>
<path d="M5380 930 c0 -13 5 -20 13 -17 6 2 12 10 12 17 0 7 -6 15 -12 18 -8
2 -13 -5 -13 -18z"/>
<path d="M5810 915 l0 -195 545 0 545 0 0 195 0 195 -545 0 -545 0 0 -195z
m521 38 c5 -53 2 -83 -7 -83 -12 0 -23 58 -16 79 4 12 22 15 23 4z m106 1 c-3
-3 -12 -4 -19 -1 -8 3 -5 6 6 6 11 1 17 -2 13 -5z m73 -39 l0 -45 -50 1 c-50
2 -50 2 -50 35 0 30 2 33 32 32 18 -1 34 4 36 10 2 7 10 12 18 12 10 0 14 -13
14 -45z m-570 -11 c0 -33 -2 -35 -27 -32 -35 4 -41 31 -11 46 l23 12 -24 -6
c-16 -4 -21 -3 -17 5 4 6 18 11 32 11 21 0 24 -5 24 -36z m70 25 c0 -6 -7 -9
-15 -6 -18 7 -27 -6 -19 -26 3 -9 12 -13 20 -10 8 3 14 0 14 -7 0 -6 -11 -10
-27 -8 -28 3 -40 25 -29 54 6 16 56 19 56 3z m65 1 c4 -6 13 -5 24 2 26 16 51
3 51 -27 0 -30 -25 -43 -51 -27 -11 7 -20 8 -24 2 -10 -16 -43 -11 -54 7 -12
23 4 53 29 53 10 0 22 -4 25 -10z m105 -21 c0 -17 4 -28 10 -24 6 3 10 17 10
31 0 13 5 24 10 24 6 0 10 -16 10 -35 0 -32 -2 -35 -30 -35 -28 0 -30 3 -30
35 0 19 5 35 10 35 6 0 10 -14 10 -31z m114 15 c11 -28 6 -54 -9 -54 -10 0
-16 11 -17 33 l-1 32 -4 -32 c-6 -46 -33 -44 -33 2 0 32 3 35 29 35 17 0 31
-6 35 -16z m216 -74 c0 -6 -112 -10 -315 -10 -203 0 -315 4 -315 10 0 6 112
10 315 10 203 0 315 -4 315 -10z"/>
<path d="M6472 905 c0 -16 2 -22 5 -12 2 9 2 23 0 30 -3 6 -5 -1 -5 -18z"/>
<path d="M5905 900 c-3 -5 -1 -10 4 -10 6 0 11 5 11 10 0 6 -2 10 -4 10 -3 0
-8 -4 -11 -10z"/>
<path d="M6040 905 c0 -18 4 -22 20 -18 11 3 20 11 20 18 0 7 -9 15 -20 18
-16 4 -20 0 -20 -18z"/>
<path d="M6110 905 c0 -15 4 -24 10 -20 6 3 10 12 10 20 0 8 -4 17 -10 20 -6
4 -10 -5 -10 -20z"/>
<path d="M2310 765 l0 -45 795 0 795 0 0 45 0 45 -795 0 -795 0 0 -45z"/>
<path d="M5310 365 l0 -345 795 0 795 0 0 345 0 345 -545 0 -545 0 -3 -302 -2
-303 -3 303 -2 302 -245 0 -245 0 0 -345z m180 204 c0 -52 24 -48 28 4 2 20 8
37 13 37 6 0 9 -19 7 -42 -3 -40 -5 -43 -33 -43 -28 0 -30 3 -33 43 -2 25 1
42 7 42 6 0 11 -18 11 -41z m139 27 c6 -7 10 -28 9 -45 -2 -27 -6 -31 -33 -31
-36 0 -55 15 -55 45 0 41 53 62 79 31z m282 2 c1 -7 1 -26 1 -43 -1 -16 2 -22
4 -12 3 9 14 17 25 17 11 0 18 4 14 10 -3 5 -13 6 -23 3 -13 -5 -14 -3 -6 6
20 22 49 9 52 -23 3 -21 6 -26 12 -16 5 8 5 21 0 30 -7 14 -4 17 20 17 23 0
27 -3 19 -13 -7 -9 -7 -19 1 -33 12 -23 1 -28 -18 -9 -9 9 -12 9 -12 0 0 -8
-19 -12 -54 -12 -54 0 -54 0 -58 34 -2 19 -2 39 0 45 5 15 22 14 23 -1z m289
-33 c0 -41 -2 -45 -25 -45 -13 0 -29 8 -34 18 -10 16 -10 16 -11 0 0 -10 -4
-18 -10 -18 -5 0 -10 16 -10 35 0 19 5 35 10 35 6 0 10 -8 10 -17 1 -17 1 -17
11 0 5 9 17 17 24 17 8 0 15 5 15 10 0 6 5 10 10 10 6 0 10 -20 10 -45z m-107
-62 c-13 -2 -33 -2 -45 0 -13 2 -3 4 22 4 25 0 35 -2 23 -4z m-153 -248 c0
-44 -17 -46 -23 -2 l-3 32 -8 -32 c-11 -43 -26 -42 -26 2 0 32 2 35 30 35 28
0 30 -3 30 -35z m70 -1 c0 -32 -2 -35 -27 -32 -33 4 -43 27 -14 35 12 3 21 10
21 15 0 5 -10 6 -21 3 -15 -5 -19 -4 -15 4 4 6 18 11 32 11 21 0 24 -5 24 -36z
m98 -1 c2 -19 -1 -33 -7 -33 -6 0 -11 14 -11 31 0 17 -4 28 -10 24 -5 -3 -10
-17 -10 -31 0 -36 -20 -29 -22 9 l-1 32 -4 -32 c-6 -44 -23 -42 -23 3 l0 35
43 -3 c39 -3 42 -5 45 -35z m70 15 c2 -13 -3 -18 -17 -18 -12 0 -21 -4 -21 -9
0 -5 10 -7 23 -4 17 5 19 3 11 -7 -27 -28 -65 7 -50 46 8 21 50 14 54 -8z"/>
<path d="M5575 581 c-6 -21 3 -51 17 -51 5 0 6 5 3 10 -3 6 1 10 9 10 17 0 20
9 10 34 -8 22 -31 20 -39 -3z"/>
<path d="M5940 539 c0 -5 5 -7 10 -4 6 3 10 8 10 11 0 2 -4 4 -10 4 -5 0 -10
-5 -10 -11z"/>
<path d="M6160 555 c0 -15 4 -24 10 -20 6 3 10 12 10 20 0 8 -4 17 -10 20 -6
4 -10 -5 -10 -20z"/>
<path d="M5970 240 c0 -5 5 -10 10 -10 6 0 10 5 10 10 0 6 -4 10 -10 10 -5 0
-10 -4 -10 -10z"/>
<path d="M6140 270 c0 -5 5 -10 11 -10 5 0 7 5 4 10 -3 6 -8 10 -11 10 -2 0
-4 -4 -4 -10z"/>
</g>
</svg>
