<?xml version="1.0" standalone="no"?>
<!DOCTYPE svg PUBLIC "-//W3C//DTD SVG 20010904//EN"
 "http://www.w3.org/TR/2001/REC-SVG-20010904/DTD/svg10.dtd">
<svg version="1.0" xmlns="http://www.w3.org/2000/svg"
 width="1553.000000pt" height="698.000000pt" viewBox="0 0 1553.000000 698.000000"
 preserveAspectRatio="xMidYMid meet">

<g transform="translate(0.000000,698.000000) scale(0.100000,-0.100000)"
fill="#000000" stroke="none">
<path d="M6146 6684 c-22 -21 -20 -31 2 -12 9 9 24 18 32 21 12 4 12 6 -2 6
-9 1 -24 -6 -32 -15z"/>
<path d="M6220 6687 c21 -11 25 -20 24 -60 0 -27 3 -42 8 -35 24 38 -4 108
-43 108 -8 0 -3 -6 11 -13z"/>
<path d="M6776 6678 c-17 -25 -21 -74 -7 -82 5 -4 7 3 4 14 -8 31 5 66 29 78
17 8 19 11 6 11 -9 1 -24 -9 -32 -21z"/>
<path d="M6840 6693 c8 -3 23 -12 33 -21 21 -19 23 -9 1 12 -8 9 -23 16 -32
15 -14 0 -14 -2 -2 -6z"/>
<path d="M5638 6653 c7 -3 16 -2 19 1 4 3 -2 6 -13 5 -11 0 -14 -3 -6 -6z"/>
<path d="M5708 6651 c6 -3 12 -17 15 -31 l4 -25 2 27 c0 16 8 28 19 31 9 2 2
4 -16 4 -18 0 -29 -3 -24 -6z"/>
<path d="M5798 6653 c7 -3 16 -2 19 1 4 3 -2 6 -13 5 -11 0 -14 -3 -6 -6z"/>
<path d="M5926 6651 c-4 -5 3 -7 14 -4 23 6 26 13 6 13 -8 0 -17 -4 -20 -9z"/>
<path d="M5988 6653 c7 -3 16 -2 19 1 4 3 -2 6 -13 5 -11 0 -14 -3 -6 -6z"/>
<path d="M6950 6656 c0 -2 9 -6 20 -9 11 -3 18 -1 14 4 -5 9 -34 13 -34 5z"/>
<path d="M7028 6653 c7 -3 16 -2 19 1 4 3 -2 6 -13 5 -11 0 -14 -3 -6 -6z"/>
<path d="M7078 6653 c7 -3 16 -2 19 1 4 3 -2 6 -13 5 -11 0 -14 -3 -6 -6z"/>
<path d="M7135 6651 c19 -8 18 -9 -5 -13 -24 -5 -24 -5 3 -7 32 -1 33 22 1 26
-18 3 -18 2 1 -6z"/>
<path d="M6121 6634 c0 -11 3 -14 6 -6 3 7 2 16 -1 19 -3 4 -6 -2 -5 -13z"/>
<path d="M6891 6634 c0 -11 3 -14 6 -6 3 7 2 16 -1 19 -3 4 -6 -2 -5 -13z"/>
<path d="M5638 6633 c7 -3 16 -2 19 1 4 3 -2 6 -13 5 -11 0 -14 -3 -6 -6z"/>
<path d="M7016 6631 c-4 -5 3 -7 14 -4 23 6 26 13 6 13 -8 0 -17 -4 -20 -9z"/>
<path d="M5635 6610 c-16 -7 -17 -9 -3 -9 9 -1 20 4 23 9 7 11 7 11 -20 0z"/>
<path d="M5875 6610 c-16 -7 -17 -9 -3 -9 9 -1 20 4 23 9 7 11 7 11 -20 0z"/>
<path d="M6965 6610 c-16 -7 -17 -9 -3 -9 9 -1 20 4 23 9 7 11 7 11 -20 0z"/>
<path d="M5798 6603 c7 -3 16 -2 19 1 4 3 -2 6 -13 5 -11 0 -14 -3 -6 -6z"/>
<path d="M6130 6603 c0 -6 8 -17 18 -24 16 -13 16 -13 2 6 -8 11 -16 22 -17
24 -2 2 -3 0 -3 -6z"/>
<path d="M6871 6587 c-13 -21 -12 -21 5 -5 10 10 16 20 13 22 -3 3 -11 -5 -18
-17z"/>
<path d="M7128 6603 c6 -2 18 -2 25 0 6 3 1 5 -13 5 -14 0 -19 -2 -12 -5z"/>
<path d="M6196 6573 c-17 -3 -25 -8 -18 -12 6 -4 63 -120 125 -258 l114 -251
-191 -129 -191 -128 -465 -5 -465 -5 0 -820 0 -820 418 -3 c229 -1 417 1 417
5 0 5 -186 8 -412 8 l-413 0 -3 813 -2 812 458 0 458 0 253 -171 253 -171 250
168 c137 93 252 172 254 176 3 4 -65 54 -150 110 -86 57 -156 107 -156 111 0
9 213 263 236 283 8 6 14 17 14 23 0 7 -59 -58 -132 -144 l-131 -155 -31 20
c-17 11 -30 26 -28 32 10 45 176 494 184 499 6 4 -5 9 -23 11 -27 4 -30 3 -15
-7 15 -12 10 -33 -70 -256 -48 -134 -88 -245 -90 -247 -1 -2 -27 13 -57 33
l-55 37 -53 -36 c-29 -19 -54 -34 -55 -33 -1 1 -52 112 -113 246 -103 226
-110 245 -93 257 9 7 15 13 12 12 -3 0 -18 -3 -34 -5z m404 -763 c-13 -9 -13
-10 0 -11 8 -1 23 0 34 1 10 1 23 -4 27 -12 7 -10 9 -10 9 0 0 8 16 12 48 11
32 0 41 -3 28 -8 -18 -7 -18 -8 -3 -14 28 -11 21 -37 -10 -36 -27 1 -28 1 -4
8 l24 7 -25 16 c-28 18 -38 15 -38 -14 0 -10 -4 -18 -10 -18 -5 0 -10 7 -10
15 0 8 -9 15 -20 15 -25 0 -26 -17 -2 -24 10 -3 6 -4 -8 -3 -18 1 -26 9 -28
25 -5 31 -22 28 -23 -5 l-2 -28 -4 28 c-4 22 -10 27 -31 27 l-26 0 22 -16 c26
-18 21 -34 -11 -33 -21 0 -21 1 -2 9 18 7 19 8 3 15 -30 12 -21 35 12 35 17 0
30 5 30 10 0 6 8 10 18 10 14 0 15 -2 2 -10z m-209 -10 c48 0 49 -1 49 -30 0
-25 -4 -30 -25 -30 -30 0 -36 35 -7 44 9 2 4 4 -13 3 -23 -2 -31 -7 -33 -24
-2 -16 -10 -23 -27 -23 -18 0 -24 7 -27 30 -5 34 0 43 20 35 7 -3 36 -5 63 -5z
m119 -30 c0 -16 -4 -30 -10 -30 -5 0 -10 11 -10 25 0 14 -4 25 -10 25 -5 0
-10 -11 -10 -25 0 -14 -4 -25 -10 -25 -5 0 -10 14 -10 30 0 27 3 30 30 30 27
0 30 -3 30 -30z"/>
<path d="M6330 5770 c0 -11 5 -20 10 -20 6 0 10 9 10 20 0 11 -4 20 -10 20 -5
0 -10 -9 -10 -20z"/>
<path d="M6405 5760 c-3 -5 -1 -10 4 -10 6 0 11 5 11 10 0 6 -2 10 -4 10 -3 0
-8 -4 -11 -10z"/>
<path d="M7013 6368 c-12 -6 -25 -18 -28 -26 -5 -14 -4 -14 12 0 10 8 27 20
38 26 25 14 7 14 -22 0z"/>
<path d="M7061 6367 c2 -1 13 -9 24 -17 19 -14 19 -14 6 3 -7 9 -18 17 -24 17
-6 0 -8 -1 -6 -3z"/>
<path d="M7101 6306 c0 -16 -9 -39 -18 -50 -17 -21 -17 -21 6 0 16 15 21 29
18 50 l-4 29 -2 -29z"/>
<path d="M7178 6323 c7 -3 16 -2 19 1 4 3 -2 6 -13 5 -11 0 -14 -3 -6 -6z"/>
<path d="M7268 6323 c7 -3 16 -2 19 1 4 3 -2 6 -13 5 -11 0 -14 -3 -6 -6z"/>
<path d="M7438 6323 c7 -3 16 -2 19 1 4 3 -2 6 -13 5 -11 0 -14 -3 -6 -6z"/>
<path d="M7268 6303 c6 -2 18 -2 25 0 6 3 1 5 -13 5 -14 0 -19 -2 -12 -5z"/>
<path d="M7275 6280 c-16 -7 -17 -9 -3 -9 9 -1 20 4 23 9 7 11 7 11 -20 0z"/>
<path d="M6980 6271 c0 -6 4 -13 10 -16 6 -3 7 1 4 9 -7 18 -14 21 -14 7z"/>
<path d="M7178 6273 c7 -3 16 -2 19 1 4 3 -2 6 -13 5 -11 0 -14 -3 -6 -6z"/>
<path d="M7438 6273 c7 -3 16 -2 19 1 4 3 -2 6 -13 5 -11 0 -14 -3 -6 -6z"/>
<path d="M7038 6233 c7 -3 16 -2 19 1 4 3 -2 6 -13 5 -11 0 -14 -3 -6 -6z"/>
<path d="M7510 5783 l460 -3 0 -815 0 -815 -425 0 -425 0 0 40 0 40 -290 0
-290 0 0 175 0 175 198 3 197 2 -203 3 -203 2 3 133 3 132 203 3 c165 2 202 0
202 -11 0 -15 31 -47 44 -47 5 0 -2 8 -14 18 -27 22 -29 65 -5 92 31 35 80 20
98 -30 4 -12 6 -12 6 2 1 23 -38 58 -64 58 -25 0 -65 -34 -65 -55 0 -18 -79
-19 -507 -8 l-271 6 -11 24 c-35 77 -153 25 -125 -55 20 -57 101 -62 126 -7
l11 25 179 0 178 0 0 -140 0 -140 -179 0 c-134 0 -181 3 -184 13 -3 6 -6 0 -6
-15 -1 -16 -10 -37 -21 -48 -11 -11 -15 -20 -10 -20 6 0 19 13 28 30 l17 30
178 0 177 0 0 -175 0 -175 -292 -3 c-161 -1 -29 -3 295 -5 l587 -2 2 -197 2
-198 3 157 4 158 427 2 427 3 0 820 0 820 -463 0 -462 0 460 -2z m-1376 -872
c23 -26 17 -60 -16 -84 -25 -19 -28 -19 -52 -4 -33 22 -41 52 -22 82 20 31 65
33 90 6z"/>
<path d="M4835 5550 c-3 -6 1 -7 9 -4 18 7 21 14 7 14 -6 0 -13 -4 -16 -10z"/>
<path d="M8258 5553 c7 -3 16 -2 19 1 4 3 -2 6 -13 5 -11 0 -14 -3 -6 -6z"/>
<path d="M4956 5531 c-4 -5 3 -7 14 -4 23 6 26 13 6 13 -8 0 -17 -4 -20 -9z"/>
<path d="M8388 5533 c7 -3 16 -2 19 1 4 3 -2 6 -13 5 -11 0 -14 -3 -6 -6z"/>
<path d="M4837 5489 c7 -7 15 -10 18 -7 3 3 -2 9 -12 12 -14 6 -15 5 -6 -5z"/>
<path d="M8258 5483 c7 -3 16 -2 19 1 4 3 -2 6 -13 5 -11 0 -14 -3 -6 -6z"/>
<path d="M13087 4972 c-10 -10 -17 -24 -17 -30 0 -9 -38 -12 -134 -12 -74 0
-141 -3 -150 -6 -14 -5 -16 -46 -16 -350 l0 -344 -300 0 -300 0 2 -202 3 -203
2 198 3 197 595 0 595 0 3 -197 2 -198 3 205 2 206 172 53 c121 37 174 49 176
41 13 -39 76 -64 108 -42 56 37 26 132 -41 132 -22 0 -65 -38 -65 -57 0 -5
-91 -38 -202 -72 l-203 -61 -273 0 -272 0 2 343 3 342 138 3 137 3 10 -25 c26
-70 130 -53 130 22 0 64 -73 98 -113 54z m87 -8 c20 -20 20 -53 0 -82 -31 -45
-94 -15 -94 44 0 50 59 74 94 38z m658 -571 c37 -33 14 -103 -34 -103 -52 0
-75 63 -38 100 24 24 47 25 72 3z"/>
<path d="M13318 4943 c7 -3 16 -2 19 1 4 3 -2 6 -13 5 -11 0 -14 -3 -6 -6z"/>
<path d="M13375 4940 c-3 -6 1 -7 9 -4 18 7 21 14 7 14 -6 0 -13 -4 -16 -10z"/>
<path d="M13426 4941 c-4 -5 3 -7 14 -4 23 6 26 13 6 13 -8 0 -17 -4 -20 -9z"/>
<path d="M13477 4943 c-3 -5 5 -8 18 -8 13 0 21 3 18 8 -2 4 -10 7 -18 7 -8 0
-16 -3 -18 -7z"/>
<path d="M13616 4941 c-4 -5 3 -7 14 -4 23 6 26 13 6 13 -8 0 -17 -4 -20 -9z"/>
<path d="M13678 4943 c7 -3 16 -2 19 1 4 3 -2 6 -13 5 -11 0 -14 -3 -6 -6z"/>
<path d="M13906 4941 c-5 -8 63 -5 71 3 2 2 -12 4 -31 4 -20 0 -38 -3 -40 -7z"/>
<path d="M14088 4943 c7 -3 16 -2 19 1 4 3 -2 6 -13 5 -11 0 -14 -3 -6 -6z"/>
<path d="M13305 4920 c-8 -13 3 -30 18 -29 9 0 9 2 0 6 -18 7 -16 21 5 26 15
4 15 5 0 6 -9 0 -20 -3 -23 -9z"/>
<path d="M14078 4923 c6 -2 18 -2 25 0 6 3 1 5 -13 5 -14 0 -19 -2 -12 -5z"/>
<path d="M13377 4899 c7 -7 15 -10 18 -7 3 3 -2 9 -12 12 -14 6 -15 5 -6 -5z"/>
<path d="M13428 4898 c5 -5 16 -8 23 -6 8 3 3 7 -10 11 -17 4 -21 3 -13 -5z"/>
<path d="M13477 4898 c2 -5 10 -8 18 -8 8 0 16 3 18 8 3 4 -5 7 -18 7 -13 0
-21 -3 -18 -7z"/>
<path d="M13547 4899 c7 -7 15 -10 18 -7 3 3 -2 9 -12 12 -14 6 -15 5 -6 -5z"/>
<path d="M13855 4900 c-16 -7 -17 -9 -3 -9 9 -1 20 4 23 9 7 11 7 11 -20 0z"/>
<path d="M14078 4898 c5 -5 16 -8 23 -6 8 3 3 7 -10 11 -17 4 -21 3 -13 -5z"/>
<path d="M5875 4890 c-3 -6 1 -7 9 -4 18 7 21 14 7 14 -6 0 -13 -4 -16 -10z"/>
<path d="M7138 4883 c7 -3 16 -2 19 1 4 3 -2 6 -13 5 -11 0 -14 -3 -6 -6z"/>
<path d="M7196 4881 c-4 -5 3 -7 14 -4 23 6 26 13 6 13 -8 0 -17 -4 -20 -9z"/>
<path d="M7248 4883 c7 -3 16 -2 19 1 4 3 -2 6 -13 5 -11 0 -14 -3 -6 -6z"/>
<path d="M7358 4883 c7 -3 16 -2 19 1 4 3 -2 6 -13 5 -11 0 -14 -3 -6 -6z"/>
<path d="M7496 4881 c-4 -5 3 -7 14 -4 23 6 26 13 6 13 -8 0 -17 -4 -20 -9z"/>
<path d="M7568 4883 c7 -3 16 -2 19 1 4 3 -2 6 -13 5 -11 0 -14 -3 -6 -6z"/>
<path d="M7658 4883 c7 -3 16 -2 19 1 4 3 -2 6 -13 5 -11 0 -14 -3 -6 -6z"/>
<path d="M7728 4883 c7 -3 16 -2 19 1 4 3 -2 6 -13 5 -11 0 -14 -3 -6 -6z"/>
<path d="M7788 4883 c7 -3 16 -2 19 1 4 3 -2 6 -13 5 -11 0 -14 -3 -6 -6z"/>
<path d="M13718 4873 c6 -2 18 -2 25 0 6 3 1 5 -13 5 -14 0 -19 -2 -12 -5z"/>
<path d="M7138 4863 c6 -2 18 -2 25 0 6 3 1 5 -13 5 -14 0 -19 -2 -12 -5z"/>
<path d="M7358 4863 c6 -2 18 -2 25 0 6 3 1 5 -13 5 -14 0 -19 -2 -12 -5z"/>
<path d="M7555 4860 c-8 -13 3 -30 18 -29 9 0 9 2 0 6 -18 7 -16 21 5 26 15 4
15 5 0 6 -9 0 -20 -3 -23 -9z"/>
<path d="M7645 4860 c-8 -13 3 -30 18 -29 9 0 9 2 0 6 -18 7 -16 21 5 26 15 4
15 5 0 6 -9 0 -20 -3 -23 -9z"/>
<path d="M7838 4863 c6 -2 18 -2 25 0 6 3 1 5 -13 5 -14 0 -19 -2 -12 -5z"/>
<path d="M5877 4849 c7 -7 15 -10 18 -7 3 3 -2 9 -12 12 -14 6 -15 5 -6 -5z"/>
<path d="M7061 4848 c-1 -9 -11 -24 -23 -32 -12 -9 -18 -16 -12 -16 17 0 47
38 41 52 -4 9 -6 7 -6 -4z"/>
<path d="M7145 4840 c-16 -7 -17 -9 -3 -9 9 -1 20 4 23 9 7 11 7 11 -20 0z"/>
<path d="M7198 4838 c5 -5 16 -8 23 -6 8 3 3 7 -10 11 -17 4 -21 3 -13 -5z"/>
<path d="M7287 4839 c7 -7 15 -10 18 -7 3 3 -2 9 -12 12 -14 6 -15 5 -6 -5z"/>
<path d="M7365 4840 c-16 -7 -17 -9 -3 -9 9 -1 20 4 23 9 7 11 7 11 -20 0z"/>
<path d="M7498 4838 c5 -5 16 -8 23 -6 8 3 3 7 -10 11 -17 4 -21 3 -13 -5z"/>
<path d="M7838 4838 c5 -5 16 -8 23 -6 8 3 3 7 -10 11 -17 4 -21 3 -13 -5z"/>
<path d="M7788 4833 c7 -3 16 -2 19 1 4 3 -2 6 -13 5 -11 0 -14 -3 -6 -6z"/>
<path d="M7443 4813 c9 -2 23 -2 30 0 6 3 -1 5 -18 5 -16 0 -22 -2 -12 -5z"/>
<path d="M6061 4649 c-13 -5 -21 -12 -18 -15 3 -3 15 -1 26 5 16 9 28 8 53 -5
27 -13 30 -13 18 -1 -21 21 -51 27 -79 16z"/>
<path d="M6966 4639 c-14 -11 -26 -28 -25 -37 0 -13 3 -11 9 5 21 51 89 51
110 1 6 -17 9 -18 9 -6 1 18 -44 58 -64 58 -7 0 -24 -9 -39 -21z"/>
<path d="M6027 4613 c-19 -18 8 -93 34 -93 5 0 0 9 -12 21 -15 15 -20 30 -17
50 5 31 5 32 -5 22z"/>
<path d="M7135 4600 c-3 -6 1 -7 9 -4 18 7 21 14 7 14 -6 0 -13 -4 -16 -10z"/>
<path d="M7215 4601 c19 -8 18 -9 -5 -13 -24 -5 -24 -5 3 -7 32 -1 33 22 1 26
-18 3 -18 2 1 -6z"/>
<path d="M7268 4603 c7 -3 16 -2 19 1 4 3 -2 6 -13 5 -11 0 -14 -3 -6 -6z"/>
<path d="M7316 4601 c-4 -5 3 -7 14 -4 23 6 26 13 6 13 -8 0 -17 -4 -20 -9z"/>
<path d="M7508 4603 c7 -3 16 -2 19 1 4 3 -2 6 -13 5 -11 0 -14 -3 -6 -6z"/>
<path d="M7576 4601 c-4 -5 3 -7 14 -4 23 6 26 13 6 13 -8 0 -17 -4 -20 -9z"/>
<path d="M7646 4601 c-4 -5 3 -7 14 -4 23 6 26 13 6 13 -8 0 -17 -4 -20 -9z"/>
<path d="M5686 4591 c-4 -5 3 -7 14 -4 23 6 26 13 6 13 -8 0 -17 -4 -20 -9z"/>
<path d="M5758 4593 c7 -3 16 -2 19 1 4 3 -2 6 -13 5 -11 0 -14 -3 -6 -6z"/>
<path d="M5816 4591 c-5 -7 52 -6 60 2 2 2 -9 4 -26 5 -16 0 -32 -3 -34 -7z"/>
<path d="M5928 4593 c7 -3 16 -2 19 1 4 3 -2 6 -13 5 -11 0 -14 -3 -6 -6z"/>
<path d="M5758 4573 c6 -2 18 -2 25 0 6 3 1 5 -13 5 -14 0 -19 -2 -12 -5z"/>
<path d="M5918 4573 c6 -2 18 -2 25 0 6 3 1 5 -13 5 -14 0 -19 -2 -12 -5z"/>
<path d="M6941 4569 c-1 -9 9 -24 22 -35 22 -19 22 -19 6 1 -9 11 -19 27 -22
35 -5 13 -6 13 -6 -1z"/>
<path d="M7060 4570 c0 -7 -8 -22 -17 -32 -15 -17 -15 -18 0 -13 17 7 33 42
23 52 -3 4 -6 0 -6 -7z"/>
<path d="M2410 4420 l0 -150 335 0 335 0 0 150 0 150 -335 0 -335 0 0 -150z
m660 0 l0 -140 -325 0 -325 0 0 140 0 140 325 0 325 0 0 -140z"/>
<path d="M3970 4420 l0 -150 338 2 337 3 -332 2 -333 3 0 140 0 140 333 3 332
2 -337 3 -338 2 0 -150z"/>
<path d="M7137 4559 c7 -7 15 -10 18 -7 3 3 -2 9 -12 12 -14 6 -15 5 -6 -5z"/>
<path d="M7318 4558 c5 -5 16 -8 23 -6 8 3 3 7 -10 11 -17 4 -21 3 -13 -5z"/>
<path d="M7578 4558 c5 -5 16 -8 23 -6 8 3 3 7 -10 11 -17 4 -21 3 -13 -5z"/>
<path d="M5765 4550 c-16 -7 -17 -9 -3 -9 9 -1 20 4 23 9 7 11 7 11 -20 0z"/>
<path d="M5918 4548 c5 -5 16 -8 23 -6 8 3 3 7 -10 11 -17 4 -21 3 -13 -5z"/>
<path d="M7208 4553 c6 -2 18 -2 25 0 6 3 1 5 -13 5 -14 0 -19 -2 -12 -5z"/>
<path d="M7268 4553 c7 -3 16 -2 19 1 4 3 -2 6 -13 5 -11 0 -14 -3 -6 -6z"/>
<path d="M6998 4513 c7 -3 16 -2 19 1 4 3 -2 6 -13 5 -11 0 -14 -3 -6 -6z"/>
<path d="M729 4353 c-12 -16 -12 -17 1 -7 8 6 22 14 30 17 13 5 12 6 -1 6 -9
1 -23 -7 -30 -16z"/>
<path d="M800 4357 c31 -16 41 -54 23 -91 -9 -17 -10 -25 -3 -21 6 4 15 18 20
31 9 24 11 24 139 24 71 0 136 -3 145 -6 13 -5 16 -27 16 -135 l0 -129 -149 0
c-149 0 -149 0 -155 24 -3 13 -13 27 -23 30 -15 6 -15 5 1 -13 25 -28 23 -71
-4 -93 -12 -10 -18 -18 -13 -18 13 0 43 34 43 48 0 9 42 12 150 12 l150 0 0
-120 0 -120 -150 0 c-119 0 -150 3 -150 13 0 18 -32 47 -51 47 -8 0 -3 -6 11
-13 31 -16 41 -54 23 -91 -9 -17 -10 -25 -3 -21 6 4 15 18 20 31 9 23 12 24
157 26 l148 3 3 123 3 122 145 0 145 0 -3 -102 -3 -102 -290 -182 -289 -182
-17 28 c-10 16 -26 31 -37 34 -29 9 -69 -12 -82 -44 -15 -36 9 -87 45 -96 29
-7 70 16 80 45 3 11 131 98 310 210 l305 191 395 0 395 0 0 205 0 205 -405 0
-405 0 0 -95 0 -95 -145 0 -145 0 0 125 c0 113 -2 125 -19 135 -11 5 -81 10
-155 10 -107 0 -136 3 -136 13 0 18 -32 47 -51 47 -8 0 -3 -6 11 -13z m1440
-332 l0 -195 -395 0 -395 0 0 195 0 195 395 0 395 0 0 -195z m-1416 -541 c31
-30 14 -85 -30 -98 -47 -14 -87 59 -54 99 16 20 64 19 84 -1z"/>
<path d="M1682 4040 c-1 -26 3 -51 10 -58 14 -14 44 -16 52 -4 2 4 -8 8 -22 7
-25 0 -27 4 -33 50 l-6 50 -1 -45z"/>
<path d="M1753 4040 c0 -25 2 -35 4 -22 2 12 2 32 0 45 -2 12 -4 2 -4 -23z"/>
<path d="M1793 4073 c-21 -8 -15 -31 12 -49 32 -21 32 -41 0 -47 -23 -4 -23
-4 2 -3 40 2 45 42 8 56 -31 12 -29 32 6 41 19 6 20 7 4 7 -11 0 -26 -2 -32
-5z"/>
<path d="M1870 4071 c0 -4 11 -6 25 -3 14 2 25 6 25 8 0 2 -11 4 -25 4 -14 0
-25 -4 -25 -9z"/>
<path d="M1951 4023 c1 -32 4 -46 6 -30 4 23 33 41 33 19 0 -5 7 -17 16 -28 8
-10 12 -12 7 -4 -4 8 -8 33 -8 55 0 36 -3 40 -27 43 -28 3 -28 3 -27 -55z m49
27 c0 -13 -7 -20 -20 -20 -13 0 -20 7 -20 20 0 13 7 20 20 20 13 0 20 -7 20
-20z"/>
<path d="M1883 4023 c9 -2 23 -2 30 0 6 3 -1 5 -18 5 -16 0 -22 -2 -12 -5z"/>
<path d="M1870 3979 c0 -5 11 -9 25 -9 14 0 25 2 25 4 0 2 -11 6 -25 8 -14 3
-25 1 -25 -3z"/>
<path d="M3402 4203 c-116 -93 -211 -171 -211 -174 -1 -3 95 -82 213 -177
l215 -171 213 170 c117 94 215 172 216 174 4 4 -420 345 -429 345 -4 0 -101
-75 -217 -167z m282 -181 c1 -41 -20 -42 -26 -2 -5 32 0 42 15 37 6 -2 11 -17
11 -35z m-216 21 c-10 -2 -18 -13 -18 -23 0 -10 8 -21 18 -23 12 -4 11 -5 -6
-6 -12 0 -25 6 -28 14 -10 24 4 45 28 44 17 -1 18 -2 6 -6z m120 -10 c2 -8 -5
-13 -17 -13 -12 0 -21 -4 -21 -10 0 -16 37 -12 44 5 3 8 13 15 23 16 16 0 16
2 -2 10 -18 8 -18 8 5 6 19 -1 26 -8 28 -29 3 -27 3 -28 -55 -25 -52 2 -58 4
-61 25 -5 30 -22 28 -22 -3 0 -14 -4 -25 -10 -25 -5 0 -10 13 -10 30 0 29 1
29 47 27 26 -1 48 -7 51 -14z m198 7 c-17 -6 -18 -7 -3 -13 9 -3 17 -13 17
-22 0 -21 -98 -22 -106 0 -12 31 3 43 58 43 32 -1 45 -3 34 -8z"/>
<path d="M3610 4010 c0 -5 5 -10 10 -10 6 0 10 5 10 10 0 6 -4 10 -10 10 -5 0
-10 -4 -10 -10z"/>
<path d="M3730 4020 c-21 -6 -22 -8 -8 -14 9 -4 29 -6 45 -4 26 3 27 4 8 14
-11 6 -31 8 -45 4z"/>
<path d="M9555 4198 l-340 -171 347 -173 347 -173 341 173 342 173 -336 172
c-184 94 -341 171 -348 170 -7 0 -166 -77 -353 -171z m625 -98 c0 -38 -2 -40
-30 -40 -27 0 -30 3 -30 30 0 23 4 30 20 30 11 0 20 5 20 10 0 6 5 10 10 10 6
0 10 -18 10 -40z m-107 16 c36 -1 48 -23 15 -28 l-23 -5 25 -10 c23 -10 21
-11 -22 -11 -43 0 -46 2 -50 29 -5 32 0 42 15 32 5 -3 24 -6 40 -7z m-383 -26
c0 -25 -4 -30 -25 -30 -18 0 -25 5 -25 20 0 12 7 20 18 21 14 0 14 2 -3 9 -18
8 -17 9 8 9 24 1 27 -3 27 -29z m95 20 c-18 -7 -19 -8 -2 -15 9 -4 17 -13 17
-20 0 -10 -15 -14 -52 -13 -36 0 -47 3 -33 8 18 7 19 8 3 15 -10 4 -18 13 -18
20 0 10 15 14 53 13 35 0 46 -3 32 -8z m75 -2 c0 -9 3 -9 12 0 7 7 21 11 33
11 16 -1 17 -2 3 -6 -10 -2 -18 -13 -18 -23 0 -10 8 -21 18 -23 14 -4 13 -5
-3 -6 -12 0 -26 4 -33 11 -9 9 -12 9 -12 0 0 -17 -40 -15 -46 3 -4 8 -4 22 0
30 6 18 46 20 46 3z m90 -2 c0 -10 7 -12 22 -8 21 5 21 6 2 14 -16 6 -15 7 6
5 19 -1 26 -8 28 -29 3 -27 1 -28 -37 -26 -38 1 -41 3 -41 30 0 15 5 28 10 28
6 0 10 -6 10 -14z m41 -136 c15 0 19 -7 18 -32 -1 -28 -2 -30 -7 -10 -4 13
-11 23 -17 23 -5 0 -13 -10 -17 -23 -4 -16 -6 -9 -6 22 0 25 2 39 5 33 2 -7
13 -13 24 -13z m-49 -8 c-16 -5 -15 -39 1 -45 7 -3 5 -6 -5 -6 -13 -1 -18 7
-19 27 l-2 27 -4 -27 c-2 -16 -9 -28 -14 -28 -5 0 -9 12 -10 28 l-1 27 -10
-27 c-10 -30 -23 -36 -31 -15 -4 9 -8 8 -16 -3 -10 -13 -12 -13 -21 0 -5 8
-10 23 -10 34 0 15 3 16 14 7 11 -9 15 -9 19 1 4 10 8 10 16 -2 8 -11 13 -12
19 -4 4 7 18 14 32 16 28 4 62 -3 42 -10z"/>
<path d="M10135 4100 c-4 -6 -3 -16 3 -22 6 -6 12 -6 17 2 4 6 3 16 -3 22 -6
6 -12 6 -17 -2z"/>
<path d="M10030 4090 c0 -11 5 -20 10 -20 6 0 10 9 10 20 0 11 -4 20 -10 20
-5 0 -10 -9 -10 -20z"/>
<path d="M9655 4080 c-3 -5 -1 -10 4 -10 6 0 11 5 11 10 0 6 -2 10 -4 10 -3 0
-8 -4 -11 -10z"/>
<path d="M9738 4090 c12 -11 27 -20 33 -20 7 0 5 8 -6 20 -10 11 -25 20 -33
20 -12 0 -11 -5 6 -20z"/>
<path d="M9825 4100 c-7 -12 2 -30 16 -30 5 0 9 9 9 20 0 21 -15 27 -25 10z"/>
<path d="M9970 4080 c0 -5 5 -10 10 -10 6 0 10 5 10 10 0 6 -4 10 -10 10 -5 0
-10 -4 -10 -10z"/>
<path d="M14005 4360 c-3 -6 1 -7 9 -4 18 7 21 14 7 14 -6 0 -13 -4 -16 -10z"/>
<path d="M386 4321 c-4 -5 3 -7 14 -4 23 6 26 13 6 13 -8 0 -17 -4 -20 -9z"/>
<path d="M458 4323 c7 -3 16 -2 19 1 4 3 -2 6 -13 5 -11 0 -14 -3 -6 -6z"/>
<path d="M516 4321 c-5 -7 52 -6 60 2 2 2 -9 4 -26 5 -16 0 -32 -3 -34 -7z"/>
<path d="M628 4323 c7 -3 16 -2 19 1 4 3 -2 6 -13 5 -11 0 -14 -3 -6 -6z"/>
<path d="M711 4303 c-1 -41 29 -73 67 -72 26 1 25 1 -6 9 -42 10 -44 12 -52
57 l-8 38 -1 -32z"/>
<path d="M14007 4319 c7 -7 15 -10 18 -7 3 3 -2 9 -12 12 -14 6 -15 5 -6 -5z"/>
<path d="M458 4303 c6 -2 18 -2 25 0 6 3 1 5 -13 5 -14 0 -19 -2 -12 -5z"/>
<path d="M612 4293 c2 -10 12 -19 23 -20 16 -1 16 -1 3 3 -25 8 -22 22 5 27
18 4 17 5 -6 6 -22 1 -28 -3 -25 -16z"/>
<path d="M465 4280 c-16 -7 -17 -9 -3 -9 9 -1 20 4 23 9 7 11 7 11 -20 0z"/>
<path d="M8618 4233 c7 -3 16 -2 19 1 4 3 -2 6 -13 5 -11 0 -14 -3 -6 -6z"/>
<path d="M2798 4213 c7 -3 16 -2 19 1 4 3 -2 6 -13 5 -11 0 -14 -3 -6 -6z"/>
<path d="M11508 4213 c7 -3 16 -2 19 1 4 3 -2 6 -13 5 -11 0 -14 -3 -6 -6z"/>
<path d="M8618 4163 c7 -3 16 -2 19 1 4 3 -2 6 -13 5 -11 0 -14 -3 -6 -6z"/>
<path d="M768 4093 c7 -3 16 -2 19 1 4 3 -2 6 -13 5 -11 0 -14 -3 -6 -6z"/>
<path d="M726 4074 c-9 -8 -16 -23 -15 -32 0 -14 2 -14 6 -2 3 8 12 23 21 33
19 21 9 23 -12 1z"/>
<path d="M6220 4071 c0 -5 5 -13 10 -16 6 -3 10 -2 10 4 0 5 -4 13 -10 16 -5
3 -10 2 -10 -4z"/>
<path d="M6302 4068 c-7 -7 -12 -16 -12 -22 0 -5 6 -3 13 6 6 9 23 19 37 21
l25 4 -25 2 c-15 0 -31 -4 -38 -11z"/>
<path d="M6398 4069 c-21 -12 -24 -69 -6 -87 7 -7 23 -11 38 -11 23 1 23 2 -5
8 -26 5 -30 11 -33 43 -3 34 -1 38 30 47 20 5 25 9 13 10 -11 0 -28 -4 -37
-10z"/>
<path d="M6486 4064 c-32 -31 -10 -94 33 -94 19 0 41 19 41 35 0 5 -5 2 -11
-7 -20 -35 -69 -15 -69 27 0 42 49 62 69 28 6 -10 11 -13 11 -7 1 32 -48 44
-74 18z"/>
<path d="M6594 4036 c2 -92 70 -92 72 0 l2 49 -7 -50 c-5 -45 -9 -50 -31 -50
-22 0 -26 5 -31 50 l-7 50 2 -49z"/>
<path d="M6702 4073 c12 -27 64 -103 70 -103 5 0 7 26 6 58 l-1 57 -6 -50 -6
-50 -28 48 c-15 26 -30 47 -33 47 -3 0 -4 -3 -2 -7z"/>
<path d="M6812 4073 c13 -3 18 -18 21 -56 l3 -52 2 52 c2 40 6 53 20 56 9 3
-1 5 -23 5 -22 0 -32 -2 -23 -5z"/>
<path d="M12230 4025 c0 -57 10 -66 54 -49 18 7 22 44 5 44 -8 0 -8 5 1 15 17
20 -3 45 -36 45 -22 0 -24 -4 -24 -55z m55 25 c0 -8 -10 -16 -22 -18 -18 -3
-23 2 -23 18 0 16 5 21 23 18 12 -2 22 -10 22 -18z m0 -50 c0 -8 -10 -16 -22
-18 -18 -3 -23 2 -23 18 0 16 5 21 23 18 12 -2 22 -10 22 -18z"/>
<path d="M12350 4071 c0 -5 5 -13 10 -16 6 -3 10 -2 10 4 0 5 -4 13 -10 16 -5
3 -10 2 -10 -4z"/>
<path d="M12422 4023 l2 -58 3 49 4 48 29 -46 c16 -25 32 -46 35 -46 3 0 4 26
3 58 l-1 57 -6 -49 -6 -49 -23 41 c-34 62 -42 61 -40 -5z"/>
<path d="M12533 4025 c0 -33 2 -48 4 -32 2 15 7 27 11 27 3 0 17 -12 30 -27
13 -16 20 -21 16 -13 -4 8 -14 23 -22 33 -14 16 -13 20 9 45 l24 27 -32 -29
-31 -28 -5 28 c-2 16 -4 2 -4 -31z"/>
<path d="M12685 4070 c-3 -5 -1 -10 4 -10 6 0 11 5 11 10 0 6 -2 10 -4 10 -3
0 -8 -4 -11 -10z"/>
<path d="M12768 4069 c-21 -12 -24 -69 -6 -87 7 -7 23 -11 38 -11 23 1 23 2
-5 8 -26 5 -30 11 -33 43 -3 34 -1 38 30 47 20 5 25 9 13 10 -11 0 -28 -4 -37
-10z"/>
<path d="M12856 4064 c-34 -33 -9 -95 37 -93 20 1 21 2 2 6 -30 8 -45 23 -45
48 0 25 15 40 45 48 19 4 18 5 -2 6 -12 0 -29 -6 -37 -15z"/>
<path d="M12946 4064 c-32 -31 -10 -94 33 -94 19 0 41 19 41 35 0 5 -5 2 -11
-7 -20 -35 -69 -15 -69 27 0 42 49 62 69 28 6 -10 11 -13 11 -7 1 32 -48 44
-74 18z"/>
<path d="M13054 4036 c1 -35 6 -52 19 -60 31 -19 52 4 53 60 l2 49 -7 -50 c-5
-45 -9 -50 -31 -50 -22 0 -26 5 -31 50 l-7 50 2 -49z"/>
<path d="M13162 4023 l2 -58 3 49 4 48 29 -46 c16 -25 32 -46 35 -46 3 0 4 26
3 58 l-1 57 -6 -49 -6 -49 -23 41 c-34 62 -42 61 -40 -5z"/>
<path d="M13272 4073 c13 -3 18 -18 21 -56 l3 -52 2 52 c2 40 6 53 20 56 9 3
-1 5 -23 5 -22 0 -32 -2 -23 -5z"/>
<path d="M398 4043 c7 -3 16 -2 19 1 4 3 -2 6 -13 5 -11 0 -14 -3 -6 -6z"/>
<path d="M468 4041 c6 -3 12 -17 15 -31 l4 -25 2 27 c0 16 8 28 19 31 9 2 2 4
-16 4 -18 0 -29 -3 -24 -6z"/>
<path d="M558 4043 c7 -3 16 -2 19 1 4 3 -2 6 -13 5 -11 0 -14 -3 -6 -6z"/>
<path d="M388 4023 c6 -2 18 -2 25 0 6 3 1 5 -13 5 -14 0 -19 -2 -12 -5z"/>
<path d="M545 4020 c-8 -13 3 -30 18 -29 9 0 9 2 0 6 -18 7 -16 21 5 26 15 4
15 5 0 6 -9 0 -20 -3 -23 -9z"/>
<path d="M6200 4019 c0 -4 14 -9 30 -11 17 -3 30 -1 30 3 0 4 -13 9 -30 11
-16 3 -30 1 -30 -3z"/>
<path d="M12330 4019 c0 -4 14 -9 30 -11 17 -3 30 -1 30 3 0 4 -13 9 -30 11
-16 3 -30 1 -30 -3z"/>
<path d="M711 4009 c-1 -17 29 -49 45 -49 5 0 1 5 -9 11 -10 6 -22 20 -27 32
-6 15 -9 17 -9 6z"/>
<path d="M12660 4012 c0 -5 14 -7 30 -4 17 2 30 6 30 8 0 2 -13 4 -30 4 -16 0
-30 -4 -30 -8z"/>
<path d="M388 3998 c5 -5 16 -8 23 -6 8 3 3 7 -10 11 -17 4 -21 3 -13 -5z"/>
<path d="M6290 4004 c0 -19 28 -36 52 -31 21 4 20 4 -4 6 -15 0 -32 9 -37 19
-6 9 -11 12 -11 6z"/>
<path d="M6186 3983 c-6 -14 -5 -15 5 -6 7 7 10 15 7 18 -3 3 -9 -2 -12 -12z"/>
<path d="M12316 3983 c-6 -14 -5 -15 5 -6 7 7 10 15 7 18 -3 3 -9 -2 -12 -12z"/>
<path d="M734 3824 c-18 -14 -18 -14 6 -3 31 14 36 19 24 19 -6 0 -19 -7 -30
-16z"/>
<path d="M6504 3799 c-15 -29 -15 -31 0 -26 14 6 16 -14 16 -193 l0 -200 -586
0 c-384 0 -592 -4 -605 -10 -18 -10 -19 -23 -19 -235 0 -124 3 -225 8 -225 4
0 6 100 4 222 -2 172 0 223 10 230 7 4 277 8 600 8 l588 0 3 -232 c1 -129 3
-38 5 204 2 400 3 437 18 431 12 -4 15 -2 10 8 -3 8 -9 22 -12 32 -9 25 -21
21 -40 -14z"/>
<path d="M711 3773 c-1 -41 29 -73 67 -72 26 1 25 1 -6 9 -42 10 -44 12 -52
57 l-8 38 -1 -32z"/>
<path d="M176 3761 c-4 -5 3 -7 14 -4 23 6 26 13 6 13 -8 0 -17 -4 -20 -9z"/>
<path d="M248 3763 c7 -3 16 -2 19 1 4 3 -2 6 -13 5 -11 0 -14 -3 -6 -6z"/>
<path d="M295 3761 c-3 -5 0 -13 6 -17 7 -4 9 -3 5 4 -3 6 2 13 11 15 16 4 16
5 1 6 -9 0 -19 -3 -23 -8z"/>
<path d="M358 3763 c7 -3 16 -2 19 1 4 3 -2 6 -13 5 -11 0 -14 -3 -6 -6z"/>
<path d="M496 3761 c-4 -5 3 -7 14 -4 23 6 26 13 6 13 -8 0 -17 -4 -20 -9z"/>
<path d="M605 3760 c-3 -6 1 -7 9 -4 18 7 21 14 7 14 -6 0 -13 -4 -16 -10z"/>
<path d="M235 3740 c-8 -13 3 -30 18 -29 9 0 9 2 0 6 -18 7 -16 21 5 26 15 4
15 5 0 6 -9 0 -20 -3 -23 -9z"/>
<path d="M178 3718 c5 -5 16 -8 23 -6 8 3 3 7 -10 11 -17 4 -21 3 -13 -5z"/>
<path d="M498 3718 c5 -5 16 -8 23 -6 8 3 3 7 -10 11 -17 4 -21 3 -13 -5z"/>
<path d="M607 3719 c7 -7 15 -10 18 -7 3 3 -2 9 -12 12 -14 6 -15 5 -6 -5z"/>
<path d="M298 3713 c7 -3 16 -2 19 1 4 3 -2 6 -13 5 -11 0 -14 -3 -6 -6z"/>
<path d="M358 3713 c7 -3 16 -2 19 1 4 3 -2 6 -13 5 -11 0 -14 -3 -6 -6z"/>
<path d="M6308 3613 c7 -3 16 -2 19 1 4 3 -2 6 -13 5 -11 0 -14 -3 -6 -6z"/>
<path d="M6418 3613 c7 -3 16 -2 19 1 4 3 -2 6 -13 5 -11 0 -14 -3 -6 -6z"/>
<path d="M6402 3583 c2 -10 12 -19 23 -20 16 -1 16 -1 3 3 -25 8 -22 22 5 27
18 4 17 5 -6 6 -22 1 -28 -3 -25 -16z"/>
<path d="M587 3453 c-3 -5 5 -8 18 -8 13 0 21 3 18 8 -2 4 -10 7 -18 7 -8 0
-16 -3 -18 -7z"/>
<path d="M587 3408 c2 -5 10 -8 18 -8 8 0 16 3 18 8 3 4 -5 7 -18 7 -13 0 -21
-3 -18 -7z"/>
<path d="M8608 3163 c7 -3 16 -2 19 1 4 3 -2 6 -13 5 -11 0 -14 -3 -6 -6z"/>
<path d="M11156 3161 c-4 -5 3 -7 14 -4 23 6 26 13 6 13 -8 0 -17 -4 -20 -9z"/>
<path d="M4872 2713 l-2 -203 448 2 447 3 -442 2 -443 3 -3 198 -2 197 -3
-202z"/>
<path d="M6032 2713 l-2 -203 245 0 246 0 -3 -77 -3 -78 -165 -5 -165 -5 -3
-82 c-2 -72 -5 -83 -23 -88 -24 -8 -50 -61 -41 -84 9 -26 34 -51 51 -50 10 0
8 4 -7 9 -40 17 -47 64 -14 103 28 32 77 15 95 -33 4 -12 6 -12 6 2 1 17 -35
58 -51 58 -4 0 -8 36 -8 79 l0 80 169 3 c93 2 244 2 335 0 l166 -3 0 -74 c0
-68 -2 -76 -30 -103 -35 -36 -39 -73 -10 -102 24 -24 72 -26 94 -4 38 37 24
104 -24 119 -18 6 -20 15 -20 90 l0 85 -167 2 -168 3 -3 77 -3 78 248 3 c136
1 26 3 -244 5 l-493 2 -3 198 -2 197 -3 -202z m868 -553 c46 -25 26 -110 -27
-110 -57 0 -83 60 -43 100 22 22 42 25 70 10z"/>
<path d="M4990 2762 c15 -5 25 -15 25 -27 0 -12 -9 -22 -25 -26 -22 -6 -23 -7
-4 -8 52 -2 55 62 3 66 -24 2 -24 2 1 -5z"/>
<path d="M5073 2763 c9 -2 23 -2 30 0 6 3 -1 5 -18 5 -16 0 -22 -2 -12 -5z"/>
<path d="M5160 2761 c14 -4 25 -13 25 -21 0 -8 -11 -17 -25 -21 -15 -4 -18 -7
-8 -8 10 -1 24 -13 32 -28 8 -16 15 -24 16 -20 0 5 -5 17 -10 27 -8 14 -7 25
2 40 11 17 10 22 -2 30 -8 5 -24 9 -35 9 -16 -1 -15 -2 5 -8z"/>
<path d="M5233 2763 c-21 -8 -15 -31 12 -49 32 -21 32 -41 0 -47 -23 -4 -23
-4 2 -3 40 2 45 42 8 56 -31 12 -29 32 6 41 19 6 20 7 4 7 -11 0 -26 -2 -32
-5z"/>
<path d="M5316 2754 c-32 -31 -10 -94 33 -94 19 0 41 19 41 35 0 5 -5 2 -11
-7 -20 -35 -69 -15 -69 27 0 42 49 62 69 28 6 -10 11 -13 11 -7 1 32 -48 44
-74 18z"/>
<path d="M5422 2713 l1 -58 6 48 6 47 28 -45 c16 -25 31 -45 33 -45 2 0 3 26
2 58 l-1 57 -6 -44 -6 -45 -28 42 c-15 23 -29 42 -32 42 -3 0 -4 -26 -3 -57z"/>
<path d="M5557 2764 c-11 -11 -8 -26 3 -19 6 3 10 1 10 -6 0 -7 3 -10 6 -6 3
3 2 13 -3 22 -5 8 -12 12 -16 9z"/>
<path d="M6132 2758 c-7 -7 -12 -16 -12 -22 0 -5 6 -3 13 6 6 9 23 19 37 21
l25 4 -25 2 c-15 0 -31 -4 -38 -11z"/>
<path d="M6222 2758 c-7 -7 -12 -19 -11 -27 0 -10 4 -7 9 7 16 39 70 22 70
-23 0 -45 -54 -62 -70 -22 -5 13 -9 16 -9 7 -1 -9 4 -21 11 -28 28 -28 78 -1
78 43 0 44 -50 71 -78 43z"/>
<path d="M6349 2762 c13 -4 28 -16 32 -27 8 -17 8 -17 6 5 -2 20 -8 25 -32 27
-27 2 -27 1 -6 -5z"/>
<path d="M6440 2761 c16 -4 25 -14 25 -26 0 -12 -9 -22 -25 -26 -21 -6 -22 -7
-4 -8 24 -1 44 17 44 40 0 18 -20 30 -48 28 -10 -1 -6 -4 8 -8z"/>
<path d="M6516 2754 c-32 -31 -10 -94 33 -94 19 0 41 19 41 35 0 5 -5 2 -11
-7 -20 -35 -69 -15 -69 27 0 42 49 62 69 28 6 -10 11 -13 11 -7 1 32 -48 44
-74 18z"/>
<path d="M6621 2713 c1 -32 4 -46 6 -30 4 23 33 41 33 19 0 -5 7 -17 16 -28
14 -18 15 -18 4 4 -6 13 -9 29 -7 36 4 9 -2 11 -19 8 -20 -3 -24 0 -24 18 0
18 4 21 25 18 13 -3 22 -1 19 3 -3 5 -16 9 -30 9 -23 0 -24 -3 -23 -57z"/>
<path d="M6737 2764 c-11 -11 -8 -26 3 -19 6 3 10 1 10 -6 0 -7 3 -10 6 -6 3
3 2 13 -3 22 -5 8 -12 12 -16 9z"/>
<path d="M6808 2760 c13 -6 31 -6 45 0 18 7 14 9 -23 9 -37 0 -41 -2 -22 -9z"/>
<path d="M6890 2761 c0 -4 11 -6 25 -3 14 2 25 6 25 8 0 2 -11 4 -25 4 -14 0
-25 -4 -25 -9z"/>
<path d="M9612 2578 l-313 -171 152 -83 c84 -46 154 -85 156 -88 7 -7 -239
-791 -250 -795 -24 -9 -57 -52 -56 -73 1 -18 3 -16 10 10 14 46 51 62 93 39
l31 -17 -28 24 -29 23 97 314 c53 173 108 349 122 392 l24 77 79 -42 c44 -24
80 -47 80 -51 0 -5 -58 -239 -130 -521 -71 -282 -130 -519 -129 -527 0 -8 61
222 134 509 73 288 136 526 139 529 3 3 33 -10 68 -29 l63 -35 5 -649 5 -649
3 650 2 650 71 38 c39 22 72 37 74 35 5 -4 295 -1095 295 -1107 0 -5 -9 -12
-19 -16 -11 -3 -22 -13 -26 -22 -5 -15 -4 -15 13 0 24 22 60 22 86 0 21 -18
21 -18 2 5 -11 12 -24 22 -30 22 -6 0 -60 186 -120 413 -60 226 -128 480 -151
564 l-41 152 233 127 c128 70 230 131 226 135 -12 11 -613 339 -621 339 -4 0
-148 -77 -320 -172z m119 -148 c48 0 49 -1 49 -30 0 -25 -4 -30 -25 -30 -30 0
-36 35 -7 44 9 2 4 4 -13 3 -23 -2 -31 -7 -33 -24 -2 -16 -10 -23 -27 -23 -18
0 -24 7 -27 30 -5 34 0 43 20 35 7 -3 36 -5 63 -5z m340 0 c5 0 9 -13 9 -30 0
-25 -4 -30 -25 -30 -20 0 -25 5 -25 25 0 18 -5 25 -20 25 -25 0 -27 -36 -2
-44 10 -3 6 -4 -8 -3 -19 2 -25 7 -25 27 0 19 6 26 30 31 17 4 36 5 43 3 8 -2
18 -4 23 -4z m-221 -30 c0 -16 -4 -30 -10 -30 -5 0 -10 11 -10 25 0 14 -4 25
-10 25 -5 0 -10 -11 -10 -25 0 -14 -4 -25 -10 -25 -5 0 -10 14 -10 30 0 27 3
30 30 30 27 0 30 -3 30 -30z m42 22 c-21 -6 -21 -8 -5 -18 13 -7 25 -7 42 2
21 11 22 13 5 17 -16 4 -15 5 4 6 18 1 22 -4 22 -28 0 -29 -1 -30 -52 -29 -36
0 -47 3 -33 8 18 7 19 8 3 15 -29 11 -22 35 10 34 25 -1 25 -1 4 -7z m253 -22
c0 -18 -6 -26 -23 -28 -13 -2 -25 3 -28 12 -10 26 4 48 28 44 17 -2 23 -10 23
-28z m73 -2 c2 -16 -1 -28 -7 -28 -6 0 -11 11 -11 25 0 14 -4 25 -10 25 -5 0
-10 -11 -10 -25 0 -14 -4 -25 -10 -25 -5 0 -10 14 -10 31 0 27 3 30 28 27 21
-2 28 -9 30 -30z"/>
<path d="M9670 2400 c0 -11 5 -20 10 -20 6 0 10 9 10 20 0 11 -4 20 -10 20 -5
0 -10 -9 -10 -20z"/>
<path d="M9745 2390 c-3 -5 -1 -10 4 -10 6 0 11 5 11 10 0 6 -2 10 -4 10 -3 0
-8 -4 -11 -10z"/>
<path d="M10050 2400 c0 -11 5 -20 10 -20 6 0 10 9 10 20 0 11 -4 20 -10 20
-5 0 -10 -9 -10 -20z"/>
<path d="M9930 2389 c0 -5 5 -7 10 -4 6 3 10 8 10 11 0 2 -4 4 -10 4 -5 0 -10
-5 -10 -11z"/>
<path d="M10110 2400 c0 -11 5 -20 10 -20 6 0 10 9 10 20 0 11 -4 20 -10 20
-5 0 -10 -9 -10 -20z"/>
<path d="M5073 2713 c9 -2 23 -2 30 0 6 3 -1 5 -18 5 -16 0 -22 -2 -12 -5z"/>
<path d="M5558 2713 c-16 -2 -28 -8 -28 -12 0 -4 14 -6 30 -3 17 2 30 8 30 13
0 5 -1 8 -2 8 -2 -1 -15 -4 -30 -6z"/>
<path d="M6347 2710 c12 -5 24 -18 28 -29 3 -12 10 -21 15 -21 5 0 1 13 -8 30
-10 18 -25 30 -37 29 -19 0 -19 -1 2 -9z"/>
<path d="M6738 2713 c-16 -2 -28 -8 -28 -12 0 -4 14 -6 30 -3 17 2 30 8 30 13
0 5 -1 8 -2 8 -2 -1 -15 -4 -30 -6z"/>
<path d="M6903 2713 c9 -2 23 -2 30 0 6 3 -1 5 -18 5 -16 0 -22 -2 -12 -5z"/>
<path d="M6120 2694 c0 -19 28 -36 52 -31 21 4 20 4 -4 6 -15 0 -32 9 -37 19
-6 9 -11 12 -11 6z"/>
<path d="M5590 2681 c0 -6 4 -13 10 -16 6 -3 7 1 4 9 -7 18 -14 21 -14 7z"/>
<path d="M6770 2681 c0 -6 4 -13 10 -16 6 -3 7 1 4 9 -7 18 -14 21 -14 7z"/>
<path d="M5630 2669 c0 -5 11 -9 25 -9 14 0 25 2 25 4 0 2 -11 6 -25 8 -14 3
-25 1 -25 -3z"/>
<path d="M6890 2669 c0 -5 11 -9 25 -9 14 0 25 2 25 4 0 2 -11 6 -25 8 -14 3
-25 1 -25 -3z"/>
<path d="M5073 2663 c9 -2 23 -2 30 0 6 3 -1 5 -18 5 -16 0 -22 -2 -12 -5z"/>
<path d="M10253 2215 c2 -11 70 -192 151 -401 80 -210 146 -386 146 -392 0 -6
-9 -13 -19 -17 -11 -3 -22 -12 -24 -19 -4 -9 6 -6 27 7 26 17 32 26 26 42 -79
208 -295 765 -301 780 l-10 20 4 -20z"/>
<path d="M6068 1933 c7 -3 16 -2 19 1 4 3 -2 6 -13 5 -11 0 -14 -3 -6 -6z"/>
<path d="M6128 1933 c7 -3 16 -2 19 1 4 3 -2 6 -13 5 -11 0 -14 -3 -6 -6z"/>
<path d="M6198 1931 c6 -3 12 -17 15 -31 l4 -25 2 27 c0 16 8 28 19 31 9 2 2
4 -16 4 -18 0 -29 -3 -24 -6z"/>
<path d="M6757 1933 c-3 -5 5 -8 18 -8 13 0 21 3 18 8 -2 4 -10 7 -18 7 -8 0
-16 -3 -18 -7z"/>
<path d="M6928 1933 c7 -3 16 -2 19 1 4 3 -2 6 -13 5 -11 0 -14 -3 -6 -6z"/>
<path d="M6116 1911 c-4 -5 3 -7 14 -4 23 6 26 13 6 13 -8 0 -17 -4 -20 -9z"/>
<path d="M6288 1913 c6 -2 18 -2 25 0 6 3 1 5 -13 5 -14 0 -19 -2 -12 -5z"/>
<path d="M6928 1913 c7 -3 16 -2 19 1 4 3 -2 6 -13 5 -11 0 -14 -3 -6 -6z"/>
<path d="M6980 1910 c0 -5 5 -10 11 -10 5 0 7 5 4 10 -3 6 -8 10 -11 10 -2 0
-4 -4 -4 -10z"/>
<path d="M6288 1888 c5 -5 16 -8 23 -6 8 3 3 7 -10 11 -17 4 -21 3 -13 -5z"/>
<path d="M6757 1888 c2 -5 10 -8 18 -8 8 0 16 3 18 8 3 4 -5 7 -18 7 -13 0
-21 -3 -18 -7z"/>
<path d="M6925 1890 c-16 -7 -17 -9 -3 -9 9 -1 20 4 23 9 7 11 7 11 -20 0z"/>
<path d="M6823 1863 c9 -2 23 -2 30 0 6 3 -1 5 -18 5 -16 0 -22 -2 -12 -5z"/>
<path d="M10598 1390 c26 -25 28 -57 5 -90 l-17 -25 22 19 c12 11 22 31 22 45
0 29 -25 71 -42 71 -7 0 -2 -9 10 -20z"/>
<path d="M9430 1366 c0 -15 -11 -33 -26 -45 -15 -12 -22 -21 -15 -21 20 0 51
39 51 65 0 14 -2 25 -5 25 -3 0 -5 -11 -5 -24z"/>
<path d="M8958 1363 c7 -3 16 -2 19 1 4 3 -2 6 -13 5 -11 0 -14 -3 -6 -6z"/>
<path d="M8998 1363 c7 -3 16 -2 19 1 4 3 -2 6 -13 5 -11 0 -14 -3 -6 -6z"/>
<path d="M9048 1363 c7 -3 16 -2 19 1 4 3 -2 6 -13 5 -11 0 -14 -3 -6 -6z"/>
<path d="M9098 1363 c7 -3 16 -2 19 1 4 3 -2 6 -13 5 -11 0 -14 -3 -6 -6z"/>
<path d="M9218 1363 c7 -3 16 -2 19 1 4 3 -2 6 -13 5 -11 0 -14 -3 -6 -6z"/>
<path d="M10755 1361 c-3 -5 0 -13 6 -17 7 -4 9 -3 5 4 -3 6 2 13 11 15 16 4
16 5 1 6 -9 0 -19 -3 -23 -8z"/>
<path d="M10808 1363 c7 -3 16 -2 19 1 4 3 -2 6 -13 5 -11 0 -14 -3 -6 -6z"/>
<path d="M10858 1363 c7 -3 16 -2 19 1 4 3 -2 6 -13 5 -11 0 -14 -3 -6 -6z"/>
<path d="M10915 1360 c-3 -6 1 -7 9 -4 18 7 21 14 7 14 -6 0 -13 -4 -16 -10z"/>
<path d="M10958 1363 c7 -3 16 -2 19 1 4 3 -2 6 -13 5 -11 0 -14 -3 -6 -6z"/>
<path d="M11047 1363 c-3 -5 5 -8 18 -8 13 0 21 3 18 8 -2 4 -10 7 -18 7 -8 0
-16 -3 -18 -7z"/>
<path d="M11128 1363 c7 -3 16 -2 19 1 4 3 -2 6 -13 5 -11 0 -14 -3 -6 -6z"/>
<path d="M11178 1363 c7 -3 16 -2 19 1 4 3 -2 6 -13 5 -11 0 -14 -3 -6 -6z"/>
<path d="M11228 1363 c7 -3 16 -2 19 1 4 3 -2 6 -13 5 -11 0 -14 -3 -6 -6z"/>
<path d="M10491 1344 c0 -11 3 -14 6 -6 3 7 2 16 -1 19 -3 4 -6 -2 -5 -13z"/>
<path d="M8957 1339 c7 -7 15 -10 18 -7 3 3 -2 9 -12 12 -14 6 -15 5 -6 -5z"/>
<path d="M9036 1341 c-4 -5 3 -7 14 -4 23 6 26 13 6 13 -8 0 -17 -4 -20 -9z"/>
<path d="M9217 1339 c7 -7 15 -10 18 -7 3 3 -2 9 -12 12 -14 6 -15 5 -6 -5z"/>
<path d="M10858 1343 c6 -2 18 -2 25 0 6 3 1 5 -13 5 -14 0 -19 -2 -12 -5z"/>
<path d="M11128 1343 c7 -3 16 -2 19 1 4 3 -2 6 -13 5 -11 0 -14 -3 -6 -6z"/>
<path d="M11218 1343 c6 -2 18 -2 25 0 6 3 1 5 -13 5 -14 0 -19 -2 -12 -5z"/>
<path d="M9316 1326 c3 -8 13 -17 21 -20 25 -10 23 -3 -3 17 -18 13 -22 14
-18 3z"/>
<path d="M9155 1320 c-16 -7 -17 -9 -3 -9 9 -1 20 4 23 9 7 11 7 11 -20 0z"/>
<path d="M10865 1320 c-16 -7 -17 -9 -3 -9 9 -1 20 4 23 9 7 11 7 11 -20 0z"/>
<path d="M11047 1318 c2 -5 10 -8 18 -8 8 0 16 3 18 8 3 4 -5 7 -18 7 -13 0
-21 -3 -18 -7z"/>
<path d="M11125 1320 c-16 -7 -17 -9 -3 -9 9 -1 20 4 23 9 7 11 7 11 -20 0z"/>
<path d="M11218 1318 c5 -5 16 -8 23 -6 8 3 3 7 -10 11 -17 4 -21 3 -13 -5z"/>
<path d="M8948 1313 c7 -3 16 -2 19 1 4 3 -2 6 -13 5 -11 0 -14 -3 -6 -6z"/>
<path d="M9208 1313 c7 -3 16 -2 19 1 4 3 -2 6 -13 5 -11 0 -14 -3 -6 -6z"/>
<path d="M10500 1313 c0 -12 28 -38 34 -32 2 2 -5 13 -15 23 -11 11 -19 15
-19 9z"/>
<path d="M10758 1313 c7 -3 16 -2 19 1 4 3 -2 6 -13 5 -11 0 -14 -3 -6 -6z"/>
<path d="M10998 1293 c6 -2 18 -2 25 0 6 3 1 5 -13 5 -14 0 -19 -2 -12 -5z"/>
<path d="M10558 1273 c7 -3 16 -2 19 1 4 3 -2 6 -13 5 -11 0 -14 -3 -6 -6z"/>
<path d="M9486 1062 c-3 -5 8 -6 24 -4 19 3 35 -3 49 -17 12 -12 21 -17 21
-13 0 29 -80 57 -94 34z"/>
<path d="M9457 1033 c-14 -14 -6 -64 13 -83 24 -24 72 -26 94 -4 22 22 20 31
-2 11 -44 -40 -107 -9 -100 50 4 36 4 36 -5 26z"/>
<path d="M8947 1013 c-3 -5 5 -8 18 -8 13 0 21 3 18 8 -2 4 -10 7 -18 7 -8 0
-16 -3 -18 -7z"/>
<path d="M9045 1010 c-3 -6 1 -7 9 -4 18 7 21 14 7 14 -6 0 -13 -4 -16 -10z"/>
<path d="M9098 1013 c7 -3 16 -2 19 1 4 3 -2 6 -13 5 -11 0 -14 -3 -6 -6z"/>
<path d="M9158 1013 c7 -3 16 -2 19 1 4 3 -2 6 -13 5 -11 0 -14 -3 -6 -6z"/>
<path d="M9198 1013 c7 -3 16 -2 19 1 4 3 -2 6 -13 5 -11 0 -14 -3 -6 -6z"/>
<path d="M9278 1013 c7 -3 16 -2 19 1 4 3 -2 6 -13 5 -11 0 -14 -3 -6 -6z"/>
<path d="M9336 1011 c-4 -5 3 -7 14 -4 23 6 26 13 6 13 -8 0 -17 -4 -20 -9z"/>
<path d="M9082 983 c2 -10 12 -19 23 -20 16 -1 16 -1 3 3 -25 8 -22 22 5 27
18 4 17 5 -6 6 -22 1 -28 -3 -25 -16z"/>
<path d="M8947 968 c2 -5 10 -8 18 -8 8 0 16 3 18 8 3 4 -5 7 -18 7 -13 0 -21
-3 -18 -7z"/>
<path d="M9158 963 c7 -3 16 -2 19 1 4 3 -2 6 -13 5 -11 0 -14 -3 -6 -6z"/>
<path d="M9278 963 c7 -3 16 -2 19 1 4 3 -2 6 -13 5 -11 0 -14 -3 -6 -6z"/>
<path d="M10321 949 c-3 -55 75 -92 113 -53 22 22 20 31 -2 11 -39 -35 -95
-12 -105 43 l-4 25 -2 -26z"/>
<path d="M10452 950 c0 -14 2 -19 5 -12 2 6 2 18 0 25 -3 6 -5 1 -5 -13z"/>
<path d="M10595 951 c19 -8 18 -9 -5 -13 -24 -5 -24 -5 3 -7 32 -1 33 22 1 26
-18 3 -18 2 1 -6z"/>
<path d="M10658 953 c7 -3 16 -2 19 1 4 3 -2 6 -13 5 -11 0 -14 -3 -6 -6z"/>
<path d="M10707 953 c-3 -5 5 -8 18 -8 13 0 21 3 18 8 -2 4 -10 7 -18 7 -8 0
-16 -3 -18 -7z"/>
<path d="M10825 950 c-3 -6 1 -7 9 -4 18 7 21 14 7 14 -6 0 -13 -4 -16 -10z"/>
<path d="M10898 953 c7 -3 16 -2 19 1 4 3 -2 6 -13 5 -11 0 -14 -3 -6 -6z"/>
<path d="M11008 953 c7 -3 16 -2 19 1 4 3 -2 6 -13 5 -11 0 -14 -3 -6 -6z"/>
<path d="M10898 933 c6 -2 18 -2 25 0 6 3 1 5 -13 5 -14 0 -19 -2 -12 -5z"/>
<path d="M10998 933 c6 -2 18 -2 25 0 6 3 1 5 -13 5 -14 0 -19 -2 -12 -5z"/>
<path d="M10707 908 c2 -5 10 -8 18 -8 8 0 16 3 18 8 3 4 -5 7 -18 7 -13 0
-21 -3 -18 -7z"/>
<path d="M10827 909 c7 -7 15 -10 18 -7 3 3 -2 9 -12 12 -14 6 -15 5 -6 -5z"/>
<path d="M10905 910 c-16 -7 -17 -9 -3 -9 9 -1 20 4 23 9 7 11 7 11 -20 0z"/>
<path d="M10998 908 c5 -5 16 -8 23 -6 8 3 3 7 -10 11 -17 4 -21 3 -13 -5z"/>
<path d="M10588 903 c6 -2 18 -2 25 0 6 3 1 5 -13 5 -14 0 -19 -2 -12 -5z"/>
<path d="M10778 883 c6 -2 18 -2 25 0 6 3 1 5 -13 5 -14 0 -19 -2 -12 -5z"/>
<path d="M9894 752 c-35 -23 -39 -87 -6 -114 12 -11 12 -7 -2 21 -21 40 -10
76 26 91 13 5 16 9 8 9 -8 0 -20 -3 -26 -7z"/>
<path d="M9955 748 c58 -33 43 -108 -25 -121 l-25 -4 26 -2 c32 -1 69 36 69
70 0 32 -26 69 -48 69 -14 -1 -14 -2 3 -12z"/>
<path d="M9748 523 c7 -3 16 -2 19 1 4 3 -2 6 -13 5 -11 0 -14 -3 -6 -6z"/>
<path d="M9810 526 c0 -2 7 -7 16 -10 8 -3 12 -2 9 4 -6 10 -25 14 -25 6z"/>
<path d="M9906 521 c-4 -5 3 -7 14 -4 23 6 26 13 6 13 -8 0 -17 -4 -20 -9z"/>
<path d="M9736 501 c-4 -5 3 -7 14 -4 23 6 26 13 6 13 -8 0 -17 -4 -20 -9z"/>
<path d="M9908 478 c5 -5 16 -8 23 -6 8 3 3 7 -10 11 -17 4 -21 3 -13 -5z"/>
<path d="M9985 480 c-16 -7 -17 -9 -3 -9 9 -1 20 4 23 9 7 11 7 11 -20 0z"/>
</g>
</svg>
